<?xml version="1.0" encoding="utf-8"?>
<!-- Generator: Adobe Illustrator 21.0.0, SVG Export Plug-In . SVG Version: 6.00 Build 0)  -->
<svg version="1.1" id="Layer_1" xmlns="http://www.w3.org/2000/svg" xmlns:xlink="http://www.w3.org/1999/xlink" x="0px" y="0px"
	 viewBox="0 0 48 48" style="enable-background:new 0 0 48 48;" xml:space="preserve">
<style type="text/css">
	.st0{opacity:0.5;fill:#78869F;}
</style>
<path class="st0" d="M24,15.5c-4.7,0-8.5,3.8-8.5,8.5s3.8,8.5,8.5,8.5s8.5-3.8,8.5-8.5S28.7,15.5,24,15.5z M27.3,25.9
	c0.4,0.4,0.4,1,0,1.3c-0.4,0.4-1,0.4-1.3,0L24,25.3l-1.9,1.9c-0.4,0.4-1,0.4-1.3,0c-0.4-0.4-0.4-1,0-1.3l1.9-1.9l-1.9-1.9
	c-0.4-0.4-0.4-1,0-1.3c0.4-0.4,1-0.4,1.3,0l1.9,1.9l1.9-1.9c0.4-0.4,1-0.4,1.3,0c0.4,0.4,0.4,1,0,1.3L25.3,24L27.3,25.9z"/>
</svg>
