<?xml version="1.0" encoding="utf-8"?>
<!-- Generator: Adobe Illustrator 21.0.0, SVG Export Plug-In . SVG Version: 6.00 Build 0)  -->
<svg version="1.1" id="Layer_1" xmlns="http://www.w3.org/2000/svg" xmlns:xlink="http://www.w3.org/1999/xlink" x="0px" y="0px"
	 viewBox="0 0 48 48" style="enable-background:new 0 0 48 48;" xml:space="preserve">
<style type="text/css">
	.st0{fill:#FF4C4C;}
</style>
<path id="logoLogo" class="st0" d="M31.7,20.6l-9-7c-0.1,0-0.3-0.1-0.4,0C22.1,13.7,22,13.8,22,14v1.2l8.7,6.7
	c0.5,0.5,0.8,1.3,0.4,1.9c-0.5,0.8-1.5,1-2.3,0.5L18.1,16c-0.2-0.1-0.3-0.2-0.5-0.1c-0.2,0.1-0.2,0.2-0.2,0.4v16.1
	c0,0.5,0.3,1.3,0.8,1.6c0.8,0.7,1.9,0.7,2.6,0.1l10.9-8.5C33.3,24.3,33.3,21.8,31.7,20.6z"/>
</svg>
