<?xml version="1.0" encoding="utf-8"?>
<!-- Generator: Adobe Illustrator 21.0.0, SVG Export Plug-In . SVG Version: 6.00 Build 0)  -->
<svg version="1.1" id="Layer_1" xmlns="http://www.w3.org/2000/svg" xmlns:xlink="http://www.w3.org/1999/xlink" x="0px" y="0px"
	 viewBox="0 0 20 20" style="enable-background:new 0 0 20 20;" xml:space="preserve">
<style type="text/css">
	.st0{fill-rule:evenodd;clip-rule:evenodd;fill:#78869F;}
</style>
<g>
	<path class="st0" d="M3.1,7.5l4.3,1c0.4,0.1,0.8-0.2,0.9-0.6C8.3,7.5,8.1,7.1,7.7,7L3.4,6C3,5.9,2.6,6.2,2.5,6.6
		C2.4,7,2.6,7.4,3.1,7.5z"/>
	<path class="st0" d="M3.1,10.2l4.3,1c0.4,0.1,0.8-0.2,0.9-0.6c0.1-0.4-0.2-0.8-0.6-0.9l-4.3-1C3,8.7,2.6,8.9,2.5,9.3
		C2.4,9.7,2.6,10.1,3.1,10.2z"/>
	<path class="st0" d="M3.1,13l2.1,0.5c0.4,0.1,0.8-0.2,0.9-0.6c0.1-0.4-0.2-0.8-0.6-0.9l-2.1-0.5c-0.4-0.1-0.8,0.2-0.9,0.6
		C2.4,12.5,2.6,12.9,3.1,13z"/>
	<path class="st0" d="M19.3,2.3c-0.1,0-0.2,0-0.2,0L10,4.5L0.9,2.4c-0.1,0-0.1,0-0.2,0C0.3,2.3,0,2.7,0,3.1l0,11.7
		c0,0.3,0.2,0.7,0.6,0.7l9.2,2.1c0.1,0,0.1,0,0.2,0c0,0,0,0,0,0s0,0,0,0c0.1,0,0.2,0,0.2,0l9.2-2.1c0.3-0.1,0.6-0.4,0.6-0.7V3.1
		C20,2.7,19.7,2.3,19.3,2.3z M9.2,16l-7.8-1.8V4l7.8,1.8V16z M18.5,14.2L10.8,16V5.8L18.5,4V14.2z"/>
	<path class="st0" d="M12.7,8.5l4.3-1c0.4-0.1,0.7-0.5,0.6-0.9C17.4,6.2,17,5.9,16.6,6l-4.3,1c-0.4,0.1-0.7,0.5-0.6,0.9
		C11.9,8.3,12.3,8.6,12.7,8.5z"/>
</g>
</svg>
