<?xml version="1.0" encoding="utf-8"?>
<!-- Generator: Adobe Illustrator 21.0.0, SVG Export Plug-In . SVG Version: 6.00 Build 0)  -->
<svg version="1.1" id="Layer_1" xmlns="http://www.w3.org/2000/svg" xmlns:xlink="http://www.w3.org/1999/xlink" x="0px" y="0px"
	 viewBox="0 0 20 20" style="enable-background:new 0 0 20 20;" xml:space="preserve">
<style type="text/css">
	.st0{fill:#78869F;}
</style>
<path class="st0" d="M7.6,17c-0.4,0-0.8-0.3-0.8-0.7V4.7c0-1,0.8-1.7,1.7-1.7H15c1,0,1.7,0.8,1.7,1.7v11.4c0,0.3-0.2,0.6-0.5,0.7
	c-0.3,0.1-0.6,0-0.8-0.2l-3.6-3.8l-3.7,4C8,16.9,7.8,17,7.6,17z M8.5,4.5c-0.1,0-0.2,0.1-0.2,0.2v9.8l3.1-3.3c0.3-0.3,0.8-0.3,1.1,0
	l2.9,3V4.7c0-0.1-0.1-0.2-0.2-0.2H8.5z"/>
</svg>
