<?xml version="1.0" encoding="utf-8"?>
<!-- Generator: Adobe Illustrator 21.0.0, SVG Export Plug-In . SVG Version: 6.00 Build 0)  -->
<svg version="1.1" id="Layer_1" xmlns="http://www.w3.org/2000/svg" xmlns:xlink="http://www.w3.org/1999/xlink" x="0px" y="0px"
	 viewBox="0 0 20 20" style="enable-background:new 0 0 20 20;" xml:space="preserve">
<style type="text/css">
	.st0{fill:#78869F;}
</style>
<g>
	<path class="st0" d="M7.3,10.6h9.6c0.3,0,0.6-0.2,0.7-0.5L20,3.6c0,0,0-0.1,0-0.1c0,0,0-0.1,0-0.1c0,0,0,0,0,0c0-0.1,0-0.1,0-0.2
		c0,0,0-0.1,0-0.1c0,0-0.1-0.1-0.1-0.1c0,0,0-0.1-0.1-0.1c0,0-0.1-0.1-0.1-0.1c0,0-0.1-0.1-0.1-0.1c0,0,0,0,0,0c0,0-0.1,0-0.1,0
		c0,0-0.1,0-0.1,0H5.4L4.7,0.5C4.5,0.2,4.3,0,3.9,0H0.8C0.3,0,0,0.3,0,0.8c0,0.4,0.3,0.8,0.8,0.8h2.7l2.9,7.8C5.5,9.7,5,10.4,5,11.3
		c0,1.3,1,2.3,2.3,2.3h11.6c0.4,0,0.8-0.3,0.8-0.8c0-0.4-0.3-0.8-0.8-0.8H7.3c-0.4,0-0.8-0.3-0.8-0.8S6.9,10.6,7.3,10.6z M18.2,4.1
		l-1.8,4.9H7.8L6,4.1H18.2z"/>
	<path class="st0" d="M7.3,15c-1.4,0-2.5,1.1-2.5,2.5S5.9,20,7.3,20s2.5-1.1,2.5-2.5S8.7,15,7.3,15z M7.3,18.5c-0.5,0-1-0.4-1-1
		c0-0.5,0.4-1,1-1s1,0.4,1,1C8.3,18,7.8,18.5,7.3,18.5z"/>
	<path class="st0" d="M16.9,15c-1.4,0-2.5,1.1-2.5,2.5s1.1,2.5,2.5,2.5s2.5-1.1,2.5-2.5S18.3,15,16.9,15z M16.9,18.5
		c-0.5,0-1-0.4-1-1c0-0.5,0.4-1,1-1c0.5,0,1,0.4,1,1C17.9,18,17.4,18.5,16.9,18.5z"/>
</g>
</svg>
