<?xml version="1.0" encoding="utf-8"?>
<!-- Generator: Adobe Illustrator 21.0.0, SVG Export Plug-In . SVG Version: 6.00 Build 0)  -->
<svg version="1.1" id="Layer_1" xmlns="http://www.w3.org/2000/svg" xmlns:xlink="http://www.w3.org/1999/xlink" x="0px" y="0px"
	 viewBox="0 0 20 20" style="enable-background:new 0 0 20 20;" xml:space="preserve">
<style type="text/css">
	.st0{fill:#78869F;}
</style>
<g>
	<path class="st0" d="M15.7,11.9h-3.1c-0.4,0-0.7,0.3-0.7,0.7c0,0.4,0.3,0.7,0.7,0.7h3.1c0.4,0,0.7-0.3,0.7-0.7
		C16.5,12.2,16.1,11.9,15.7,11.9z"/>
	<path class="st0" d="M17.6,3H8.7C7.3,3,6.2,4.1,6.2,5.5v1.9l-5.1-3c-0.2-0.1-0.5-0.1-0.7,0C0.1,4.5,0,4.7,0,5v10
		c0,0.3,0.1,0.5,0.4,0.6c0.1,0.1,0.2,0.1,0.4,0.1s0.3,0,0.4-0.1l5.1-3v1.9c0,1.3,1.1,2.4,2.4,2.4h8.9c1.3,0,2.4-1.1,2.4-2.4V5.5
		C20,4.1,18.9,3,17.6,3z M1.5,13.7V6.3L6.2,9V11L1.5,13.7z M18.5,14.5c0,0.5-0.4,0.9-0.9,0.9H8.7c-0.5,0-0.9-0.4-0.9-0.9v-3.1V8.6
		V5.5c0-0.5,0.4-0.9,0.9-0.9h8.9c0.5,0,0.9,0.4,0.9,0.9V14.5z"/>
</g>
</svg>
