<?xml version="1.0" encoding="utf-8"?>
<!-- Generator: Adobe Illustrator 21.0.0, SVG Export Plug-In . SVG Version: 6.00 Build 0)  -->
<svg version="1.1" id="Layer_1" xmlns="http://www.w3.org/2000/svg" xmlns:xlink="http://www.w3.org/1999/xlink" x="0px" y="0px"
	 viewBox="0 0 20 20" style="enable-background:new 0 0 20 20;" xml:space="preserve">
<style type="text/css">
	.st0{fill:#78869F;}
</style>
<path class="st0" d="M6,17.3c-0.6,0-1.2-0.1-1.7-0.3c-0.3-0.1-0.5-0.3-0.5-0.6s0.1-0.6,0.3-0.8c0.6-0.4,1-0.9,1.3-1.5
	C4.3,13,3.7,11.4,3.7,9.7c0-3.8,3.1-7,7-7s7,3.1,7,7s-3.1,7-7,7c-0.7,0-1.3-0.1-1.8-0.3C8,17,7,17.3,6,17.3z M10.7,4.2
	c-3,0-5.5,2.4-5.5,5.5c0,1.5,0.6,2.8,1.5,3.9c0.2,0.2,0.3,0.5,0.2,0.8C6.7,15,6.4,15.5,6,15.9c0.8,0,1.5-0.3,2.1-0.8
	c0.2-0.2,0.5-0.2,0.7-0.1c0.6,0.2,1.2,0.3,1.7,0.3c3,0,5.5-2.4,5.5-5.5S13.7,4.2,10.7,4.2z"/>
</svg>
