<?xml version="1.0" encoding="utf-8"?>
<!-- Generator: Adobe Illustrator 21.0.0, SVG Export Plug-In . SVG Version: 6.00 Build 0)  -->
<svg version="1.1" id="Layer_1" xmlns="http://www.w3.org/2000/svg" xmlns:xlink="http://www.w3.org/1999/xlink" x="0px" y="0px"
	 viewBox="0 0 30 20" style="enable-background:new 0 0 30 20;" xml:space="preserve">
<style type="text/css">
	.st0{fill-rule:evenodd;clip-rule:evenodd;fill:#74839D;}
	.st1{fill:#8CB5F3;}
</style>
<g>
	<ellipse transform="matrix(0.4999 -0.8661 0.8661 0.4999 -9.6051 13.5993)" class="st0" cx="7" cy="15.1" rx="0.8" ry="0.8"/>
	<path class="st0" d="M16.6,1.9c-0.2-0.6-0.5-1.1-1.1-1.4l-0.1,0c-0.6-0.3-1.2-0.4-1.8-0.2c-0.6,0.2-1.1,0.6-1.5,1.1l-0.3,0.5
		l-1-0.6c-0.4-0.2-0.8-0.1-1,0.3L7.4,5.8c-0.2,0.4-0.1,0.8,0.3,1C8,7,8.5,6.9,8.7,6.6l2.1-3.7L11.1,3L7.5,9.3l-1.3,2.2
		C5.9,11.8,4.6,13,3.5,14c-0.3,0.2-0.3,0.6-0.2,0.9c1,1.9,0.6,4.1,0.6,4.1c0,0,0,0,0,0c0,0.1,0,0.1,0,0.2c0,0,0,0.1,0,0.1
		c0,0,0,0.1,0.1,0.1c0,0,0,0.1,0.1,0.1c0,0,0,0,0,0c0,0,0.1,0,0.1,0.1c0,0,0.1,0.1,0.1,0.1c0,0,0.1,0,0.2,0.1c0,0,0.1,0,0.1,0
		c0,0,0,0,0,0c0.1,0,0.1,0,0.2,0c0,0,0.1,0,0.1,0c0,0,0.1,0,0.1-0.1c0,0,0.1,0,0.1-0.1c0,0,0,0,0,0c0,0,1.7-1.5,3.9-1.5
		c0.3,0,0.6-0.3,0.7-0.6c0.3-1.4,0.7-3.3,0.8-3.7l1.3-2.2l4.6-8C16.7,3.1,16.8,2.5,16.6,1.9z M9.5,12.6l-1.6-0.9l0.6-1l1.6,0.9
		L9.5,12.6z M5.5,17.8c0-0.8-0.2-1.9-0.6-3c0.8-0.7,1.6-1.5,2.1-1.9l2,1.1c-0.1,0.6-0.4,1.7-0.6,2.8C7.2,16.9,6.2,17.3,5.5,17.8z
		 M15.1,3l-4.2,7.3L9.2,9.4L13.5,2c0.1-0.2,0.3-0.3,0.5-0.4c0.2-0.1,0.5,0,0.7,0.1l0.1,0C15,1.8,15.1,2,15.2,2.3
		C15.2,2.5,15.2,2.7,15.1,3z"/>
</g>
<path class="st1" d="M22.9,4.5h-3.9c-0.4,0-0.8-0.3-0.8-0.8S18.5,3,18.9,3h3.9c0.4,0,0.8,0.3,0.8,0.8S23.3,4.5,22.9,4.5z"/>
<path class="st1" d="M27.4,7.4h-8.5c-0.4,0-0.8-0.3-0.8-0.8s0.3-0.8,0.8-0.8h8.5c0.4,0,0.8,0.3,0.8,0.8S27.8,7.4,27.4,7.4z"/>
<path class="st1" d="M27.4,10.4h-8.5c-0.4,0-0.8-0.3-0.8-0.8s0.3-0.8,0.8-0.8h8.5c0.4,0,0.8,0.3,0.8,0.8S27.8,10.4,27.4,10.4z"/>
</svg>
