<?xml version="1.0" encoding="utf-8"?>
<!-- Generator: Adobe Illustrator 21.0.0, SVG Export Plug-In . SVG Version: 6.00 Build 0)  -->
<svg version="1.1" id="Layer_1" xmlns="http://www.w3.org/2000/svg" xmlns:xlink="http://www.w3.org/1999/xlink" x="0px" y="0px"
	 viewBox="0 0 30 20" style="enable-background:new 0 0 30 20;" xml:space="preserve">
<style type="text/css">
	.st0{fill:#78869F;}
	.st1{fill-rule:evenodd;clip-rule:evenodd;fill:#8CB5F3;}
</style>
<path class="st0" d="M11.3,17.8c-0.4,0-0.8,0-1.3-0.1c-0.3,0-0.6-0.1-0.8-0.2c-0.6,0.5-1.4,0.8-2.1,0.9c-0.9,0.1-1.8,0.1-2.8-0.3
	c-0.4-0.1-0.6-0.6-0.5-1c0.1-0.2,0.2-0.3,0.4-0.4c0.4-0.2,0.7-0.5,1-0.9c0.2-0.2,0.3-0.5,0.4-0.7c-0.5-0.6-1-1.3-1.3-2.1
	c-0.4-0.9-0.6-1.9-0.6-2.9c0-2.1,0.9-4,2.2-5.4s3.3-2.2,5.4-2.2c1.1,0,2.1,0.2,3,0.6C14,3.5,13.8,4,13.6,4.5
	c-0.7-0.3-1.5-0.4-2.3-0.4C9.6,4.1,8.1,4.8,7,5.9s-1.8,2.6-1.8,4.3c0,0.8,0.2,1.6,0.4,2.3c0.3,0.7,0.7,1.4,1.3,2
	C7,14.7,7.2,15,7,15.3c-0.2,0.6-0.5,1.1-0.9,1.6V17c0.2,0,0.3,0,0.5,0c0.6-0.1,1.2-0.4,1.8-0.8C8.6,16,8.9,16,9.3,16.1
	c0.3,0.1,0.6,0.2,1,0.2c0.3,0.1,0.6,0.1,1,0.1c1.7,0,3.2-0.7,4.3-1.8c0.3-0.3,0.5-0.6,0.7-0.9c0.4,0.3,0.9,0.6,1.4,0.8
	c-0.3,0.5-0.6,0.9-1,1.3C15.4,17,13.4,17.8,11.3,17.8z"/>
<path class="st1" d="M20.5,13.2c-3.2,0-5.8-2.6-5.8-5.8s2.6-5.8,5.8-5.8c3.2,0,5.8,2.6,5.8,5.8S23.8,13.2,20.5,13.2L20.5,13.2z
	 M20.5,11.3c0.4,0,0.7-0.3,0.7-0.7c0-0.4-0.3-0.7-0.7-0.7c-0.4,0-0.7,0.3-0.7,0.7C19.8,11,20.1,11.3,20.5,11.3L20.5,11.3z M22.7,5
	c-0.2-0.5-0.5-0.9-0.9-1.1l-0.1,0c-0.4-0.2-0.8-0.4-1.3-0.4c-0.6,0-1.2,0.3-1.7,0.7l0,0.1c-0.4,0.4-0.6,1-0.6,1.6
	c0,0.5,0.1,0.9,0.4,1.3c0.2,0.4,0.6,0.7,1,0.9c0.1,0,0.1,0.1,0.1,0.1c0,0,0,0.1,0,0.2v0.4c0,0.4,0.4,0.8,0.8,0.8s0.8-0.4,0.8-0.8
	V8.2c0-0.4-0.1-0.7-0.3-1c-0.2-0.3-0.5-0.5-0.8-0.7c-0.1-0.1-0.2-0.2-0.3-0.3c-0.1-0.1-0.1-0.3-0.1-0.4c0-0.2,0.1-0.4,0.2-0.5l0,0
	C20.1,5.1,20.3,5,20.5,5c0.1,0,0.3,0,0.4,0.1l0,0c0.1,0.1,0.2,0.2,0.3,0.4c0.1,0.4,0.6,0.6,1,0.5C22.7,5.8,22.9,5.4,22.7,5z"/>
</svg>
