<?xml version="1.0" encoding="utf-8"?>
<!-- Generator: Adobe Illustrator 21.0.0, SVG Export Plug-In . SVG Version: 6.00 Build 0)  -->
<svg version="1.1" id="Layer_1" xmlns="http://www.w3.org/2000/svg" xmlns:xlink="http://www.w3.org/1999/xlink" x="0px" y="0px"
	 viewBox="0 0 30 20" style="enable-background:new 0 0 30 20;" xml:space="preserve">
<style type="text/css">
	.st0{fill:#78869F;}
	.st1{fill:#FFFFFF;}
	.st2{fill:#8CB5F3;}
</style>
<g>
	<path class="st0" d="M7.7,8.5l4.3,1c0.4,0.1,0.8-0.2,0.9-0.6c0-0.4-0.2-0.8-0.6-0.9L8,7C7.6,6.9,7.2,7.2,7.1,7.6S7.2,8.4,7.7,8.5z"
		/>
	<path class="st0" d="M7.7,11.2l4.3,1c0.4,0.1,0.8-0.2,0.9-0.6c0.1-0.4-0.2-0.8-0.6-0.9L8,9.7c-0.4,0-0.8,0.2-0.9,0.6
		C7,10.7,7.2,11.1,7.7,11.2z"/>
	<path class="st0" d="M7.7,14l2.1,0.5c0.4,0.1,0.8-0.2,0.9-0.6c0.1-0.4-0.2-0.8-0.6-0.9L8,12.5c-0.4-0.1-0.8,0.2-0.9,0.6
		C7,13.5,7.2,13.9,7.7,14z"/>
	<path class="st0" d="M23.9,3.3c-0.1,0-0.2,0-0.2,0l-9.1,2.2L5.5,3.4c-0.1,0-0.1,0-0.2,0C4.9,3.3,4.6,3.7,4.6,4.1v11.7
		c0,0.3,0.2,0.7,0.6,0.7l9.2,2.1c0.1,0,0.1,0,0.2,0l0,0l0,0c0.1,0,0.2,0,0.2,0l9.2-2.1c0.3-0.1,0.6-0.4,0.6-0.7V4.1
		C24.6,3.7,24.3,3.3,23.9,3.3z M13.8,17L6,15.2V5l7.8,1.8V17z M23.1,15.2L15.4,17V6.8L23.1,5V15.2z"/>
	<path class="st0" d="M17.3,9.5l4.3-1C22,8.4,22.3,8,22.2,7.6c-0.2-0.4-0.6-0.7-1-0.6l-4.3,1c-0.4,0.1-0.7,0.5-0.6,0.9
		C16.5,9.3,16.9,9.6,17.3,9.5z"/>
</g>
<path class="st1" d="M22.9,14.5c3.9,0,7.1-3.3,7.1-7.2c0-4-3.2-7.2-7.1-7.2s-7.1,3.3-7.1,7.2C15.7,11.2,18.9,14.5,22.9,14.5z"/>
<path class="st2" d="M22.9,1.4c-3.2,0-5.7,2.6-5.7,5.8s2.6,5.8,5.7,5.8c3.2,0,5.7-2.6,5.7-5.8S26,1.4,22.9,1.4z M25.2,9.5h-4.6
	c-0.4,0-0.7-0.3-0.7-0.7s0.3-0.7,0.7-0.7h4.6c0.4,0,0.7,0.3,0.7,0.7S25.6,9.5,25.2,9.5z M25.2,6.5h-4.6c-0.4,0-0.7-0.3-0.7-0.7
	c0-0.4,0.3-0.7,0.7-0.7h4.6c0.4,0,0.7,0.3,0.7,0.7C25.9,6.2,25.6,6.5,25.2,6.5z"/>
</svg>
