<?xml version="1.0" encoding="utf-8"?>
<!-- Generator: Adobe Illustrator 21.0.0, SVG Export Plug-In . SVG Version: 6.00 Build 0)  -->
<svg version="1.1" id="Layer_1" xmlns="http://www.w3.org/2000/svg" xmlns:xlink="http://www.w3.org/1999/xlink" x="0px" y="0px"
	 viewBox="0 0 26 26" style="enable-background:new 0 0 26 26;" xml:space="preserve">
<style type="text/css">
	.st0{fill:#FFFFFF;}
</style>
<path class="st0" d="M13,1.3c-3.1,0-3.6,0-4.8,0.1C7,1.4,6.1,1.7,5.4,2C4.6,2.2,3.8,2.7,3.3,3.3C2.7,3.8,2.2,4.6,2,5.4
	C1.7,6.1,1.4,7,1.4,8.2C1.3,9.4,1.3,9.9,1.3,13s0,3.6,0.1,4.8c0.1,1.3,0.3,2.1,0.5,2.9c0.3,0.8,0.7,1.5,1.3,2.1
	c0.5,0.6,1.3,1.1,2.1,1.3c0.7,0.3,1.6,0.4,2.9,0.5c1.2,0,1.6,0,4.8,0s3.6,0,4.8-0.1c1.3-0.1,2.1-0.3,2.9-0.5
	c1.5-0.6,2.8-1.9,3.4-3.4c0.3-0.7,0.4-1.6,0.5-2.9c0-1.2,0-1.6,0-4.8s0-3.6-0.1-4.8c-0.1-1.3-0.3-2.1-0.5-2.9s-0.7-1.5-1.3-2.1
	c-0.5-0.6-1.3-1.1-2.1-1.3c-0.7-0.3-1.6-0.4-2.9-0.5C16.6,1.3,16.1,1.3,13,1.3L13,1.3L13,1.3L13,1.3z M13,6.5c3.6,0,6.5,2.9,6.5,6.5
	s-2.9,6.5-6.5,6.5S6.5,16.6,6.5,13S9.4,6.5,13,6.5L13,6.5z M20.9,6.4c0,0.8-0.6,1.4-1.4,1.4c-0.8,0-1.4-0.6-1.4-1.4S18.7,5,19.5,5
	C20.4,5.1,20.9,5.6,20.9,6.4z"/>
<circle class="st0" cx="13" cy="13" r="4.4"/>
</svg>
