<?xml version="1.0" encoding="utf-8"?>
<!-- Generator: Adobe Illustrator 21.0.0, SVG Export Plug-In . SVG Version: 6.00 Build 0)  -->
<svg version="1.1" id="Layer_1" xmlns="http://www.w3.org/2000/svg" xmlns:xlink="http://www.w3.org/1999/xlink" x="0px" y="0px"
	 viewBox="0 0 20 20" style="enable-background:new 0 0 20 20;" xml:space="preserve">
<style type="text/css">
	.st0{fill-rule:evenodd;clip-rule:evenodd;fill:#78869F;}
</style>
<path class="st0" d="M6.2,10.8l1,3.4c0,0.2,0.2,0.3,0.3,0.3c0.2,0,0.3,0,0.5-0.1l1.6-1.4l3,2.2c0.1,0.1,0.3,0.1,0.5,0.1
	c0.2-0.1,0.3-0.2,0.3-0.4l2-9.6c0-0.2,0-0.4-0.2-0.5c-0.1-0.1-0.3-0.1-0.5-0.1L3.7,9C3.5,9.1,3.4,9.3,3.4,9.5c0,0.2,0.1,0.4,0.3,0.5
	L6.2,10.8L6.2,10.8z M7.7,13L7,10.7c-0.1-0.2,0-0.4,0.2-0.5l6-3.6c0,0,0,0,0.1,0c0,0,0,0,0,0.1l-4.7,4.3c-0.2,0.2-0.3,0.4-0.4,0.7
	L7.9,13c0,0.1-0.1,0.1-0.1,0.1C7.7,13.1,7.7,13,7.7,13z"/>
</svg>
