<?xml version="1.0" encoding="utf-8"?>
<!-- Generator: Adobe Illustrator 21.0.0, SVG Export Plug-In . SVG Version: 6.00 Build 0)  -->
<svg version="1.1" id="Layer_1" xmlns="http://www.w3.org/2000/svg" xmlns:xlink="http://www.w3.org/1999/xlink" x="0px" y="0px"
	 viewBox="0 0 20 20" style="enable-background:new 0 0 20 20;" xml:space="preserve">
<style type="text/css">
	.st0{fill:#78869F;}
</style>
<path class="st0" d="M10,8.1C9.2,6,12.7,3.9,14.2,5.9c0,0,0.5,0,1.6-0.5c0,0-0.2,0.8-1,1.3c0,0,0.6,0,1.3-0.3c0,0-0.5,0.7-1.1,1.3
	c0,0,0,1.1-0.2,1.8c-0.2,0.7-0.7,2.6-2.3,4c-1.7,1.3-3.7,1.7-4.8,1.6c-1.2-0.1-2.6-0.5-3.5-1.1c0,0,2,0.2,3.6-1.1
	c0,0-1.6,0.1-2.3-1.7c0,0,0.5,0.1,1.1-0.1c0,0-1.9-0.4-2-2.5c0,0,0.7,0.3,1.1,0.3c0,0-1.9-1.4-0.7-3.2C4.9,5.6,6.7,8.1,10,8.1z"/>
</svg>
