<?xml version="1.0" encoding="utf-8"?>
<!-- Generator: Adobe Illustrator 21.0.0, SVG Export Plug-In . SVG Version: 6.00 Build 0)  -->
<svg version="1.1" id="Layer_1" xmlns="http://www.w3.org/2000/svg" xmlns:xlink="http://www.w3.org/1999/xlink" x="0px" y="0px"
	 viewBox="0 0 26 26" style="enable-background:new 0 0 26 26;" xml:space="preserve">
<style type="text/css">
	.st0{fill:#78869F;}
</style>
<path class="st0" d="M6.3,14.6l1.9,6.6c0.1,0.3,0.3,0.5,0.6,0.6c0.3,0.1,0.6,0,0.9-0.2l3.1-2.7l5.8,4.1c0.3,0.2,0.6,0.2,0.9,0.1
	c0.3-0.1,0.5-0.4,0.6-0.7l3.9-18.6c0.1-0.3,0-0.7-0.3-0.9c-0.3-0.2-0.6-0.3-0.9-0.2L1.5,10.9c-0.4,0.1-0.6,0.5-0.6,0.9
	c0,0.4,0.2,0.7,0.6,0.8L6.3,14.6L6.3,14.6z M9.1,18.7l-1.2-4.3c-0.1-0.4,0-0.8,0.4-1l11.5-7h0.1v0.1l-9.1,8.4
	c-0.4,0.3-0.6,0.8-0.7,1.3l-0.5,2.6c0,0.1-0.1,0.2-0.2,0.2C9.2,18.9,9.1,18.8,9.1,18.7z"/>
</svg>
