<?xml version="1.0" encoding="utf-8"?>
<!-- Generator: Adobe Illustrator 21.0.0, SVG Export Plug-In . SVG Version: 6.00 Build 0)  -->
<svg version="1.1" id="Layer_1" xmlns="http://www.w3.org/2000/svg" xmlns:xlink="http://www.w3.org/1999/xlink" x="0px" y="0px"
	 viewBox="0 0 26 26" style="enable-background:new 0 0 26 26;" xml:space="preserve">
<style type="text/css">
	.st0{fill:#FFFFFF;}
</style>
<path class="st0" d="M12.9,9c-1.7-4.7,5.9-9.2,9.1-4.9c0,0,1.2,0,3.4-1.2c0,0-0.5,1.7-2.2,2.8c0,0,1.3,0,2.9-0.7c0,0-1,1.6-2.5,2.7
	c0,0,0,2.4-0.4,3.9c-0.4,1.5-1.6,5.7-5.1,8.6c-3.6,2.9-8,3.6-10.5,3.4C5,23.4,2,22.5,0,21.3c0,0,4.5,0.5,7.8-2.3
	c0,0-3.4,0.2-4.9-3.7c0,0,1.1,0.2,2.4-0.1c0,0-4.2-0.8-4.3-5.3c0,0,1.4,0.7,2.4,0.6c0,0-4-3.1-1.6-7.1C1.8,3.4,5.8,8.8,12.9,9z"/>
</svg>
