<?xml version="1.0" encoding="utf-8"?>
<!-- Generator: Adobe Illustrator 21.0.0, SVG Export Plug-In . SVG Version: 6.00 Build 0)  -->
<svg version="1.1" id="Layer_1" xmlns="http://www.w3.org/2000/svg" xmlns:xlink="http://www.w3.org/1999/xlink" x="0px" y="0px"
	 viewBox="0 0 82.5 24" style="enable-background:new 0 0 82.5 24;" xml:space="preserve">
<style type="text/css">
	.st0{opacity:0.4;fill:#78869F;enable-background:new    ;}
</style>
<path class="st0" d="M48.3,10.5c0,0.2-0.1,0.4-0.2,0.5l-3.7,2.7l1.4,4.3c0.1,0.3-0.1,0.6-0.4,0.7c-0.2,0.1-0.4,0-0.6-0.1L41.2,16
	l-3.7,2.7c-0.3,0.2-0.6,0.1-0.8-0.1c-0.1-0.2-0.1-0.3-0.1-0.5l1.4-4.3L34.4,11c-0.2-0.2-0.3-0.6-0.1-0.9c0.1-0.1,0.3-0.2,0.5-0.2
	h4.5l1.4-4.3c0.1-0.3,0.4-0.5,0.7-0.4c0.2,0.1,0.3,0.2,0.4,0.4l1.4,4.3h4.5C48,9.9,48.3,10.2,48.3,10.5z M30.6,9.9h-4.5l-1.4-4.3
	c-0.1-0.2-0.2-0.3-0.4-0.4c-0.3-0.1-0.6,0.1-0.7,0.4l-1.4,4.3h-4.5c-0.2,0-0.4,0.1-0.5,0.2c-0.2,0.3-0.1,0.7,0.1,0.9l3.6,2.8
	l-1.4,4.3c0,0.2,0,0.3,0.1,0.5c0.2,0.2,0.5,0.3,0.8,0.1l3.7-2.7l3.6,2.6c0.2,0.1,0.4,0.2,0.6,0.1c0.3-0.1,0.5-0.4,0.4-0.7l-1.4-4.3
	L31,11c0.1-0.1,0.2-0.3,0.2-0.5C31.2,10.2,30.9,9.9,30.6,9.9z M13.5,9.9H9L7.6,5.6C7.5,5.4,7.4,5.3,7.2,5.2C6.9,5.1,6.6,5.3,6.5,5.6
	L5.1,9.9H0.6c-0.2,0-0.4,0.1-0.5,0.2C-0.1,10.4,0,10.8,0.2,11l3.6,2.8l-1.4,4.3c0,0.2,0,0.3,0.1,0.5c0.2,0.2,0.5,0.3,0.8,0.1L7,16
	l3.6,2.6c0.2,0.1,0.4,0.2,0.6,0.1c0.3-0.1,0.5-0.4,0.4-0.7l-1.4-4.3l3.7-2.7c0.1-0.1,0.2-0.3,0.2-0.5C14.1,10.2,13.8,9.9,13.5,9.9z
	 M64.8,9.9h-4.5l-1.4-4.3c-0.1-0.2-0.2-0.3-0.4-0.4c-0.3-0.1-0.6,0.1-0.7,0.4l-1.4,4.3h-4.5c-0.2,0-0.4,0.1-0.5,0.2
	c-0.2,0.3-0.1,0.7,0.1,0.9l3.6,2.8l-1.4,4.3c0,0.2,0,0.3,0.1,0.5c0.2,0.2,0.5,0.3,0.8,0.1l3.7-2.7l3.6,2.6c0.2,0.1,0.4,0.2,0.6,0.1
	c0.3-0.1,0.5-0.4,0.4-0.7l-1.4-4.3l3.7-2.7c0.1-0.1,0.2-0.3,0.2-0.5C65.4,10.2,65.1,9.9,64.8,9.9z M82.5,10.5c0-0.3-0.3-0.6-0.6-0.6
	h-4.5L76,5.6c-0.1-0.2-0.2-0.3-0.4-0.4c-0.3-0.1-0.6,0.1-0.7,0.4l-1.4,4.3H69c-0.2,0-0.4,0.1-0.5,0.2c-0.2,0.3-0.1,0.7,0.1,0.9
	l3.6,2.8l-1.4,4.3c0,0.2,0,0.3,0.1,0.5c0.2,0.2,0.5,0.3,0.8,0.1l3.7-2.7l3.6,2.6c0.2,0.1,0.4,0.2,0.6,0.1c0.3-0.1,0.5-0.4,0.4-0.7
	l-1.4-4.3l3.7-2.7C82.4,10.9,82.5,10.7,82.5,10.5z"/>
</svg>
