<?xml version="1.0" encoding="utf-8"?>
<!-- Generator: Adobe Illustrator 21.0.0, SVG Export Plug-In . SVG Version: 6.00 Build 0)  -->
<svg version="1.1" id="Layer_1" xmlns="http://www.w3.org/2000/svg" xmlns:xlink="http://www.w3.org/1999/xlink" x="0px" y="0px"
	 viewBox="0 0 33 33" style="enable-background:new 0 0 33 33;" xml:space="preserve">
<style type="text/css">
	.st0{fill:#FFFFFF;}
</style>
<g>
	<path class="st0" d="M21.7,17.7c0,0.5-0.4,0.8-0.8,0.8H9.3c-0.5,0-0.8,0.4-0.8,0.8c0,0.5,0.4,0.8,0.8,0.8h11.6c1.3,0,2.3-1,2.3-2.3
		c0-0.9-0.5-1.6-1.4-1.9l2.9-7.8h2.7c0.5,0,0.8-0.4,0.8-0.8c0-0.5-0.3-0.8-0.8-0.8h-3.1c-0.4,0-0.6,0.2-0.8,0.5l-0.7,2.2h-14H8.7
		H8.6l0,0L8.5,9.3L8.4,9.4c-0.1,0-0.1,0.1-0.1,0.1L8.2,9.6v0.1c0,0.1,0,0.1,0,0.2l0,0V10v0.1l2.4,6.5c0.1,0.3,0.4,0.5,0.7,0.5h9.6
		C21.3,17.1,21.7,17.2,21.7,17.7z M22.2,10.6l-1.8,4.9h-8.6L10,10.6H22.2z"/>
	<path class="st0" d="M18.4,24c0,1.4,1.1,2.5,2.5,2.5c1.4,0,2.5-1.1,2.5-2.5s-1.1-2.5-2.5-2.5S18.4,22.6,18.4,24z M19.9,24
		c0-0.6,0.4-1,1-1s1,0.5,1,1c0,0.6-0.5,1-1,1S19.9,24.5,19.9,24z"/>
	<path class="st0" d="M8.8,24c0,1.4,1.1,2.5,2.5,2.5s2.5-1.1,2.5-2.5s-1.1-2.5-2.5-2.5S8.8,22.6,8.8,24z M10.3,24c0-0.6,0.5-1,1-1
		c0.6,0,1,0.5,1,1c0,0.6-0.5,1-1,1S10.3,24.5,10.3,24z"/>
</g>
</svg>
