<?xml version="1.0" encoding="utf-8"?>
<!-- Generator: Adobe Illustrator 21.0.0, SVG Export Plug-In . SVG Version: 6.00 Build 0)  -->
<svg version="1.1" id="Layer_1" xmlns="http://www.w3.org/2000/svg" xmlns:xlink="http://www.w3.org/1999/xlink" x="0px" y="0px"
	 viewBox="0 0 33 33" style="enable-background:new 0 0 33 33;" xml:space="preserve">
<style type="text/css">
	.st0{fill:#FFFFFF;}
</style>
<g>
	<path class="st0" d="M16.5,10.4c3.4,0,6.1,2.7,6.1,6.1s-2.7,6.1-6.1,6.1s-6.1-2.7-6.1-6.1S13.1,10.4,16.5,10.4 M16.5,8.9
		c-4.2,0-7.6,3.4-7.6,7.6s3.4,7.6,7.6,7.6s7.6-3.4,7.6-7.6S20.7,8.9,16.5,8.9L16.5,8.9z"/>
</g>
<path class="st0" d="M16.3,18.3L16.3,18.3c-0.5,0-0.8-0.4-0.8-0.8l0-3.9c0-0.5,0.4-0.8,0.8-0.8h0c0.5,0,0.8,0.4,0.8,0.8l0,3.9
	C17.2,17.9,16.8,18.3,16.3,18.3z"/>
<path class="st0" d="M15.6,17.2L15.6,17.2c0.2-0.4,0.7-0.6,1.1-0.5l2,0.8c0.4,0.2,0.6,0.7,0.5,1.1v0c-0.2,0.4-0.7,0.6-1.1,0.5
	l-2-0.8C15.6,18.1,15.4,17.6,15.6,17.2z"/>
</svg>
