<?xml version="1.0" encoding="utf-8"?>
<!-- Generator: Adobe Illustrator 21.0.0, SVG Export Plug-In . SVG Version: 6.00 Build 0)  -->
<svg version="1.1" id="Layer_1" xmlns="http://www.w3.org/2000/svg" xmlns:xlink="http://www.w3.org/1999/xlink" x="0px" y="0px"
	 viewBox="0 0 100 100" style="enable-background:new 0 0 100 100;" xml:space="preserve">
<style type="text/css">
	.st0{fill-rule:evenodd;clip-rule:evenodd;fill:#C4B17B;}
	.st1{fill-rule:evenodd;clip-rule:evenodd;fill:#EFE1B9;}
	.st2{fill-rule:evenodd;clip-rule:evenodd;fill:#FFF8DE;}
	.st3{opacity:0.28;fill:#859B62;}
	.st4{fill-rule:evenodd;clip-rule:evenodd;fill:#85ACE6;}
	.st5{fill-rule:evenodd;clip-rule:evenodd;fill:#8CB5F3;}
	.st6{fill-rule:evenodd;clip-rule:evenodd;fill:#4A5F80;}
	.st7{fill:#4A5F80;}
	.st8{fill-rule:evenodd;clip-rule:evenodd;fill:#CC9224;}
	.st9{fill-rule:evenodd;clip-rule:evenodd;fill:#78869F;}
	.st10{fill-rule:evenodd;clip-rule:evenodd;fill:#F4F5F6;}
	.st11{fill-rule:evenodd;clip-rule:evenodd;fill:#718B48;}
	.st12{fill-rule:evenodd;clip-rule:evenodd;fill:#B6B6B7;}
	.st13{fill-rule:evenodd;clip-rule:evenodd;fill:url(#SVGID_1_);}
	.st14{fill-rule:evenodd;clip-rule:evenodd;fill:url(#SVGID_2_);}
	.st15{fill-rule:evenodd;clip-rule:evenodd;fill:#2C2F2F;}
	.st16{fill-rule:evenodd;clip-rule:evenodd;fill:#FBF0CB;}
	.st17{fill-rule:evenodd;clip-rule:evenodd;fill:#BD6037;}
	.st18{fill-rule:evenodd;clip-rule:evenodd;fill:#F08459;}
	.st19{fill:#859B62;}
	.st20{fill:#8CADDB;}
	.st21{fill:#F08459;}
</style>
<rect x="7.9" y="30.5" transform="matrix(0.9841 -0.1776 0.1776 0.9841 -10.0133 5.9541)" class="st0" width="40.7" height="56.8"/>
<rect x="7.9" y="30.5" transform="matrix(0.9648 -0.263 0.263 0.9648 -14.4844 9.496)" class="st1" width="40.7" height="56.8"/>
<polygon class="st2" points="3.9,31.4 44.4,26.6 51.1,82.9 17.4,87 9.8,80.1 "/>
<path class="st3" d="M31,56.3c-0.8,0.3-1.7,0.6-2.5,0.7c-2.8,0.4-5.7-0.3-8-2c-2.3-1.7-3.8-4.2-4.2-7.1c-0.4-2.8,0.3-5.7,2-8
	c1.7-2.3,4.2-3.8,7.1-4.2c2.8-0.4,5.7,0.3,8,2c2.3,1.7,3.8,4.2,4.2,7.1c0.4,2.8-0.3,5.7-2,8l0,0C34.3,54.4,32.7,55.6,31,56.3z
	 M24,39.4c-1.3,0.5-2.3,1.4-3.2,2.5c-2.5,3.3-1.8,8.1,1.6,10.6c1.6,1.2,3.6,1.7,5.6,1.4c2-0.3,3.8-1.3,5-3l0,0
	c1.2-1.6,1.7-3.6,1.4-5.6c-0.3-2-1.3-3.8-3-5c-1.6-1.2-3.6-1.7-5.6-1.4C25.2,39,24.6,39.2,24,39.4z"/>
<path class="st4" d="M41.3,42.2l15.6-16.5c1.6-1.6,4.2-1.7,5.8-0.2l27.6,26.2c1.6,1.6,1.7,4.2,0.2,5.8L74.9,74
	c-1.6,1.6-4.2,1.7-5.8,0.2L41.4,48C39.8,46.4,39.7,43.8,41.3,42.2z"/>
<path class="st5" d="M41.9,41.4L57,25.6c1.5-1.6,4-1.6,5.6-0.1l26.8,25.4c1.6,1.5,1.6,4,0.1,5.6L74.5,72.3c-1.5,1.6-4,1.6-5.6,0.1
	L42.1,47C40.5,45.5,40.5,43,41.9,41.4z"/>
<g>
	<path class="st6" d="M44.9,45.8l16.6-17.5c0.3-0.3,0.7-0.3,0.9,0l5.9,5.6c0.3,0.3,0.3,0.7,0,0.9L51.8,52.4c-0.3,0.3-0.7,0.3-0.9,0
		l-5.9-5.6C44.7,46.5,44.7,46.1,44.9,45.8z"/>
	<path class="st7" d="M51.6,52.5c-0.2,0.1-0.5,0.1-0.7-0.1l-5.9-5.6c-0.3-0.3-0.3-0.7,0-1l0,0l16.6-17.5c0.3-0.3,0.7-0.3,1,0
		l5.9,5.6c0.1,0.1,0.2,0.3,0.2,0.5c0,0.2-0.1,0.4-0.2,0.5L51.8,52.4C51.8,52.4,51.7,52.5,51.6,52.5z M44.9,45.8
		c-0.2,0.3-0.2,0.7,0,0.9l5.9,5.6c0.3,0.2,0.7,0.2,0.9,0l16.6-17.5c0.1-0.1,0.2-0.3,0.2-0.5c0-0.2-0.1-0.3-0.2-0.4l-5.9-5.6
		c-0.3-0.2-0.7-0.2-0.9,0L44.9,45.8z"/>
</g>
<ellipse transform="matrix(0.6881 -0.7256 0.7256 0.6881 -14.7386 63.0645)" class="st8" cx="66" cy="48.7" rx="2.5" ry="2.5"/>
<ellipse transform="matrix(0.6881 -0.7256 0.7256 0.6881 -20.6296 61.0488)" class="st9" cx="60.7" cy="54.5" rx="2.7" ry="2.7"/>
<ellipse transform="matrix(0.6881 -0.7256 0.7256 0.6881 -20.3028 60.9472)" class="st10" cx="60.7" cy="54.1" rx="2.5" ry="2.5"/>
<ellipse transform="matrix(0.6881 -0.7256 0.7256 0.6881 -16.9354 69.0336)" class="st8" cx="71.8" cy="54.2" rx="2.5" ry="2.5"/>
<ellipse transform="matrix(0.6881 -0.7256 0.7256 0.6881 -22.6674 66.9197)" class="st8" cx="66.5" cy="59.8" rx="2.5" ry="2.5"/>
<ellipse transform="matrix(0.6881 -0.7256 0.7256 0.6881 -11.2038 71.1435)" class="st8" cx="77.2" cy="48.6" rx="2.5" ry="2.5"/>
<ellipse transform="matrix(0.6881 -0.7256 0.7256 0.6881 -19.1326 74.9999)" class="st8" cx="77.7" cy="59.8" rx="2.5" ry="2.5"/>
<ellipse transform="matrix(0.6881 -0.7256 0.7256 0.6881 -24.8645 72.8879)" class="st8" cx="72.3" cy="65.4" rx="2.5" ry="2.5"/>
<polygon class="st11" points="29.5,88.3 27.9,87.5 39.3,64.7 39.4,66.4 40.9,65.5 41,67.2 42.4,66.3 31,89 "/>
<path class="st12" d="M28.3,87.2l2.8,1.4c0.2,0.1,0.3,0.3,0.2,0.5l-1,2c-0.1,0.2-0.3,0.3-0.5,0.2l-2.8-1.4c-0.2-0.1-0.3-0.3-0.2-0.5
	l1-2C27.9,87.2,28.1,87.1,28.3,87.2z"/>
<linearGradient id="SVGID_1_" gradientUnits="userSpaceOnUse" x1="12.1711" y1="69.9909" x2="13.3088" y2="68.196" gradientTransform="matrix(9.927770e-02 0.9951 -0.9951 9.927770e-02 95.1226 72.2199)">
	<stop  offset="0" style="stop-color:#EE9184"/>
	<stop  offset="1" style="stop-color:#D65E4A"/>
</linearGradient>
<path class="st13" d="M26.9,89.7l2.9,1.5l-0.6,1.2c-0.4,0.8-1.4,1.1-2.2,0.7l0,0c-0.8-0.4-1.1-1.4-0.7-2.2L26.9,89.7z"/>
<linearGradient id="SVGID_2_" gradientUnits="userSpaceOnUse" x1="-13.9301" y1="53.0523" x2="-12.9712" y2="51.5396" gradientTransform="matrix(9.927770e-02 0.9951 -0.9951 9.927770e-02 95.1226 72.2199)">
	<stop  offset="0" style="stop-color:#EDEBCE"/>
	<stop  offset="1" style="stop-color:#C4C195"/>
</linearGradient>
<polygon class="st14" points="39.3,64.7 43.1,61.1 42.4,66.3 41,67.2 40.9,65.5 39.4,66.4 "/>
<path class="st15" d="M41.5,62.6l1.6-1.5l-0.3,2.1c-0.2,0-0.5-0.1-0.7-0.2C41.9,63,41.7,62.8,41.5,62.6z"/>
<polygon class="st16" points="17.4,87 9.8,80.1 18.5,78.2 "/>
<ellipse transform="matrix(0.6881 -0.7256 0.7256 0.6881 -15.065 63.1675)" class="st9" cx="65.9" cy="49.1" rx="2.7" ry="2.7"/>
<ellipse transform="matrix(0.6881 -0.7256 0.7256 0.6881 -14.7381 63.0673)" class="st10" cx="66" cy="48.7" rx="2.5" ry="2.5"/>
<ellipse transform="matrix(0.6881 -0.7256 0.7256 0.6881 -22.9941 67.0234)" class="st9" cx="66.5" cy="60.3" rx="2.7" ry="2.7"/>
<ellipse transform="matrix(0.6881 -0.7256 0.7256 0.6881 -22.6672 66.9228)" class="st10" cx="66.5" cy="59.8" rx="2.5" ry="2.5"/>
<ellipse transform="matrix(0.6881 -0.7256 0.7256 0.6881 -17.2623 69.1338)" class="st9" cx="71.8" cy="54.6" rx="2.7" ry="2.7"/>
<ellipse transform="matrix(0.6881 -0.7256 0.7256 0.6881 -16.9354 69.0336)" class="st10" cx="71.8" cy="54.2" rx="2.5" ry="2.5"/>
<ellipse transform="matrix(0.6881 -0.7256 0.7256 0.6881 -11.5303 71.2452)" class="st9" cx="77.1" cy="49" rx="2.7" ry="2.7"/>
<ellipse transform="matrix(0.6881 -0.7256 0.7256 0.6881 -11.2038 71.1435)" class="st10" cx="77.2" cy="48.6" rx="2.5" ry="2.5"/>
<ellipse transform="matrix(0.6881 -0.7256 0.7256 0.6881 -13.6996 77.1143)" class="st9" cx="82.8" cy="54.5" rx="2.7" ry="2.7"/>
<ellipse transform="matrix(0.6881 -0.7256 0.7256 0.6881 -13.3728 77.0136)" class="st10" cx="82.9" cy="54.1" rx="2.5" ry="2.5"/>
<ellipse transform="matrix(0.6881 -0.7256 0.7256 0.6881 -19.4594 75.1004)" class="st9" cx="77.6" cy="60.2" rx="2.7" ry="2.7"/>
<ellipse transform="matrix(0.6881 -0.7256 0.7256 0.6881 -19.1325 75.0001)" class="st10" cx="77.7" cy="59.8" rx="2.5" ry="2.5"/>
<ellipse transform="matrix(0.6881 -0.7256 0.7256 0.6881 -25.1915 72.9894)" class="st9" cx="72.3" cy="65.8" rx="2.7" ry="2.7"/>
<ellipse transform="matrix(0.6881 -0.7256 0.7256 0.6881 -24.8646 72.8891)" class="st10" cx="72.3" cy="65.4" rx="2.5" ry="2.5"/>
<ellipse transform="matrix(0.6881 -0.7256 0.7256 0.6881 -9.3332 65.2789)" class="st17" cx="71.3" cy="43.5" rx="2.7" ry="2.7"/>
<ellipse transform="matrix(0.6881 -0.7256 0.7256 0.6881 -9.0067 65.1773)" class="st18" cx="71.3" cy="43.1" rx="2.5" ry="2.5"/>
<g>
	<polygon class="st19" points="34.4,54 34.4,54 34.4,54 	"/>
	<path class="st19" d="M33.8,49.4c0.1-0.1,0.1-0.2,0.2-0.4C33.9,49.1,33.8,49.3,33.8,49.4z"/>
	<path class="st19" d="M34.4,54c-0.2,0.2-0.4,0.4-0.6,0.5c0,0,0,0,0,0C34,54.4,34.2,54.2,34.4,54L34.4,54z"/>
	<path class="st19" d="M34.5,53.9C34.5,53.9,34.6,53.9,34.5,53.9C34.6,53.9,34.5,53.9,34.5,53.9z"/>
	<path class="st19" d="M35.5,52.7c0.2-0.3,0.4-0.6,0.6-0.9C35.9,52.2,35.7,52.4,35.5,52.7z"/>
	<path class="st19" d="M33.3,37.8c1.7,1.3,3,3,3.7,5C36.3,40.8,35,39,33.3,37.8c-0.2-0.2-0.5-0.3-0.7-0.5
		C32.8,37.4,33,37.6,33.3,37.8z"/>
	<path class="st19" d="M33,55.2C33,55.2,33,55.2,33,55.2c-0.2,0.1-0.4,0.2-0.5,0.4c0,0,0,0,0,0C32.7,55.4,32.9,55.3,33,55.2z"/>
	<path class="st19" d="M33.4,50.2C33.4,50.2,33.4,50.2,33.4,50.2c0.1-0.2,0.2-0.4,0.3-0.6C33.6,49.8,33.5,50,33.4,50.2z"/>
	<path class="st19" d="M33.7,54.6c-0.2,0.1-0.4,0.3-0.5,0.4c0,0,0,0,0,0C33.4,54.9,33.5,54.8,33.7,54.6
		C33.7,54.6,33.7,54.6,33.7,54.6z"/>
	<path class="st19" d="M34.4,46c0-0.2,0-0.5-0.1-0.7C34.4,45.5,34.4,45.7,34.4,46z"/>
	<path class="st19" d="M33,55.2C33,55.2,33,55.2,33,55.2c0,0,0.1-0.1,0.1-0.1c0,0,0,0,0,0C33.1,55.1,33.1,55.1,33,55.2z"/>
	<path class="st19" d="M33.7,54.6C33.7,54.6,33.7,54.6,33.7,54.6C33.7,54.6,33.8,54.6,33.7,54.6C33.8,54.6,33.8,54.6,33.7,54.6
		C33.8,54.6,33.7,54.6,33.7,54.6z"/>
	<path class="st19" d="M36.9,50.1c0.1-0.1,0.1-0.3,0.1-0.4C37,49.8,37,50,36.9,50.1z"/>
	<path class="st19" d="M36.5,51c0.1-0.1,0.1-0.3,0.2-0.4C36.7,50.7,36.6,50.9,36.5,51z"/>
	<path class="st19" d="M32.5,55.5C32.5,55.5,32.5,55.5,32.5,55.5c-0.3,0.2-0.6,0.3-0.9,0.5C31.9,55.9,32.2,55.7,32.5,55.5z"/>
	<path class="st19" d="M37.6,46.8c0,0.1,0,0.3,0,0.4C37.6,47.1,37.6,46.9,37.6,46.8z"/>
	<path class="st19" d="M37.6,45.8c0,0.1,0,0.2,0,0.3C37.6,46,37.6,45.9,37.6,45.8z"/>
	<path class="st19" d="M34,48.7c0-0.1,0.1-0.2,0.1-0.4C34.1,48.5,34.1,48.6,34,48.7z"/>
	<path class="st19" d="M37.2,49.2c0-0.1,0.1-0.3,0.1-0.4C37.3,48.9,37.3,49,37.2,49.2z"/>
	<path class="st19" d="M34.3,47.4c0-0.1,0-0.3,0-0.4C34.4,47.1,34.4,47.2,34.3,47.4z"/>
	<path class="st19" d="M30.9,40C30.8,40,30.8,40,30.9,40l1.6-2.7c-3.5-2.2-8-2.1-11.5,0.2l1.8,2.7C25.2,38.5,28.4,38.4,30.9,40z"/>
	<path class="st19" d="M34.2,48c0-0.1,0.1-0.3,0.1-0.4C34.3,47.8,34.3,47.9,34.2,48z"/>
	<path class="st19" d="M34.4,46.7c0-0.2,0-0.3,0-0.5C34.4,46.4,34.4,46.5,34.4,46.7z"/>
	<path class="st19" d="M37.4,48.2c0-0.1,0-0.3,0.1-0.4C37.5,47.9,37.5,48.1,37.4,48.2z"/>
</g>
<g>
	<path class="st20" d="M31.6,56c1-0.5,2-1.2,2.8-2C33.6,54.8,32.6,55.5,31.6,56z"/>
	<path class="st20" d="M34.6,53.9C34.6,53.9,34.5,53.9,34.6,53.9C34.5,53.9,34.6,53.9,34.6,53.9z"/>
	<path class="st20" d="M33.3,37.8c-0.3-0.2-0.5-0.4-0.8-0.5L30.8,40c0.2,0.1,0.4,0.2,0.5,0.4c1.6,1.2,2.7,3,3,5c0.3,1.7-0.1,3.5-1,5
		c0,0,0,0,0,0l2.7,1.6c1.3-2.1,1.7-4.6,1.4-7C37.1,42,35.6,39.5,33.3,37.8z"/>
	<path class="st20" d="M36.1,51.9c-0.2,0.3-0.4,0.6-0.6,0.9C35.7,52.4,35.9,52.2,36.1,51.9z"/>
</g>
<path class="st21" d="M31,56.3c-0.8,0.3-1.7,0.6-2.5,0.7c-2.8,0.4-5.7-0.3-8-2l1.9-2.6c1.6,1.2,3.6,1.7,5.6,1.4c2-0.3,3.8-1.3,5-3
	c0.2-0.2,0.3-0.4,0.4-0.7l2.7,1.6c-0.2,0.3-0.4,0.6-0.6,0.9C34.3,54.4,32.7,55.6,31,56.3z"/>
</svg>
