<?xml version="1.0" encoding="utf-8"?>
<!-- Generator: Adobe Illustrator 21.0.0, SVG Export Plug-In . SVG Version: 6.00 Build 0)  -->
<svg version="1.1" id="Layer_1" xmlns="http://www.w3.org/2000/svg" xmlns:xlink="http://www.w3.org/1999/xlink" x="0px" y="0px"
	 viewBox="0 0 30 30" style="enable-background:new 0 0 30 30;" xml:space="preserve">
<style type="text/css">
	.st0{fill-rule:evenodd;clip-rule:evenodd;fill:#FFFFFF;}
</style>
<g>
	<path class="st0" d="M21.6,15.5c-0.4,0-0.8,0.4-0.8,0.8v2.8c0,0.4-0.2,0.7-0.4,0.9c-0.3,0.3-0.6,0.4-1.1,0.4h-8.7
		c-0.4,0-0.8-0.2-1.1-0.4c-0.3-0.2-0.4-0.6-0.4-0.9v-2.8c0-0.4-0.4-0.8-0.8-0.8c-0.4,0-0.8,0.4-0.8,0.8v2.8c0,0.8,0.4,1.5,0.9,2.1
		c0.6,0.5,1.3,0.8,2.1,0.8h8.7c0.8,0,1.6-0.3,2.1-0.8c0.6-0.5,0.9-1.3,0.9-2.1v-2.8C22.4,15.9,22,15.5,21.6,15.5z"/>
	<path class="st0" d="M14.4,16.7c0,0,0.1,0.1,0.2,0.1c0,0,0.1,0,0.1,0.1c0.1,0,0.2,0.1,0.3,0.1c0.1,0,0.2,0,0.3-0.1
		c0,0,0.1,0,0.1-0.1c0.1,0,0.1-0.1,0.2-0.1l3-2.6c0.3-0.3,0.4-0.8,0.1-1.1c-0.3-0.3-0.8-0.4-1.1-0.1l-1.7,1.5V8.8
		C15.8,8.3,15.4,8,15,8c-0.4,0-0.8,0.4-0.8,0.8v5.7l-1.7-1.5c-0.3-0.3-0.8-0.2-1.1,0.1c-0.3,0.3-0.2,0.8,0.1,1.1L14.4,16.7z"/>
</g>
</svg>
