<?xml version="1.0" encoding="utf-8"?>
<!-- Generator: Adobe Illustrator 21.0.0, SVG Export Plug-In . SVG Version: 6.00 Build 0)  -->
<svg version="1.1" id="Layer_1" xmlns="http://www.w3.org/2000/svg" xmlns:xlink="http://www.w3.org/1999/xlink" x="0px" y="0px"
	 viewBox="0 0 100 100" style="enable-background:new 0 0 100 100;" xml:space="preserve">
<style type="text/css">
	.st0{fill:#DEDEE7;}
	.st1{fill:#AFCDFA;}
	.st2{fill:#85ACE6;}
	.st3{fill:#6786B3;}
	.st4{fill:#4A5F80;}
	.st5{fill:#B2D1FF;}
	.st6{fill:#EDEDED;}
	.st7{fill:#DBDBDB;}
	.st8{fill:#8CB5F3;}
	.st9{fill:#ABCDFF;}
	.st10{fill:#9EC5FF;}
	.st11{fill:#96BEFA;}
	.st12{fill:#F2F9FE;}
	.st13{fill:#758E4F;}
	.st14{fill:#F2F4F5;}
	.st15{fill:#879D66;}
	.st16{fill:#F37748;}
	.st17{fill:#F58960;}
</style>
<path class="st0" d="M72.9,94.2c1,0.3,1.6,0.6,1.6,1c0,0.8-3.1,1.5-6.9,1.5s-6.9-0.7-6.9-1.5c0-0.1,0-0.1,0-0.2
	c-3.6,0.1-7.6,0.2-11.7,0.2c-16.3,0-29.6-1.1-29.6-2.5s13.2-2.5,29.6-2.5s29.6,1.1,29.6,2.5C78.6,93.3,76.5,93.8,72.9,94.2
	L72.9,94.2z M56.1,96.1c-2.5,0-4.6,0.3-4.6,0.7s2,0.7,4.6,0.7s4.6-0.3,4.6-0.7S58.7,96.1,56.1,96.1z"/>
<path class="st1" d="M32.4,93.6h33.7c3.3,0,6-2.7,6-6V60.8c0-12.2-10-22.2-22.2-22.2h-1.3c-12.2,0-22.2,10-22.2,22.2v26.9
	C26.4,90.9,29.1,93.6,32.4,93.6z"/>
<path class="st2" d="M34.3,93.6H66c3.3,0,6-2.7,6-6V60.8c0-12.2-10-22.2-22.2-22.2h-0.1c-11.6,0-21.1,9.5-21.1,21.1V88
	C28.7,91.1,31.2,93.6,34.3,93.6z"/>
<path class="st2" d="M72,85.3c0,0,2.8-1.9,2.8-7.2c-0.6-4.4-2.8-6.6-2.8-6.6V60.8c0-1-0.1-2-0.2-2.9c1.5,5.4,3.9,13.3,6,16.3
	c2.5,5.4-1.3,13.6-5.8,12C72,85.7,72,85.3,72,85.3L72,85.3z M70.4,52.5L70.4,52.5L70.4,52.5L70.4,52.5z"/>
<path class="st3" d="M73.5,73.7c-0.7-1.5-1.5-2.3-1.5-2.3V60.8c0-1-0.1-2-0.2-2.9c0.1,0.2,0.1,0.5,0.2,0.7L73.5,73.7L73.5,73.7z
	 M70.4,52.5L70.4,52.5L70.4,52.5L70.4,52.5z"/>
<path class="st1" d="M72,85.3c0,0,2.8-1.9,2.8-7.2c0-0.1,0-0.1,0-0.2c0.6,1.7,1,2.1,1.2,2.4c0.5,1,1.6,3.9-2.2,5.9
	c-0.6,0.1-1.2,0.1-1.8-0.1C72,85.7,72,85.3,72,85.3z"/>
<path class="st2" d="M26.6,89c0,0-3.5-12.8-3.3-18.5c0.4-1.3,1.7-1.8,3.1-2v19.1C26.4,88.1,26.5,88.5,26.6,89L26.6,89z"/>
<path class="st3" d="M26.6,89c0,0-0.8-3-1.7-6.8c0.5-1.1,1-2.3,1.5-3.5v9C26.4,88.1,26.5,88.5,26.6,89L26.6,89z"/>
<path class="st4" d="M23.3,70.5L23.3,70.5c0.4-1.3,1.8-1.8,3.1-2v3.7C25,71.8,24,71.1,23.3,70.5z"/>
<path class="st3" d="M42.1,39.6c0.5-1.3,5.1-4.9,5.8-5.5c0.7-0.5,1.9-0.6,2.7,0c0.7,0.6,5.2,4.1,5.8,5.5l0,0c-1-0.3-2-0.5-3-0.7
	c-2.4-4.1-5.9-4.1-8.3,0C44.1,39,43.1,39.3,42.1,39.6L42.1,39.6z"/>
<path class="st5" d="M32.4,93.6h33.7c3.3,0,6-2.7,6-6v-24c0-12.2-10-22.2-22.2-22.2h-1.3c-12.2,0-22.2,10-22.2,22.2v24.1
	C26.4,90.9,29.1,93.6,32.4,93.6z"/>
<path class="st6" d="M71.4,69l0.2-0.1c0.2-0.2,0.5-0.2,0.7,0.1l1.6,1.9c0.2,0.2,0.2,0.5-0.1,0.7l-0.2,0.1c-0.2,0.2-0.5,0.2-0.7-0.1
	l-1.6-1.9C71.2,69.5,71.2,69.2,71.4,69z"/>
<path class="st7" d="M72.5,69.2l1.3,1.5c0.2,0.3,0.3,0.7,0.1,0.9l-0.2,0.1c-0.2,0.2-0.6,0.1-0.8-0.2l-0.2-0.2
	C72.8,70.8,72.9,70,72.5,69.2z"/>
<path class="st8" d="M33.9,93.6H66c3.3,0,6-2.7,6-6v-24c0-12-9.6-21.8-21.4-22.2c-12.8,0.4-23.1,11-23.1,23.8v21.9
	C27.5,90.7,30.4,93.6,33.9,93.6z"/>
<path class="st9" d="M38.5,68.1h22.6c2.3,0,4.3,1.9,4.3,4.3v1.8H34.2v-1.8C34.2,70,36.1,68.1,38.5,68.1z"/>
<path class="st9" d="M38.5,89h22.6c2.3,0,4.3-1.9,4.3-4.3v-9.9H34.2v9.9C34.2,87.1,36.1,89,38.5,89z"/>
<path class="st10" d="M39.4,68.1h21.7c2.3,0,4.3,1.9,4.3,4.3v1.8H35.2v-1.8C35.2,70,37.1,68.1,39.4,68.1z"/>
<path class="st10" d="M39.4,89h21.7c2.3,0,4.3-1.9,4.3-4.3v-9.9H35.2v9.9C35.2,87.1,37.1,89,39.4,89z"/>
<path class="st11" d="M44.7,89h16.4c2.3,0,4.3-1.9,4.3-4.3v-8.4C65.4,76.3,60.2,87.7,44.7,89z"/>
<path class="st12" d="M62,73.7h0.3c0.4,0,0.7,0.3,0.7,0.7v2.1c0,0.4-0.3,0.7-0.7,0.7H62c-0.4,0-0.7-0.3-0.7-0.7v-2.1
	C61.3,74,61.6,73.7,62,73.7z"/>
<path class="st6" d="M63,74.5v2c0,0.4-0.3,0.7-0.7,0.7H62c-0.4,0-0.7-0.3-0.7-0.7v-0.2C61.9,76,62.6,75.5,63,74.5z"/>
<circle class="st6" cx="49.8" cy="55" r="5.7"/>
<path class="st12" d="M44.7,57.5c-0.4-0.7-0.6-1.6-0.6-2.5c0-3.1,2.5-5.7,5.7-5.7c1.6,0,3.1,0.7,4.1,1.8c0.4,0.7,0.6,1.6,0.6,2.5
	c0,3.1-2.5,5.7-5.7,5.7C47.2,59.2,45.7,58.6,44.7,57.5z"/>
<path class="st8" d="M52.2,54.1l-2.5-2h-0.1l-0.1,0.1v0.3l2.4,1.9c0.2,0.2,0.2,0.5,0,0.7c-0.2,0.1-0.4,0.1-0.5,0l-3-2.3h-0.1
	l-0.1,0.1v4.5c0,0.2,0.1,0.4,0.3,0.5s0.4,0.1,0.6-0.1l3-2.4C52.6,55.1,52.6,54.4,52.2,54.1z"/>
<path class="st13" d="M30.7,2L47,0.7c0.4,0,0.7,0.3,0.7,0.6l0.9,20.3c0,0.4-0.3,0.7-0.7,0.7l-16.3,1.3c-0.1,0-0.2-0.1-0.2-0.2
	L30.5,2.3C30.5,2.1,30.6,2,30.7,2z"/>
<path class="st14" d="M31.2,2.5l16.1-1.3l0.9,19.6c0,0.4-0.3,0.7-0.6,0.7l-15.4,1.2c-0.1,0-0.2-0.1-0.2-0.2L31,2.7
	C31,2.6,31.1,2.5,31.2,2.5z"/>
<path class="st15" d="M30.7,3.4h16.6c0.4,0,0.7,0.3,0.7,0.7L49,23c0,0.4-0.3,0.7-0.7,0.7H31.7c-0.1,0-0.2-0.1-0.2-0.2l-1-19.8
	C30.5,3.5,30.6,3.4,30.7,3.4z"/>
<path class="st16" d="M24.5,27.8l-11.1,9.9c-0.3,0.2-0.7,0.2-0.9-0.1L0.7,23.5c-0.2-0.3-0.2-0.7,0.1-0.9l11.1-9.9
	c0.1-0.1,0.2-0.1,0.3,0l12.3,14.9C24.6,27.7,24.5,27.8,24.5,27.8z"/>
<path class="st14" d="M23.9,27.8l-11,9.8L1.5,23.8c-0.2-0.3-0.2-0.6,0.1-0.9l10.6-9.4c0.1-0.1,0.2-0.1,0.2,0l11.5,13.9
	C24,27.6,24,27.7,23.9,27.8z"/>
<path class="st17" d="M23.5,27.1l-11.8,9.5c-0.3,0.2-0.7,0.2-0.9-0.1L0.4,22.8c-0.2-0.3-0.2-0.7,0.1-0.9l11.8-9.5
	c0.1-0.1,0.2-0.1,0.3,0l11,14.4C23.6,26.9,23.6,27,23.5,27.1z"/>
</svg>
