<?xml version="1.0" encoding="utf-8"?>
<!-- Generator: Adobe Illustrator 21.0.0, SVG Export Plug-In . SVG Version: 6.00 Build 0)  -->
<svg version="1.1" id="Layer_1" xmlns="http://www.w3.org/2000/svg" xmlns:xlink="http://www.w3.org/1999/xlink" x="0px" y="0px"
	 viewBox="0 0 15 15" style="enable-background:new 0 0 15 15;" xml:space="preserve">
<style type="text/css">
	.st0{fill:#FFFFFF;}
	.st1{fill:#F37748;}
</style>
<circle class="st0" cx="7.5" cy="7.5" r="7.5"/>
<path class="st1" d="M7.5,1.4c-3.4,0-6.1,2.7-6.1,6.1c0,3.4,2.7,6.1,6.1,6.1s6.1-2.7,6.1-6.1C13.6,4.1,10.9,1.4,7.5,1.4z M9.7,8.6
	c0.3,0.3,0.3,0.9,0,1.2s-0.9,0.3-1.2,0L7.5,8.7L6.4,9.7c-0.3,0.3-0.9,0.3-1.2,0s-0.3-0.9,0-1.2l1.1-1.1L5.3,6.4
	c-0.3-0.3-0.3-0.9,0-1.2s0.9-0.3,1.2,0l1.1,1.1l1.1-1.1c0.3-0.3,0.9-0.3,1.2,0s0.3,0.9,0,1.2L8.7,7.5L9.7,8.6z"/>
</svg>
