<?xml version="1.0" encoding="utf-8"?>
<!-- Generator: Adobe Illustrator 21.0.0, SVG Export Plug-In . SVG Version: 6.00 Build 0)  -->
<svg version="1.1" id="Layer_1" xmlns="http://www.w3.org/2000/svg" xmlns:xlink="http://www.w3.org/1999/xlink" x="0px" y="0px"
	 viewBox="0 0 20 20" style="enable-background:new 0 0 20 20;" xml:space="preserve">
<style type="text/css">
	.st0{fill-rule:evenodd;clip-rule:evenodd;fill:#78869F;}
</style>
<path class="st0" d="M5.9,1.3h8.3c0.6,0,1.1,0.2,1.4,0.6c0.4,0.4,0.6,0.9,0.6,1.4v14.5c0,0.4-0.3,0.7-0.7,0.7
	c-0.2,0-0.5-0.1-0.6-0.3l-4.7-4.9l-4.9,5.2c-0.1,0.2-0.3,0.2-0.5,0.2l-0.1,0c-0.4,0-0.7-0.3-0.7-0.7V3.3c0-0.6,0.2-1.1,0.6-1.4
	l0.1,0C4.8,1.5,5.3,1.3,5.9,1.3L5.9,1.3z M14.1,2.8H5.9c-0.1,0-0.2,0-0.3,0.1l0,0C5.4,3,5.3,3.1,5.3,3.3v12.9l4.3-4.5
	c0.3-0.3,0.8-0.3,1.1,0l4,4.2V3.3c0-0.1-0.1-0.3-0.1-0.4C14.4,2.8,14.3,2.8,14.1,2.8z"/>
</svg>
