<?xml version="1.0" encoding="utf-8"?>
<!-- Generator: Adobe Illustrator 21.0.0, SVG Export Plug-In . SVG Version: 6.00 Build 0)  -->
<svg version="1.1" id="Layer_1" xmlns="http://www.w3.org/2000/svg" xmlns:xlink="http://www.w3.org/1999/xlink" x="0px" y="0px"
	 viewBox="0 0 100 100" style="enable-background:new 0 0 100 100;" xml:space="preserve">
<style type="text/css">
	.st0{fill-rule:evenodd;clip-rule:evenodd;fill:#C4B17B;}
	.st1{fill-rule:evenodd;clip-rule:evenodd;fill:#EFE1B9;}
	.st2{fill-rule:evenodd;clip-rule:evenodd;fill:#FFF8DE;}
	.st3{opacity:0.28;fill:#859B62;}
	.st4{fill:#859B62;}
	.st5{fill:#8CADDB;}
	.st6{fill:#F08459;}
	.st7{fill-rule:evenodd;clip-rule:evenodd;fill:#5C7338;}
	.st8{fill-rule:evenodd;clip-rule:evenodd;fill:#859B62;}
	.st9{fill-rule:evenodd;clip-rule:evenodd;fill:#465726;}
	.st10{fill:#465726;}
	.st11{fill-rule:evenodd;clip-rule:evenodd;fill:#CC9224;}
	.st12{fill-rule:evenodd;clip-rule:evenodd;fill:#718B48;}
	.st13{fill-rule:evenodd;clip-rule:evenodd;fill:#F4F5F6;}
	.st14{fill-rule:evenodd;clip-rule:evenodd;fill:#B6B6B7;}
	.st15{fill-rule:evenodd;clip-rule:evenodd;fill:url(#SVGID_1_);}
	.st16{fill-rule:evenodd;clip-rule:evenodd;fill:url(#SVGID_2_);}
	.st17{fill-rule:evenodd;clip-rule:evenodd;fill:#2C2F2F;}
	.st18{fill-rule:evenodd;clip-rule:evenodd;fill:#FBF0CB;}
	.st19{fill-rule:evenodd;clip-rule:evenodd;fill:#BD6037;}
	.st20{fill-rule:evenodd;clip-rule:evenodd;fill:#F08459;}
</style>
<rect x="-1.2" y="30.5" transform="matrix(0.2093 -0.9778 0.9778 0.2093 -28.1502 67.9065)" class="st0" width="58.3" height="41.8"/>
<rect x="-1.2" y="30.4" transform="matrix(0.123 -0.9924 0.9924 0.123 -26.4205 72.6874)" class="st1" width="58.3" height="41.8"/>
<polygon class="st2" points="15.5,15.8 55.8,26.9 40.3,83.1 6.6,73.8 2.1,64.3 "/>
<path class="st3" d="M31.5,49.9c-0.9,0-1.8-0.1-2.7-0.3c-2.9-0.7-5.3-2.5-6.8-5c-1.5-2.5-2-5.5-1.3-8.3c0.7-2.9,2.5-5.3,5-6.8
	c2.5-1.5,5.5-2,8.3-1.3c2.9,0.7,5.3,2.5,6.8,5c1.5,2.5,2,5.5,1.3,8.3s-2.5,5.3-5,6.8C35.4,49.4,33.5,49.9,31.5,49.9z M31.5,31.2
	c-1.4,0-2.8,0.4-4,1.1c-1.8,1.1-3,2.8-3.5,4.8c-0.5,2-0.2,4.1,0.9,5.9c1.1,1.8,2.8,3,4.8,3.5c2,0.5,4.1,0.2,5.9-0.9l0,0
	c1.8-1.1,3-2.8,3.5-4.8c0.5-2,0.2-4.1-0.9-5.9c-1.1-1.8-2.8-3-4.8-3.5C32.7,31.2,32.1,31.2,31.5,31.2z"/>
<path class="st4" d="M31.5,49.9c-0.9,0-1.8-0.1-2.7-0.3c-2.9-0.7-5.3-2.5-6.8-5l2.8-1.7c1.1,1.8,2.8,3,4.8,3.5
	c2,0.5,4.1,0.2,5.9-0.9c1.8-1.1,3-2.8,3.5-4.8c0.5-2,0.2-4.1-0.9-5.9c-1.7-2.8-4.9-4.2-8.1-3.6l-0.6-3.2c4.5-0.9,9.2,1.2,11.6,5.1
	c1.5,2.5,2,5.5,1.3,8.3s-2.5,5.3-5,6.8C35.4,49.4,33.5,49.9,31.5,49.9z"/>
<path class="st5" d="M31.5,49.9c-0.9,0-1.8-0.1-2.7-0.3c-2.9-0.7-5.3-2.5-6.8-5l2.8-1.7c1.1,1.8,2.8,3,4.8,3.5
	c2,0.5,4.1,0.2,5.9-0.9c1.8-1.1,3-2.8,3.5-4.8c0.5-2,0.2-4.1-0.9-5.9c-0.1-0.2-0.2-0.4-0.4-0.6l2.7-1.9c0.2,0.3,0.4,0.5,0.5,0.8
	c1.5,2.5,2,5.5,1.3,8.3s-2.5,5.3-5,6.8C35.4,49.4,33.5,49.9,31.5,49.9z"/>
<path class="st6" d="M31.5,49.9c-0.9,0-1.8-0.1-2.7-0.3c-2.9-0.7-5.3-2.5-6.8-5l2.8-1.7c1.1,1.8,2.8,3,4.8,3.5
	c2,0.5,4.1,0.2,5.9-0.9c0.2-0.1,0.5-0.3,0.7-0.5l2,2.6c-0.3,0.2-0.6,0.4-1,0.6C35.4,49.4,33.5,49.9,31.5,49.9z"/>
<path class="st7" d="M46.8,40.5l21.3-9.6c2.1-1,4.6,0,5.6,2.1l16,35.6c1,2.1,0,4.6-2.1,5.6l-21.3,9.6c-2.1,1-4.6,0-5.6-2.1l-16-35.6
	C43.7,44,44.7,41.5,46.8,40.5z"/>
<path class="st8" d="M47.7,40.1l20.5-9.2c2-0.9,4.5,0,5.4,2l15.5,34.6c0.9,2,0,4.5-2,5.4l-20.5,9.2c-2,0.9-4.5,0-5.4-2L45.7,45.5
	C44.8,43.4,45.7,41,47.7,40.1z"/>
<g>
	<path class="st9" d="M48.8,45.4l22.6-10.2c0.3-0.2,0.8,0,0.9,0.3l3.4,7.6c0.2,0.3,0,0.8-0.3,0.9L52.8,54.3c-0.3,0.2-0.8,0-0.9-0.3
		l-3.4-7.6C48.3,46,48.5,45.6,48.8,45.4z"/>
	<path class="st10" d="M52.6,54.4c-0.1,0-0.2,0-0.3,0c-0.2-0.1-0.3-0.2-0.4-0.4l-3.4-7.6c-0.2-0.4,0-0.8,0.4-0.9l22.6-10.2
		c0.2-0.1,0.4-0.1,0.5,0c0.2,0.1,0.3,0.2,0.4,0.4l3.4,7.6c0.2,0.4,0,0.8-0.4,0.9L52.9,54.3C52.8,54.4,52.7,54.4,52.6,54.4z
		 M48.8,45.4L48.8,45.4c-0.3,0.2-0.5,0.6-0.3,0.9l3.4,7.6c0.1,0.2,0.2,0.3,0.4,0.3c0.2,0.1,0.3,0.1,0.5,0l22.6-10.2
		c0.3-0.1,0.5-0.5,0.3-0.9l-3.4-7.6c-0.1-0.2-0.2-0.3-0.4-0.3c-0.2-0.1-0.3-0.1-0.5,0L48.8,45.4L48.8,45.4z"/>
</g>
<ellipse transform="matrix(0.9121 -0.4101 0.4101 0.9121 -17.1441 32.7333)" class="st11" cx="67.7" cy="56.3" rx="2.6" ry="2.6"/>
<ellipse transform="matrix(0.912 -0.4101 0.4101 0.912 -19.2177 30.0479)" class="st12" cx="60.4" cy="59.8" rx="2.7" ry="2.7"/>
<ellipse transform="matrix(0.912 -0.4101 0.4101 0.912 -19.0389 30.1005)" class="st13" cx="60.7" cy="59.4" rx="2.6" ry="2.6"/>
<ellipse transform="matrix(0.912 -0.4101 0.4101 0.912 -19.9379 34.789)" class="st11" cx="71.1" cy="63.9" rx="2.6" ry="2.6"/>
<ellipse transform="matrix(0.9121 -0.4101 0.4101 0.9121 -21.9091 32.1039)" class="st11" cx="63.9" cy="67.1" rx="2.6" ry="2.6"/>
<ellipse transform="matrix(0.912 -0.4101 0.4101 0.912 -17.966 37.4733)" class="st11" cx="78.4" cy="60.6" rx="2.6" ry="2.6"/>
<ellipse transform="matrix(0.912 -0.4101 0.4101 0.912 -22.7308 36.8418)" class="st11" cx="74.5" cy="71.4" rx="2.6" ry="2.6"/>
<ellipse transform="matrix(0.912 -0.4101 0.4101 0.912 -24.7033 34.1597)" class="st11" cx="67.3" cy="74.7" rx="2.6" ry="2.6"/>
<polygon class="st12" points="94.5,40.4 93.7,41.7 75.2,30 76.6,30 76,28.7 77.4,28.8 76.7,27.5 95.3,39.2 "/>
<path class="st14" d="M93.4,41.4l1.4-2.3c0.1-0.1,0.3-0.2,0.4-0.1l1.6,1c0.1,0.1,0.2,0.3,0.1,0.4l-1.4,2.3c-0.1,0.1-0.3,0.2-0.4,0.1
	l-1.6-1C93.4,41.7,93.4,41.5,93.4,41.4z"/>
<linearGradient id="SVGID_1_" gradientUnits="userSpaceOnUse" x1="96.8129" y1="43.0764" x2="97.7921" y2="41.5316">
	<stop  offset="0" style="stop-color:#EE9184"/>
	<stop  offset="1" style="stop-color:#D65E4A"/>
</linearGradient>
<path class="st15" d="M95.5,42.8l1.5-2.4l1,0.6c0.7,0.4,0.9,1.3,0.4,2l0,0c-0.4,0.7-1.3,0.9-2,0.4L95.5,42.8z"/>
<linearGradient id="SVGID_2_" gradientUnits="userSpaceOnUse" x1="74.3491" y1="28.4982" x2="75.1743" y2="27.1963">
	<stop  offset="0" style="stop-color:#EDEBCE"/>
	<stop  offset="1" style="stop-color:#C4C195"/>
</linearGradient>
<polygon class="st16" points="75.2,30 72.4,26.5 76.7,27.5 77.4,28.8 76,28.7 76.6,30 "/>
<path class="st17" d="M73.6,27.9l-1.1-1.5l1.8,0.4c0,0.2-0.1,0.4-0.2,0.6C73.9,27.7,73.7,27.8,73.6,27.9z"/>
<polygon class="st18" points="6.6,73.8 2.1,64.3 11.1,65.9 "/>
<ellipse transform="matrix(0.912 -0.4101 0.4101 0.912 -17.3241 32.685)" class="st12" cx="67.5" cy="56.7" rx="2.7" ry="2.7"/>
<ellipse transform="matrix(0.912 -0.4101 0.4101 0.912 -17.1449 32.7362)" class="st13" cx="67.7" cy="56.3" rx="2.6" ry="2.6"/>
<ellipse transform="matrix(0.912 -0.4101 0.4101 0.912 -22.0892 32.0542)" class="st12" cx="63.7" cy="67.5" rx="2.7" ry="2.7"/>
<ellipse transform="matrix(0.912 -0.4101 0.4101 0.912 -21.91 32.1059)" class="st13" cx="63.9" cy="67.1" rx="2.6" ry="2.6"/>
<ellipse transform="matrix(0.912 -0.4101 0.4101 0.912 -20.1172 34.7378)" class="st12" cx="70.9" cy="64.3" rx="2.7" ry="2.7"/>
<ellipse transform="matrix(0.912 -0.4101 0.4101 0.912 -19.9382 34.79)" class="st13" cx="71.1" cy="63.9" rx="2.6" ry="2.6"/>
<ellipse transform="matrix(0.912 -0.4101 0.4101 0.912 -18.1448 37.4206)" class="st12" cx="78.2" cy="61" rx="2.7" ry="2.7"/>
<ellipse transform="matrix(0.912 -0.4101 0.4101 0.912 -17.966 37.4733)" class="st13" cx="78.4" cy="60.6" rx="2.6" ry="2.6"/>
<ellipse transform="matrix(0.912 -0.4101 0.4101 0.912 -20.8958 39.4377)" class="st12" cx="81.5" cy="68.4" rx="2.7" ry="2.7"/>
<ellipse transform="matrix(0.912 -0.4101 0.4101 0.912 -20.7167 39.4891)" class="st13" cx="81.7" cy="68" rx="2.6" ry="2.6"/>
<ellipse transform="matrix(0.912 -0.4101 0.4101 0.912 -22.9102 36.7909)" class="st12" cx="74.3" cy="71.8" rx="2.7" ry="2.7"/>
<ellipse transform="matrix(0.912 -0.4101 0.4101 0.912 -22.7308 36.8419)" class="st13" cx="74.5" cy="71.4" rx="2.6" ry="2.6"/>
<ellipse transform="matrix(0.912 -0.4101 0.4101 0.912 -24.8823 34.1071)" class="st12" cx="67.1" cy="75.1" rx="2.7" ry="2.7"/>
<ellipse transform="matrix(0.912 -0.4101 0.4101 0.912 -24.703 34.1586)" class="st13" cx="67.3" cy="74.7" rx="2.6" ry="2.6"/>
<ellipse transform="matrix(0.912 -0.4101 0.4101 0.912 -15.3519 35.3677)" class="st19" cx="74.8" cy="53.5" rx="2.7" ry="2.7"/>
<ellipse transform="matrix(0.912 -0.4101 0.4101 0.912 -15.1731 35.4204)" class="st20" cx="75" cy="53.1" rx="2.6" ry="2.6"/>
</svg>
