<?xml version="1.0" encoding="utf-8"?>
<!-- Generator: Adobe Illustrator 21.0.0, SVG Export Plug-In . SVG Version: 6.00 Build 0)  -->
<svg version="1.1" id="Layer_1" xmlns="http://www.w3.org/2000/svg" xmlns:xlink="http://www.w3.org/1999/xlink" x="0px" y="0px"
	 viewBox="0 0 84 71" style="enable-background:new 0 0 84 71;" xml:space="preserve">
<style type="text/css">
	.st0{fill-rule:evenodd;clip-rule:evenodd;fill:#FFFFFF;}
</style>
<path class="st0" d="M36.9,6l10.2,0c0.6,0,1,0.4,1.2,0.9l1,3h3.6c1,0,2,0.4,2.7,1.1l0.1,0.1c0.6,0.7,1,1.6,1,2.6v13.7
	c0,1-0.4,2-1.1,2.7c-0.7,0.7-1.6,1.1-2.7,1.1H31.1c-1,0-2-0.4-2.7-1.1c-0.7-0.7-1.1-1.6-1.1-2.7V13.7c0-1,0.4-2,1.1-2.7
	c0.7-0.7,1.6-1.1,2.7-1.1h3.6l1-3.1C35.9,6.3,36.4,6,36.9,6L36.9,6z M46.3,8.4h-8.5l-1,3c-0.1,0.5-0.6,0.9-1.2,0.9h-4.5
	c-0.4,0-0.7,0.2-1,0.4c-0.3,0.2-0.4,0.6-0.4,1v13.7c0,0.4,0.2,0.7,0.4,1c0.2,0.2,0.6,0.4,1,0.4h21.8c0.4,0,0.7-0.2,1-0.4
	c0.2-0.2,0.4-0.6,0.4-1V13.7c0-0.4-0.1-0.7-0.4-0.9l0,0c-0.2-0.2-0.6-0.4-1-0.4h-4.5c-0.5,0-1-0.3-1.1-0.8L46.3,8.4z"/>
<path class="st0" d="M42,26.9c-1.9,0-3.7-0.8-4.9-2c-1.3-1.3-2-3-2-4.9s0.8-3.7,2-4.9c1.3-1.3,3-2,4.9-2s3.7,0.8,4.9,2
	c1.3,1.3,2,3,2,4.9s-0.8,3.7-2,4.9C45.7,26.1,43.9,26.9,42,26.9L42,26.9z M38.8,23.1c0.8,0.8,2,1.3,3.2,1.3s2.4-0.5,3.2-1.3
	c0.8-0.8,1.3-2,1.3-3.2s-0.5-2.4-1.3-3.2c-0.8-0.8-2-1.3-3.2-1.3s-2.4,0.5-3.2,1.3c-0.8,0.8-1.3,2-1.3,3.2S37.9,22.3,38.8,23.1z"/>
</svg>
