<?xml version="1.0" encoding="utf-8"?>
<!-- Generator: Adobe Illustrator 21.0.0, SVG Export Plug-In . SVG Version: 6.00 Build 0)  -->
<svg version="1.1" id="Layer_1" xmlns="http://www.w3.org/2000/svg" xmlns:xlink="http://www.w3.org/1999/xlink" x="0px" y="0px"
	 viewBox="0 0 37 37" style="enable-background:new 0 0 37 37;" xml:space="preserve">
<style type="text/css">
	.st0{fill:#8CB5F3;}
</style>
<path class="st0" d="M18.5,9.7c-4.9,0-8.8,3.9-8.8,8.8c0,4.9,3.9,8.8,8.8,8.8s8.8-3.9,8.8-8.8C27.3,13.6,23.4,9.7,18.5,9.7z
	 M23.2,16.6L18,21.8c-0.3,0.3-0.8,0.3-1.1,0l-2.3-2.3c-0.3-0.3-0.3-0.8,0-1.1c0.3-0.3,0.8-0.3,1.1,0l1.8,1.8l4.7-4.7
	c0.3-0.3,0.8-0.3,1.1,0C23.5,15.9,23.5,16.3,23.2,16.6z"/>
</svg>
