<?xml version="1.0" encoding="utf-8"?>
<!-- Generator: Adobe Illustrator 21.0.0, SVG Export Plug-In . SVG Version: 6.00 Build 0)  -->
<svg version="1.1" id="Layer_1" xmlns="http://www.w3.org/2000/svg" xmlns:xlink="http://www.w3.org/1999/xlink" x="0px" y="0px"
	 viewBox="0 0 103 24" style="enable-background:new 0 0 103 24;" xml:space="preserve">
<style type="text/css">
	.st0{fill-rule:evenodd;clip-rule:evenodd;fill:#78869F;}
</style>
<path class="st0" d="M15.3,8.9l-9-7c-0.1-0.1-0.3-0.1-0.4,0C5.8,2,5.7,2.1,5.7,2.3v1.2l8.6,6.7c0.8,0.6,0.8,1.8,0,2.4
	c-0.6,0.4-1.3,0.4-1.9,0L1.8,4.3c-0.1-0.1-0.3-0.1-0.4,0C1.2,4.3,1.1,4.5,1.1,4.6v16.1c0,0.8,0.4,1.5,1.2,1.9
	C3,23,3.8,22.9,4.5,22.4l10.9-8.5C16.9,12.6,16.9,10.2,15.3,8.9z"/>
<rect x="75.1" y="4.1" class="st0" width="1.9" height="12.9"/>
<path class="st0" d="M101.9,17.7l0-9.6H100c0,3.2,0,6.4,0,9.6c0,0.8-0.7,1.5-1.5,1.5L97,19l0,2h1.5C100.4,21,101.9,19.5,101.9,17.7z
	"/>
<rect x="100" y="5.1" class="st0" width="1.9" height="1.9"/>
<path class="st0" d="M29.9,17H28V7.5h1.6c0,1.1,0,1.4,0,2.1c0-2.3,7.3-4.1,7.3,1V17L35,17v-6.3c0-2.3-4.8-2.6-5.1,0.7L29.9,17z"/>
<path class="st0" d="M63.4,17.3c-2.8,0-5-2.2-5-5s2.2-5,5-5s5,2.2,5,5S66.2,17.3,63.4,17.3L63.4,17.3z M63.4,15.6
	c1.8,0,3.2-1.5,3.2-3.2c0-1.8-1.5-3.2-3.2-3.2c-1.8,0-3.2,1.5-3.2,3.2C60.2,14.1,61.6,15.6,63.4,15.6z"/>
<path class="st0" d="M48,17.3c-2.4,0-5-2.2-5-5s2.2-5,5-5c3.1,0,5.4,2.6,4.9,5.6h-8.1c0.4,1.4,1.8,2.6,3.1,2.6c1.3,0,2.4-0.7,3-1.6
	h2C52.3,15.9,50.5,17.3,48,17.3L48,17.3z M44.9,11.4h6.3C50.8,10,49.5,9.1,48,9.1C46.5,9.1,45.2,10,44.9,11.4z"/>
<path class="st0" d="M88,17.3c-2.4,0-5-2.2-5-5s2.2-5,5-5c3.1,0,5.4,2.6,4.9,5.6h-8.1c0.4,1.4,1.8,2.6,3.1,2.6c1.3,0,2.4-0.7,3-1.6
	h2C92.3,15.9,90.4,17.3,88,17.3L88,17.3z M84.9,11.4h6.3C90.8,10,89.5,9.1,88,9.1C86.5,9.1,85.2,10,84.9,11.4z"/>
</svg>
