<?xml version="1.0" encoding="utf-8"?>
<!-- Generator: Adobe Illustrator 21.0.0, SVG Export Plug-In . SVG Version: 6.00 Build 0)  -->
<svg version="1.1" id="Layer_1" xmlns="http://www.w3.org/2000/svg" xmlns:xlink="http://www.w3.org/1999/xlink" x="0px" y="0px"
	 viewBox="0 0 37 37" style="enable-background:new 0 0 37 37;" xml:space="preserve">
<style type="text/css">
	.st0{fill:#FFFFFF;}
</style>
<path class="st0" d="M14.7,19.3v-1.9L10,14.6v7.5L14.7,19.3L14.7,19.3z M16.3,16.9v2.8c0,0.3-0.1,0.5-0.4,0.6l-6.3,3.7
	c-0.1,0.1-0.3,0.1-0.4,0.1c-0.4,0-0.8-0.3-0.8-0.8V13.2c0-0.1,0-0.3,0.1-0.4c0.2-0.4,0.7-0.5,1.1-0.3l6.3,3.7
	C16.2,16.3,16.3,16.6,16.3,16.9z"/>
<path class="st0" d="M21.3,21.8c-0.4,0-0.8-0.3-0.8-0.8c0-0.5,0.3-0.8,0.8-0.8h3.2c0.4,0,0.8,0.3,0.8,0.8c0,0.5-0.3,0.8-0.8,0.8
	H21.3z"/>
<path class="st0" d="M26.3,12.7h-9c-0.2,0-0.5,0.1-0.6,0.3c-0.2,0.2-0.3,0.4-0.3,0.6v9.2c0,0.2,0.1,0.5,0.3,0.6
	c0.2,0.2,0.4,0.3,0.6,0.3h9c0.2,0,0.5-0.1,0.6-0.3c0.2-0.2,0.3-0.4,0.3-0.6v-9.2c0-0.2-0.1-0.5-0.3-0.6
	C26.8,12.8,26.6,12.7,26.3,12.7L26.3,12.7z M17.2,11.2h9c0.7,0,1.3,0.3,1.8,0.7c0.4,0.4,0.7,1.1,0.7,1.8v9.2c0,0.7-0.3,1.3-0.7,1.8
	c-0.4,0.4-1.1,0.7-1.8,0.7h-9c-0.7,0-1.3-0.3-1.8-0.7c-0.4-0.4-0.7-1.1-0.7-1.8v-9.2c0-0.7,0.3-1.3,0.7-1.8
	C16,11.5,16.6,11.2,17.2,11.2z"/>
</svg>
