<?xml version="1.0" encoding="utf-8"?>
<!-- Generator: Adobe Illustrator 21.0.0, SVG Export Plug-In . SVG Version: 6.00 Build 0)  -->
<svg version="1.1" id="Layer_1" xmlns="http://www.w3.org/2000/svg" xmlns:xlink="http://www.w3.org/1999/xlink" x="0px" y="0px"
	 viewBox="0 0 150 100" style="enable-background:new 0 0 150 100;" xml:space="preserve">
<style type="text/css">
	.st0{fill-rule:evenodd;clip-rule:evenodd;fill:#6786B3;}
	.st1{fill-rule:evenodd;clip-rule:evenodd;fill:#F2F4F5;}
	.st2{fill-rule:evenodd;clip-rule:evenodd;fill:#78869F;}
	.st3{fill-rule:evenodd;clip-rule:evenodd;fill:#85ACE6;}
	.st4{fill-rule:evenodd;clip-rule:evenodd;fill:#96BEFA;}
</style>
<path class="st0" d="M31.4,34.4h87.3c2,0,3.6,1.6,3.6,3.6v55.1c0,2-1.6,3.6-3.6,3.6H31.4c-2,0-3.6-1.6-3.6-3.6V38
	C27.8,36.1,29.4,34.4,31.4,34.4z"/>
<path class="st1" d="M32.7,90.8h84.7c2,0,3.6-1.6,3.6-3.6V45.9c0-2-1.6-3.6-3.6-3.6H32.7c-2,0-3.6,1.6-3.6,3.6v41.3
	C29.1,89.2,30.7,90.8,32.7,90.8z"/>
<path class="st2" d="M43.2,52h24.9v2.7H43.2V52L43.2,52z M43.2,74.7H93v2.7H43.2V74.7L43.2,74.7z M43.2,66.2H93v2.7H43.2V66.2
	L43.2,66.2z M43.2,59.1H93v2.7H43.2V59.1z"/>
<path class="st3" d="M29.1,95.9c-0.8-0.7-1.3-1.7-1.3-2.8V38c0-1.1,0.5-2.1,1.3-2.8L75,65.6L29.1,95.9z"/>
<path class="st4" d="M118.6,96.7H31.4c-0.9,0-1.7-0.3-2.3-0.8L75,65.6l45.9,30.3C120.3,96.4,119.5,96.7,118.6,96.7z"/>
<path class="st3" d="M120.9,95.9c0.8-0.7,1.3-1.7,1.3-2.8V38c0-1.1-0.5-2.1-1.3-2.8L75,65.6L120.9,95.9z"/>
<path class="st4" d="M118.6,34.4H31.4c-0.9,0-1.7,0.3-2.3,0.8L75,65.6l45.9-30.3C120.3,34.8,119.5,34.4,118.6,34.4z"/>
</svg>
