<?xml version="1.0" encoding="utf-8"?>
<!-- Generator: Adobe Illustrator 21.0.0, SVG Export Plug-In . SVG Version: 6.00 Build 0)  -->
<svg version="1.1" id="Layer_1" xmlns="http://www.w3.org/2000/svg" xmlns:xlink="http://www.w3.org/1999/xlink" x="0px" y="0px"
	 viewBox="0 0 30 30" style="enable-background:new 0 0 30 30;" xml:space="preserve">
<style type="text/css">
	.st0{fill:#FFFFFF;}
</style>
<path class="st0" d="M15.5,17L15.5,17c-0.9,0-1.5-0.7-1.5-1.5v-7C14,7.7,14.7,7,15.5,7h0C16.3,7,17,7.7,17,8.5v7
	C17,16.3,16.3,17,15.5,17z"/>
<path class="st0" d="M15.5,20L15.5,20c-0.9,0-1.5,0.7-1.5,1.5v0c0,0.8,0.7,1.5,1.5,1.5h0c0.8,0,1.5-0.7,1.5-1.5v0
	C17,20.7,16.3,20,15.5,20z"/>
</svg>
