<?xml version="1.0" encoding="utf-8"?>
<!-- Generator: Adobe Illustrator 21.0.0, SVG Export Plug-In . SVG Version: 6.00 Build 0)  -->
<svg version="1.1" id="Layer_1" xmlns="http://www.w3.org/2000/svg" xmlns:xlink="http://www.w3.org/1999/xlink" x="0px" y="0px"
	 viewBox="0 0 33 33" style="enable-background:new 0 0 33 33;" xml:space="preserve">
<style type="text/css">
	.st0{fill:#FFFFFF;}
</style>
<path class="st0" d="M16.5,18.4L16.5,18.4c-0.5,0-0.8-0.4-0.8-0.8v-6c0-0.4,0.4-0.8,0.8-0.8l0,0c0.4,0,0.8,0.4,0.8,0.8v6
	C17.3,18.1,16.9,18.4,16.5,18.4z"/>
<path class="st0" d="M16.5,20.3L16.5,20.3c-0.6,0-1,0.5-1,1l0,0c0,0.5,0.5,1,1,1l0,0c0.5,0,1-0.5,1-1l0,0
	C17.5,20.8,17,20.3,16.5,20.3z"/>
</svg>
