<?xml version="1.0" encoding="utf-8"?>
<!-- Generator: Adobe Illustrator 21.0.0, SVG Export Plug-In . SVG Version: 6.00 Build 0)  -->
<svg version="1.1" id="Layer_1" xmlns="http://www.w3.org/2000/svg" xmlns:xlink="http://www.w3.org/1999/xlink" x="0px" y="0px"
	 viewBox="0 0 105 24" style="enable-background:new 0 0 105 24;" xml:space="preserve">
<style type="text/css">
	.st0{fill-rule:evenodd;clip-rule:evenodd;fill:#78869F;}
</style>
<path class="st0" d="M12.7,9.2L5.4,3.5C5.3,3.4,5.1,3.4,5,3.5C4.9,3.5,4.8,3.7,4.8,3.8v1l7,5.5c0.6,0.5,0.6,1.5,0,2
	c-0.5,0.4-1.1,0.4-1.5,0L1.6,5.4c-0.1-0.1-0.2-0.1-0.4,0C1.1,5.5,1,5.6,1,5.7v13.1c0,0.7,0.4,1.2,1,1.5c0.6,0.3,1.3,0.2,1.8-0.2
	l8.9-6.9C14,12.2,14,10.2,12.7,9.2z"/>
<rect x="59.5" y="5.6" class="st0" width="1.6" height="10.4"/>
<path class="st0" d="M81.8,15.7l0-7.6h-1.6c0,2.6,0,5,0,7.6c0,0.7-0.5,1.2-1.2,1.2h-1.2v1.6h1.2C80.6,18.4,81.8,17.2,81.8,15.7z"/>
<rect x="80.3" y="5.6" class="st0" width="1.6" height="1.6"/>
<path class="st0" d="M22.7,16h-1.6V8.3h1.3c0,0.9,0,1.2,0,1.7c0-1.9,5.9-3.4,5.9,0.9V16l-1.6,0v-5.1c0-1.9-3.8-2.1-4,0.6L22.7,16z"
	/>
<path class="st0" d="M50.1,16c-2.3,0-4.1-1.8-4.1-4.1s1.8-4.1,4.1-4.1c2.3,0,4.1,1.8,4.1,4.1S52.4,16,50.1,16L50.1,16z M50.1,14.5
	c1.5,0,2.6-1.2,2.6-2.6c0-1.5-1.2-2.6-2.6-2.6c-1.5,0-2.6,1.2-2.6,2.6C47.5,13.4,48.6,14.5,50.1,14.5z"/>
<path class="st0" d="M37.1,16c-2,0-4.1-1.8-4.1-4.1s1.8-4.1,4.1-4.1c2.5,0,4.4,2.4,4,4.9h-6.6c0.3,1.2,1.5,1.9,2.6,1.9
	c1.1,0,1.8-0.3,2.3-1h1.6C40.5,15,39.1,16,37.1,16L37.1,16z M34.6,11.4h5.1c-0.3-1.1-1.3-2.1-2.5-2.1S34.8,10.3,34.6,11.4z"/>
<path class="st0" d="M70,16.8c-2,0-4.1-1.8-4.1-4.1s1.8-4.1,4.1-4.1c2.5,0,4.4,2.5,4,5h-6.6c0.3,1.2,1.5,1.8,2.6,1.8
	c1.1,0,1.8-0.3,2.3-1h1.6C73.3,15.9,71.9,16.8,70,16.8L70,16.8z M67.4,12.3h5.1c-0.3-1.1-1.3-2.2-2.6-2.2S67.7,11.2,67.4,12.3z"/>
</svg>
