<?xml version="1.0" encoding="utf-8"?>
<!-- Generator: Adobe Illustrator 21.0.0, SVG Export Plug-In . SVG Version: 6.00 Build 0)  -->
<svg version="1.1" id="Layer_1" xmlns="http://www.w3.org/2000/svg" xmlns:xlink="http://www.w3.org/1999/xlink" x="0px" y="0px"
	 viewBox="0 0 48 48" style="enable-background:new 0 0 48 48;" xml:space="preserve">
<style type="text/css">
	.st0{clip-path:url(#SVGID_2_);fill:#FBBC05;}
	.st1{clip-path:url(#SVGID_4_);fill:#EA4335;}
	.st2{clip-path:url(#SVGID_6_);fill:#34A853;}
	.st3{clip-path:url(#SVGID_8_);fill:#4285F4;}
</style>
<g>
	<defs>
		<path id="SVGID_1_" d="M37.3,21.5h-13v5.4h7.5c-0.7,3.4-3.6,5.4-7.5,5.4c-4.5,0-8.2-3.7-8.2-8.2s3.7-8.2,8.2-8.2
			c2,0,3.7,0.7,5.1,1.8l4-4c-2.5-2.1-5.6-3.5-9.2-3.5c-7.7,0-13.9,6.2-13.9,13.9s6.2,13.9,13.9,13.9c7,0,13.3-5.1,13.3-13.9
			C37.6,23.2,37.5,22.3,37.3,21.5z"/>
	</defs>
	<clipPath id="SVGID_2_">
		<use xlink:href="#SVGID_1_"  style="overflow:visible;"/>
	</clipPath>
	<path class="st0" d="M9.2,32.2V15.8L19.9,24L9.2,32.2z"/>
</g>
<g>
	<defs>
		<path id="SVGID_3_" d="M37.3,21.5h-13v5.4h7.5c-0.7,3.4-3.6,5.4-7.5,5.4c-4.5,0-8.2-3.7-8.2-8.2s3.7-8.2,8.2-8.2
			c2,0,3.7,0.7,5.1,1.8l4-4c-2.5-2.1-5.6-3.5-9.2-3.5c-7.7,0-13.9,6.2-13.9,13.9s6.2,13.9,13.9,13.9c7,0,13.3-5.1,13.3-13.9
			C37.6,23.2,37.5,22.3,37.3,21.5z"/>
	</defs>
	<clipPath id="SVGID_4_">
		<use xlink:href="#SVGID_3_"  style="overflow:visible;"/>
	</clipPath>
	<path class="st1" d="M9.2,15.8L19.9,24l4.4-3.9l15.2-2.5V8.8H9.2V15.8z"/>
</g>
<g>
	<defs>
		<path id="SVGID_5_" d="M37.3,21.5h-13v5.4h7.5c-0.7,3.4-3.6,5.4-7.5,5.4c-4.5,0-8.2-3.7-8.2-8.2s3.7-8.2,8.2-8.2
			c2,0,3.7,0.7,5.1,1.8l4-4c-2.5-2.1-5.6-3.5-9.2-3.5c-7.7,0-13.9,6.2-13.9,13.9s6.2,13.9,13.9,13.9c7,0,13.3-5.1,13.3-13.9
			C37.6,23.2,37.5,22.3,37.3,21.5z"/>
	</defs>
	<clipPath id="SVGID_6_">
		<use xlink:href="#SVGID_5_"  style="overflow:visible;"/>
	</clipPath>
	<path class="st2" d="M9.2,32.2l19-14.5l5,0.6l6.4-9.5v30.3H9.2V32.2z"/>
</g>
<g>
	<defs>
		<path id="SVGID_7_" d="M37.3,21.5h-13v5.4h7.5c-0.7,3.4-3.6,5.4-7.5,5.4c-4.5,0-8.2-3.7-8.2-8.2s3.7-8.2,8.2-8.2
			c2,0,3.7,0.7,5.1,1.8l4-4c-2.5-2.1-5.6-3.5-9.2-3.5c-7.7,0-13.9,6.2-13.9,13.9s6.2,13.9,13.9,13.9c7,0,13.3-5.1,13.3-13.9
			C37.6,23.2,37.5,22.3,37.3,21.5z"/>
	</defs>
	<clipPath id="SVGID_8_">
		<use xlink:href="#SVGID_7_"  style="overflow:visible;"/>
	</clipPath>
	<path class="st3" d="M39.5,39.2L19.9,24l-2.5-1.9l22.1-6.3V39.2z"/>
</g>
</svg>
