<?xml version="1.0" encoding="utf-8"?>
<!-- Generator: Adobe Illustrator 21.0.0, SVG Export Plug-In . SVG Version: 6.00 Build 0)  -->
<svg version="1.1" id="Layer_1" xmlns="http://www.w3.org/2000/svg" xmlns:xlink="http://www.w3.org/1999/xlink" x="0px" y="0px"
	 viewBox="0 0 40 40" style="enable-background:new 0 0 40 40;" xml:space="preserve">
<style type="text/css">
	.st0{fill-rule:evenodd;clip-rule:evenodd;fill:#78869F;}
</style>
<path class="st0" d="M20.7,9.8l1.9,5.8l6.1,0c0.4,0,0.8,0.3,0.8,0.8c0,0.3-0.1,0.5-0.3,0.6l-4.9,3.6l1.9,5.8c0.1,0.4-0.1,0.8-0.5,1
	c-0.3,0.1-0.5,0-0.7-0.1L20,23.6l-4.9,3.6c-0.3,0.3-0.8,0.2-1.1-0.2c-0.2-0.2-0.2-0.5-0.1-0.7l1.9-5.8L10.8,17
	c-0.3-0.3-0.4-0.7-0.2-1.1c0.2-0.2,0.4-0.3,0.7-0.3l6,0l1.9-5.8c0.1-0.4,0.6-0.6,1-0.5C20.5,9.4,20.7,9.6,20.7,9.8L20.7,9.8z
	 M21.3,16.6l-1.3-4l-1.3,4c-0.1,0.3-0.4,0.5-0.7,0.5l-4.3,0l3.4,2.5c0.3,0.2,0.4,0.5,0.3,0.9l-1.3,4l3.4-2.5c0.3-0.2,0.6-0.2,0.9,0
	l3.4,2.5l-1.3-4c-0.1-0.3,0-0.7,0.3-0.9l3.4-2.5l-4.2,0C21.7,17.2,21.4,17,21.3,16.6z"/>
</svg>
