<?xml version="1.0" encoding="utf-8"?>
<!-- Generator: Adobe Illustrator 21.0.0, SVG Export Plug-In . SVG Version: 6.00 Build 0)  -->
<svg version="1.1" id="Layer_1" xmlns="http://www.w3.org/2000/svg" xmlns:xlink="http://www.w3.org/1999/xlink" x="0px" y="0px"
	 viewBox="0 0 80 40" style="enable-background:new 0 0 80 40;" xml:space="preserve">
<style type="text/css">
	.st0{fill-rule:evenodd;clip-rule:evenodd;fill:#78869F;}
</style>
<rect x="50" y="12" class="st0" width="2" height="13"/>
<path class="st0" d="M79,25.6l0-9.5h-2c0,3.3,0,6.2,0,9.5c0,0.9-0.7,1.5-1.5,1.5H74v2h1.5C77.4,29,79,27.5,79,25.6z"/>
<rect x="77" y="12" class="st0" width="2" height="2"/>
<path class="st0" d="M5,25H3V15h1.6c0,1.2,0,1.7,0,2.4c0-2.3,7.4-4.2,7.4,1.1V25l-2,0v-6.5c0-2.4-4.7-2.7-5,0.7L5,25z"/>
<path class="st0" d="M38.2,25c-2.8,0-5.1-2.3-5.1-5.1s2.3-5.1,5.1-5.1s5.1,2.3,5.1,5.1S41,25,38.2,25L38.2,25z M38.2,23.2
	c1.8,0,3.3-1.5,3.3-3.3c0-1.8-1.5-3.3-3.3-3.3c-1.8,0-3.3,1.5-3.3,3.3C34.9,21.7,36.4,23.2,38.2,23.2z"/>
<path class="st0" d="M22.2,25c-2.5,0-5.1-2.3-5.1-5.1s2.3-5.1,5.1-5.1c3.2,0,5.6,2.8,5.1,6h-8.3c0.4,1.5,1.9,2.5,3.2,2.5
	c1.4,0,2.2-0.3,2.8-1.2h2C26.2,23.9,24.7,25,22.2,25L22.2,25z M19,19h6.5c-0.4-1.4-1.7-2.5-3.2-2.5S19.3,17.6,19,19z"/>
<path class="st0" d="M64.1,25c-2.5,0-5.1-2.3-5.1-5.1s2.3-5.1,5.1-5.1c3.2,0,5.6,2.8,5.1,6h-8.3c0.4,1.5,1.9,2.5,3.2,2.5
	c1.4,0,2.2-0.3,2.8-1.2h2C68.2,23.9,66.7,25,64.1,25L64.1,25z M60.9,19h6.5c-0.4-1.4-1.7-2.5-3.2-2.5C62.6,16.5,61.3,17.6,60.9,19z"
	/>
</svg>
