<?xml version="1.0" encoding="utf-8"?>
<!-- Generator: Adobe Illustrator 21.0.0, SVG Export Plug-In . SVG Version: 6.00 Build 0)  -->
<svg version="1.1" id="Layer_1" xmlns="http://www.w3.org/2000/svg" xmlns:xlink="http://www.w3.org/1999/xlink" x="0px" y="0px"
	 viewBox="0 0 40 40" style="enable-background:new 0 0 40 40;" xml:space="preserve">
<style type="text/css">
	.st0{fill-rule:evenodd;clip-rule:evenodd;fill:#78869F;}
</style>
<path class="st0" d="M15.6,10.8h8.8c0.6,0,1.1,0.2,1.5,0.6c0.4,0.4,0.6,0.9,0.6,1.5v15.3c0,0.4-0.4,0.8-0.8,0.8
	c-0.3,0-0.5-0.1-0.6-0.3l-4.9-5.2L15,29c-0.2,0.2-0.4,0.2-0.6,0.2l-0.1,0c-0.4,0-0.8-0.4-0.8-0.8V12.9c0-0.6,0.2-1.1,0.6-1.5l0.1,0
	C14.6,11,15.1,10.8,15.6,10.8L15.6,10.8z M24.4,12.4h-8.8c-0.1,0-0.3,0.1-0.4,0.1l0,0c-0.1,0.1-0.2,0.2-0.2,0.4v13.7l4.5-4.8
	c0.3-0.3,0.8-0.3,1.1,0l4.2,4.4V12.9c0-0.1-0.1-0.3-0.2-0.4C24.7,12.4,24.5,12.4,24.4,12.4z"/>
</svg>
