<?xml version="1.0" encoding="utf-8"?>
<!-- Generator: Adobe Illustrator 21.0.0, SVG Export Plug-In . SVG Version: 6.00 Build 0)  -->
<svg version="1.1" id="Layer_1" xmlns="http://www.w3.org/2000/svg" xmlns:xlink="http://www.w3.org/1999/xlink" x="0px" y="0px"
	 viewBox="0 0 40 40" style="enable-background:new 0 0 40 40;" xml:space="preserve">
<style type="text/css">
	.st0{fill:#78869F;}
</style>
<g>
	<path class="st0" d="M11.6,17l5.2,1.2c0.5,0.1,1-0.2,1.1-0.7c0-0.5-0.2-1-0.7-1.1L12,15.2c-0.5-0.1-1,0.2-1.1,0.7
		C10.8,16.4,11,16.9,11.6,17z"/>
	<path class="st0" d="M11.6,20.3l5.2,1.2c0.5,0.1,1-0.2,1.1-0.7s-0.2-1-0.7-1.1L12,18.5c-0.5,0-1,0.2-1.1,0.7
		C10.8,19.7,11,20.2,11.6,20.3z"/>
	<path class="st0" d="M11.6,23.7l2.6,0.6c0.5,0.1,1-0.2,1.1-0.7c0.1-0.5-0.2-1-0.7-1.1L12,21.9c-0.5-0.1-1,0.2-1.1,0.7
		C10.8,23.1,11,23.6,11.6,23.7z"/>
	<path class="st0" d="M31.3,10.7c-0.1,0-0.2,0-0.2,0L20,13.4L8.9,10.8c-0.1,0-0.1,0-0.2,0c-0.5-0.1-0.9,0.4-0.9,0.9v14.2
		c0,0.4,0.2,0.9,0.7,0.9l11.2,2.6c0.1,0,0.1,0,0.2,0l0,0l0,0c0.1,0,0.2,0,0.2,0l11.2-2.6c0.4-0.1,0.7-0.5,0.7-0.9V11.7
		C32.2,11.2,31.8,10.7,31.3,10.7z M19,27.4l-9.5-2.2V12.8L19,15V27.4z M30.3,25.2L21,27.4V15l9.4-2.2V25.2z"/>
	<path class="st0" d="M23.3,18.2l5.2-1.2c0.5-0.1,0.9-0.6,0.7-1.1c-0.2-0.5-0.7-0.9-1.2-0.7l-5.2,1.2c-0.5,0.1-0.9,0.6-0.7,1.1
		C22.3,18,22.8,18.4,23.3,18.2z"/>
</g>
</svg>
