<?xml version="1.0" encoding="utf-8"?>
<!-- Generator: Adobe Illustrator 21.0.0, SVG Export Plug-In . SVG Version: 6.00 Build 0)  -->
<svg version="1.1" id="Layer_1" xmlns="http://www.w3.org/2000/svg" xmlns:xlink="http://www.w3.org/1999/xlink" x="0px" y="0px"
	 viewBox="0 0 20 40" style="enable-background:new 0 0 20 40;" xml:space="preserve">
<style type="text/css">
	.st0{fill:#8CB5F3;}
</style>
<path id="logoLogo" class="st0" d="M14.3,16.6l-9-7c-0.1,0-0.3-0.1-0.4,0C4.7,9.7,4.6,9.8,4.6,10v1.2l8.7,6.7
	c0.5,0.5,0.8,1.3,0.4,1.9c-0.5,0.8-1.5,1-2.3,0.5L0.7,12c-0.2-0.1-0.3-0.2-0.5-0.1S0,12.1,0,12.3v16.1c0,0.5,0.3,1.3,0.8,1.6
	c0.8,0.7,1.9,0.7,2.6,0.1l10.9-8.5C15.9,20.3,15.9,17.8,14.3,16.6z"/>
</svg>
