<?xml version="1.0" encoding="utf-8"?>
<!-- Generator: Adobe Illustrator 21.0.0, SVG Export Plug-In . SVG Version: 6.00 Build 0)  -->
<svg version="1.1" id="Layer_1" xmlns="http://www.w3.org/2000/svg" xmlns:xlink="http://www.w3.org/1999/xlink" x="0px" y="0px"
	 viewBox="0 0 40 40" style="enable-background:new 0 0 40 40;" xml:space="preserve">
<style type="text/css">
	.st0{fill-rule:evenodd;clip-rule:evenodd;fill:#78869F;}
</style>
<path class="st0" d="M23.7,23.7c-1.3,1.4-3.1,2-4.9,2c-1.8,0-3.5-0.7-4.9-2c-1.3-1.3-2-3.1-2-4.9c0-1.8,0.7-3.5,2-4.9
	c1.4-1.4,3.1-2,4.9-2c1.8,0,3.5,0.7,4.9,2l0,0c1.3,1.3,2,3.1,2,4.8C25.8,20.6,25.1,22.4,23.7,23.7L23.7,23.7z M18.8,24.3
	c1.4,0,2.8-0.5,3.8-1.6c1.1-1.1,1.6-2.4,1.6-3.8c0-1.4-0.5-2.7-1.5-3.8l0,0c-1.1-1.1-2.4-1.6-3.8-1.6c-1.4,0-2.8,0.5-3.8,1.6
	c-1.1,1.1-1.6,2.4-1.6,3.8c0,1.4,0.5,2.8,1.6,3.8C16.1,23.7,17.5,24.3,18.8,24.3z"/>
<path class="st0" d="M22.7,23.8c-0.3-0.3-0.3-0.8,0-1.1c0.3-0.3,0.8-0.3,1.1,0l4.1,4.1c0.3,0.3,0.3,0.8,0,1.1
	c-0.3,0.3-0.8,0.3-1.1,0L22.7,23.8z"/>
</svg>
