<?xml version="1.0" encoding="utf-8"?>
<!-- Generator: Adobe Illustrator 21.0.0, SVG Export Plug-In . SVG Version: 6.00 Build 0)  -->
<svg version="1.1" xmlns="http://www.w3.org/2000/svg" xmlns:xlink="http://www.w3.org/1999/xlink" x="0px" y="0px"
	 viewBox="0 0 330 422" style="enable-background:new 0 0 330 422;" xml:space="preserve">
<style type="text/css">
	.st0{fill-rule:evenodd;clip-rule:evenodd;fill:#010E42;}
	.st1{fill-rule:evenodd;clip-rule:evenodd;fill:#411E84;}
	.st2{fill-rule:evenodd;clip-rule:evenodd;fill:#041D6F;}
	.st3{fill-rule:evenodd;clip-rule:evenodd;fill:#F5ABD0;}
	.st4{fill-rule:evenodd;clip-rule:evenodd;fill:#F14899;}
	.st5{fill-rule:evenodd;clip-rule:evenodd;fill:#031D72;}
	.st6{fill-rule:evenodd;clip-rule:evenodd;fill:#030C43;}
	.st7{fill-rule:evenodd;clip-rule:evenodd;fill:#761981;}
	.st8{fill-rule:evenodd;clip-rule:evenodd;fill:#F6ABD2;}
	.st9{fill-rule:evenodd;clip-rule:evenodd;fill:#F0549E;}
	.st10{fill-rule:evenodd;clip-rule:evenodd;fill:#E80070;}
	.st11{fill-rule:evenodd;clip-rule:evenodd;fill:#F7ABD2;}
	.st12{fill-rule:evenodd;clip-rule:evenodd;fill:#010C42;}
	.st13{fill-rule:evenodd;clip-rule:evenodd;fill:#FFFFFF;}
	.st14{fill-rule:evenodd;clip-rule:evenodd;fill:#F053A0;}
	.st15{fill-rule:evenodd;clip-rule:evenodd;fill:#08238A;}
	.st16{fill-rule:evenodd;clip-rule:evenodd;fill:#021E72;}
	.st17{fill-rule:evenodd;clip-rule:evenodd;fill:#082487;}
	.st18{fill-rule:evenodd;clip-rule:evenodd;fill:#B10E79;}
	.st19{fill-rule:evenodd;clip-rule:evenodd;fill:#002081;}
	.st20{fill-rule:evenodd;clip-rule:evenodd;fill:#AF0D7A;}
	.st21{fill-rule:evenodd;clip-rule:evenodd;fill:#061C71;}
	.st22{fill-rule:evenodd;clip-rule:evenodd;fill:#000E3F;}
</style>
<g id="Layer_1">
	<path class="st0" d="M71,195.1l21.1,2.4c15.7,1.8,27.1,14.4,25.6,28.2c-1.5,13.8-15.5,23.6-31.2,21.8L65.4,245
		c-15.7-1.8-27.1-14.4-25.6-28.2C41.4,203.1,55.3,193.3,71,195.1z"/>
	<path class="st1" d="M109.3,226.6c-4.8-1.5-12-3.6-19.6-5.5c-4.6-3.2-9.5-3.9-13.8-3.2c-7-1.4-13.3-2.3-17.3-2
		C47.7,216.7-0.6,185.3,0.8,169C2.2,152.7,16,152.3,19,153c3,0.7,16.9,7.9,18.9,10.3c0.5,0.6,0.2-0.2,5,1.5
		c4.8,1.7,31.8,15.9,46.7,27.8c14.9,11.9,28,15.3,28,15.3L109.3,226.6z"/>
	<path class="st0" d="M59.2,240.4c-8.5-1-43.6-11.5-49-27C4.8,197.8-2.4,178.8,0.8,169c-1.4,16.3,46.9,47.7,57.8,46.8
		c4-0.3,10.3,0.5,17.3,2c-7.4,1.1-13.3,5.9-14.3,9.1c-0.7,2.1-1.3,6.7-1.8,13L59.2,240.4L59.2,240.4z M102.8,201.5L102.8,201.5
		L102.8,201.5L102.8,201.5z"/>
	<path class="st1" d="M57.2,354l25.1,2.8c0,0,2.1-15.9,6.6-32.8c4.2-15.8,10.9-32.4,12-38.5c2.7-14.2,1.2-56-11.2-64.6
		c-12.4-8.5-26.5,0.8-28.2,5.8C57.2,240,57.2,354,57.2,354z"/>
	<path class="st2" d="M57.2,354l18.3,2c-3.1-3.4-10.5-17.6-11.3-27.2c-0.8-9.6,7.1-19.6,11.9-27.6c4.8-8,6.8-21.8,5.7-28.1
		S70,253.6,70.9,246c1.3-12,13.8-22.2,20-24c-0.4-0.3-0.8-0.7-1.2-0.9c-12.4-8.5-26.5,0.8-28.2,5.8C57.2,240,57.2,354,57.2,354z"/>
	<path class="st3" d="M62.8,24.9c5.7,0.6,27.9,2.1,33.7-1.3c5.8-3.3,5.1,23,5.1,23s3.6-6.2,5-5.9c1.4,0.3,0.7,11-3.8,16.7
		c-4.5,5.6-8.9,28.5-18.3,28.6C75.2,86,62.3,64.3,61,58.8c-1.3-5.5-7-10.6-6.3-14c0.7-3.4,2.9-3.1,2.9-3.1s2.7,2.7,2.5,4.3
		C59.9,47.5,64.4,30.1,62.8,24.9z"/>
	<path class="st4" d="M62.8,24.9c2,0.2,6.1,0.5,10.7,0.7c-1.7,2.8-3.7,8.5-2.9,11.2c0.8,2.7,1.6,9.2-0.8,10.4
		c-2.4,1.2-5.4,8.2-1.4,12.7c2.4,2.7,3.7,11.3,4.3,18.4c-6-6.8-11-16.1-11.8-19.5c-1.3-5.5-7-10.6-6.3-14c0.7-3.4,2.9-3.1,2.9-3.1
		s2.7,2.7,2.5,4.3C59.9,47.5,64.4,30.1,62.8,24.9z"/>
	<path class="st5" d="M59.6,0.2c5.8-1,40.1,7,44.8,17.4s3.3,22.2,3.3,22.2l-0.8,1.3c-0.1-0.2-0.2-0.4-0.4-0.4c-1.4-0.3-5,5.9-5,5.9
		s0.7-26.3-5.1-23c-5.8,3.3-28,1.9-33.7,1.3c1.6,5.2-3,22.7-2.8,21.1c0.2-1.5-2.5-4.3-2.5-4.3s-0.9-0.1-1.8,0.7l0,0
		c0,0,1.1-21.2-3.3-25.7c-2-1.9,3.2-4.6,3.2-4.6S58.6,9.6,59.6,0.2z"/>
	<path class="st6" d="M78.7,25.7c-6.7-0.1-13.2-0.5-15.9-0.8c1.6,5.2-3,22.7-2.8,21.1c0.2-1.5-2.5-4.3-2.5-4.3s-0.9-0.1-1.8,0.7l0,0
		c0,0,1.1-21.2-3.3-25.7c-2-1.9,3.2-4.6,3.2-4.6s2.9-2.5,4-12c0.3,9.6,17.7,10.8,20.4,14C82.4,16.6,80.4,23,78.7,25.7z"/>
	<path class="st7" d="M23.3,114.5c0.5-4.6,5-28.4,21.3-33.1C61,76.8,65.7,69,63.9,65.4l0,0c4.6,8.4,13.6,20.6,20.6,20.5
		c7.2-0.1,11.5-13.7,15.1-22.5c0,0,11.6,20,26.2,27.2c14.6,7.2,35,17,33.8,47.5c-1.2,30.5-11,61.7-14.6,64.4
		c-3.6,2.7-9.6,3.5-17,1.1l0,0c0.2,0,0.3,0,0.4-0.1c3-1.3,6.3-7.4,6.7-11.7c0.5-4.3-4.1-11.8-8.5-13.4c0,0-0.8-7.6,1.6-13.3
		c1.2-2.7-2.5,3.7-6.4,12.5c-5.9-0.5-13.9-0.4-14.6-2c-0.9-2.1-6.6-11.5-7.7-12.3c-1.1-0.8-2.3-0.6-3.8-0.7
		c-1.5-0.1-10.6-6.7-12.5-8.5c-1.9-1.7-19-12.6-17.8,2.3c1.2,14.9,24.1,30.3,29,30.9c0,0,2.1,0.4,4.1,0.9c1.4,1.8,8.9,6.3,16,10
		c-0.7,3.3-1,6.2-0.6,8.4c-4.9-1.8-14.3-6-24.5-14.1c-14.9-11.9-43.2-26.4-46.7-27.8c-3.4-1.4-5-1.5-5-1.5
		c-2-2.3-15.9-9.5-18.9-10.3L23.3,114.5z"/>
	<path class="st0" d="M23.3,114.5c0.5-4.6,5-28.4,21.3-33.1C61,76.8,65.7,69,63.9,65.4l0,0c4.6,8.4,13.6,20.6,20.6,20.5
		c0.4,0,0.8-0.1,1.1-0.1c4.1,13.6-4.8,50.3-7.3,65.2c-5.6-2.8-13.6-5-12.8,5.4c0.5,6.3,4.9,12.7,10.2,18l-0.9,7.9
		c-14-8.8-29.4-16.6-31.9-17.6c-3.4-1.4-5-1.5-5-1.5c-2-2.3-15.9-9.5-18.9-10.3L23.3,114.5z"/>
	<path class="st2" d="M16.2,178.1c6.5,2.8,12.9-0.9,19.2,0.4c19.2,3.9,18.7,33.1,53.9,35.5c21,1.5,25.4,0.2,25.4,0.2l0,0l-5.4,12.3
		c-4.8-1.5-12-3.6-19.6-5.5c-4.6-3.2-9.5-3.9-13.8-3.2c-7-1.4-13.3-2.3-17.3-2C47.7,216.7-0.6,185.3,0.8,169
		c0.5-6.2,2.9-10.1,5.7-12.5C6.9,161.8,4.6,173.1,16.2,178.1z"/>
	<path class="st8" d="M131.1,239.5c-5.3-2.4-17.7-11.7-21.7-12.9c-4.1-1.2,8.2-18.7,8.2-18.7s16.8,11,26.6,9.6
		c9.8-1.4-4.8,4.5-7.4,7.6c-2.6,3.1-3.2,8.8-3.5,11.1C133,238.5,131.1,239.5,131.1,239.5z"/>
	<path class="st1" d="M152.6,255.1c5.6,0.2,22.9-17,23.3-24.2c0.4-7.1-22.7-10.5-28.5-13.6c1.6,0.8-8.5,5.2-10.6,7.7
		c-2.6,3.1-3.2,8.8-3.5,11.1c-0.3,2.3-2.2,3.3-2.2,3.3s9.7,4.8,11.4,6.5C144.2,247.7,149.7,255,152.6,255.1L152.6,255.1z
		 M147.3,217.4c-0.4-0.2-1.3-0.2-3.2,0.1c-0.4,0.1-0.9,0.1-1.3,0.1C144.6,216.9,146.2,216.7,147.3,217.4z"/>
	<path class="st8" d="M51.8,375.5c4-6.5,5.5-11.8,5.3-21.5l0,0.1l25.1,2.8c0,0,0.2,7.6-1.2,10.6c-1.4,3-10.8,18.8-16.2,20.6
		C59.4,389.9,65.9,378.7,51.8,375.5z"/>
	<path class="st9" d="M51.8,375.5c4-6.5,5.5-11.8,5.3-21.5l0,0.1l12.6,1.4c-0.1,8.7-3.3,18.4-10.2,24.3
		C58.1,378.3,55.1,376.2,51.8,375.5z"/>
	<path class="st1" d="M27.5,409c0,0,19.5-19.8,24.6-34.1c0.2-0.1,0.6-0.1,1-0.1c14.1,3.2,6.8,14.4,12,12.7c5.3-1.8,13.9-16,16-20
		c0,0,3.2,11.3-1.4,18.9c-4.6,7.6-15.8,32.4-32.7,34.2C30.1,422.4,27.5,409,27.5,409z"/>
	<path class="st6" d="M35,411.5c-0.3,2.5,0.1,4.5,1.7,8c-7.8-3-9.2-10.5-9.2-10.5s19.5-19.8,24.6-34.1c0.2-0.1,0.6-0.1,1-0.1
		c1.9,0.4,3.4,1,4.6,1.7l2,3.2C59.6,379.7,47,399.8,35,411.5z"/>
	<path class="st10" d="M54.9,97l44.9,5c1.9,0.2,3.3,1.9,3.1,3.7l-6.3,56.1c-0.2,1.8-1.9,3.1-3.8,2.9l-44.9-5
		c-1.9-0.2-3.3-1.9-3.1-3.7L51,99.9C51.2,98.1,53,96.8,54.9,97z"/>
	<path class="st11" d="M25.6,144.6c-1.3-4.4,11-26,13.5-27.5c2.5-1.5,5-4.8,5-4.8s1.9-7.1,1.1-9.4c-0.9-2.3,4.4-3.1,5.3,0.6
		c0.8,3.7-1,9.3-1,9.3s18.1-1.9,21.4-1.2c3.2,0.6,7.6,5.5,6.7,9.9c-0.9,4.4-21.1,12.9-26.5,15.4c-5.3,2.5-10.3,9.3-12.3,10.6
		C36.7,148.6,27.1,149.8,25.6,144.6z"/>
	<path class="st8" d="M94.6,187.3c-5-0.6-27.8-16-29-30.9c-1.2-14.9,15.9-4,17.8-2.3c1.9,1.7,10.9,8.4,12.5,8.5
		c1.5,0.1,2.7-0.1,3.8,0.7c1.1,0.8,6.9,10.2,7.7,12.3c0.9,2.1,14.9,1.3,19.4,2.8c4.4,1.6,9,9.1,8.5,13.4c-0.5,4.3-3.7,10.4-6.7,11.7
		c-3,1.3-27.2-11.9-29.9-15.3C96.7,187.7,94.6,187.3,94.6,187.3z"/>
	<path class="st9" d="M94.6,187.3c-4.4-0.5-22.5-12.5-27.7-25.5c5.4,4.9,15.2,13.2,18.4,12.7c4.5-0.6,3.6-6.3,9.4-8.2
		c2.4,1.8,7.7,10.6,8.2,13.3c1.8,10.6,28.2,17.5,31.8,8.3c0.5,1.4,0.7,2.8,0.6,3.9c-0.5,4.3-3.7,10.4-6.7,11.7
		c-3,1.3-27.2-11.9-29.9-15.3C96.7,187.7,94.6,187.3,94.6,187.3z"/>
	<path class="st12" d="M142.6,125.7c-0.3,3.1,4.6,18.4,3.9,23.4c-0.7,5.1-13.6,24.7-13.4,35.5c-1.6-2.8-4-5.3-6.4-6.2
		c-0.6-3.9-0.4-8.6,1.4-13.3C133.9,149.8,134.7,139.9,142.6,125.7z"/>
	<path class="st9" d="M46.5,133.1c-1.1,3.2-13.3,12.9-16.4,15c-2.1-0.5-4-1.5-4.6-3.6c-1.1-3.6,6.7-18.3,11.1-24.6
		C38.6,123.7,42.1,129.5,46.5,133.1z"/>
	<path class="st4" d="M78.2,48.5c0.6,0.4,0.7,1.1,0.3,1.6c-0.4,0.5-1.2,0.6-1.7,0.3c-0.6-0.4-1.8-0.9-3.1-1.4
		c-1.8-0.7-3.8-1.3-5-1.6c-0.7-0.2-1.1-0.8-0.9-1.4c0.2-0.6,0.8-1,1.5-0.8c1.3,0.3,3.4,1,5.3,1.7C76,47.3,77.4,48,78.2,48.5z"/>
	<path class="st4" d="M87.9,50.5c-0.5,0.4-1.3,0.3-1.7-0.2c-0.4-0.5-0.3-1.2,0.2-1.6c0.8-0.6,3.1-1.5,5.3-2.1c2.1-0.6,4.2-1,5.3-0.9
		c0.7,0.1,1.2,0.7,1.1,1.3c-0.1,0.6-0.7,1.1-1.4,1c-0.8-0.1-2.5,0.3-4.4,0.8C90.4,49.4,88.5,50.1,87.9,50.5z"/>
	<path class="st4" d="M78.7,64.4c0.1-0.6,0.7-1.1,1.3-1c0.7,0.1,1.2,0.6,1.1,1.3l0,0.1c0,0.2,0.1,0.5,0.2,0.8
		c0.2,0.2,0.5,0.5,0.9,0.5l0.2,0c0.7,0.1,1.2,0.6,1.1,1.3c-0.1,0.6-0.6,1.1-1.3,1l-0.2,0c-1.3-0.1-2.2-0.8-2.7-1.5
		c-0.5-0.7-0.7-1.6-0.7-2.2L78.7,64.4z"/>
</g>
<g id="Layer_3">
	<path class="st13" d="M238,72.3c-5.6,2.6-32.5,17.4-36.1,19.5c-11,6.6-14.9,72.4-14.3,85.5c0.6,13.2,4.2,24.8,25.2,24
		c2.8-0.1,5.5-0.3,8.1-0.5H210c-2.8,0-5-2.3-5.2-5.2l-5.2-66.4c-0.2-2.8,2.3-5.2,5.2-5.2h107.4c2.9,0,5.5,2.4,5.2,5.2l-7.7,66.4
		c-0.3,2.8-2.3,5.2-5.2,5.2h-8.2c0.3,0.2,0.6,0.3,0.8,0.5c5.6,4.2,27.3-1.2,30.4-11.3c3.1-10.1-0.2-82.2-5.8-91.1
		c-5.6-8.9-41.8-23.6-44.9-29.4c-0.2-0.3-0.4-0.6-0.8-0.8c-2.9,13.4-9.7,24.5-17.9,24.5C249.5,93.2,242.2,84,238,72.3z"/>
	<path class="st14" d="M238,72.3c-5.6,2.6-32.5,17.4-36.1,19.5c-11,6.6-14.9,72.4-14.3,85.5c0.6,13.2,4.2,24.8,25.2,24
		c2.8-0.1,5.5-0.3,8.2-0.5h-11c-2.8,0-5-2.3-5.2-5.2l-5.2-66.4c-0.2-2.8,2.3-5.2,5.2-5.2h42.6c-4.4-8-21.3-9.2-21.3-17.3
		c0-8.7,16.8-24.1,16.8-24.1C241,79.6,239.4,76,238,72.3z"/>
	<path class="st15" d="M268.2,26.4c0.3,0.2,0.5,0.5,0.8,0.7l0.1,0.1v0l0.1,0.1c0.3,0.3,0.5,0.5,0.8,0.8l0.1,0.1
		c0.3,0.3,0.5,0.6,0.7,0.9l0.2,0.2l0.6,0.8l0.2,0.2l0.6,0.9l0.2,0.3l0.6,1l0.1,0.3l0.5,0.9l0.1,0.3l0.5,1l0.2,0.5l0,0l0.2,0.5
		l0.1,0.2l0.2,0.6l0.3,0.8l0.2,0.5l0.3,0.9l0.2,0.5l0,0.1l0.2,0.6l0,0.1l0.2,1l0,0.1l0.1,0.6l0.2,0.9l0.1,0.3l0.1,0.6l0.1,0.5l0,0.1
		l0.1,0.6l0,0.1l0.1,0.5l0.1,0.6l0.1,0.6l0.1,0.6l0.1,0.6l0.1,1.2l0,0.1l0,0.6l0.1,1.2l0,0.6l0,0.6l0,0.6v0.1l0,1.1v0.1l0,0.6l0,0.6
		l0,0.6l0,1.3l0,0.6l0,0.6l0,0.6l0,0.6l-0.1,0.6l-0.1,0.6c-1.7,16.8-9.4,32.6-19.2,32.6C247,93.4,238,77.7,235.2,61l-0.1-0.6
		l-0.1-0.6l0-0.2l-0.1-1.1l0,0l-0.1-0.6l0-0.1l-0.1-0.5l-0.1-0.6l-0.1-0.6l-0.1-0.6l0-0.6l0-0.6l0-0.1l0-0.2l-0.1-1.2l0-0.4l0-0.6
		l0-0.6l0-0.5l0-1.2l0-0.2V49l0-0.2l0-1.1l0-0.8l0.1-1l0-0.4l0.1-1l0.1-0.7l0.2-1.1l0-0.1l0-0.1l0.2-1.2l0.1-0.4l0.2-1.1l0.1-0.4
		l0.3-1.1l0-0.1l0-0.1c0.1-0.4,0.2-0.8,0.4-1.2l0-0.1c0.1-0.4,0.3-0.8,0.4-1.2l0,0l0,0l0-0.1c0.2-0.4,0.3-0.8,0.5-1.2l0,0
		c0.2-0.4,0.4-0.8,0.6-1.2l0.1-0.2c0.2-0.3,0.3-0.7,0.5-1l0.2-0.3c0.2-0.3,0.4-0.6,0.6-0.9l0.1-0.2c0.2-0.3,0.5-0.7,0.7-1l0.1-0.1
		c0.2-0.3,0.5-0.6,0.8-0.9l0,0l0,0l0,0c0.3-0.3,0.5-0.6,0.8-0.9l0.1-0.1c0.3-0.3,0.6-0.5,0.9-0.8c3.4-2.8,7.9,2.9,13.6,3.1
		C261.2,29.7,265.1,24,268.2,26.4z"/>
	<path class="st16" d="M245.2,85.8c-4.9-6.1-8.5-15.2-10.1-24.5l-0.1-0.6L235,60l0-0.2l-0.1-1.1l0,0l-0.1-0.6l0-0.1l-0.1-0.5
		l-0.1-0.6l-0.1-0.6l-0.1-0.6l0-0.6l0-0.6l0-0.1l0-0.2l-0.1-1.2l0-0.4l0-0.6l0-0.6l0-0.5l0-1.1l0-0.1v-0.1l0-0.2l0-1.1l0-0.7l0.1-1
		l0-0.4l0.1-1l0.1-0.6l0.2-1.1l0-0.1l0-0.1l0.2-1.2l0.1-0.4l0.2-1.1l0.1-0.4l0.3-1.1l0-0.1l0-0.1c0.1-0.4,0.2-0.8,0.4-1.2l0-0.1
		c0.1-0.4,0.3-0.8,0.4-1.2l0,0l0,0l0-0.1c0.2-0.4,0.3-0.8,0.5-1.2l0,0c0.2-0.4,0.4-0.8,0.6-1.2l0.1-0.2c0.2-0.3,0.3-0.6,0.5-1
		l0.2-0.3c0.2-0.3,0.4-0.6,0.6-0.9l0.1-0.2c0.2-0.3,0.5-0.7,0.7-1l0.1-0.1c0.2-0.3,0.5-0.6,0.8-0.9l0,0l0,0l0,0
		c0.3-0.3,0.5-0.6,0.8-0.8l0.1-0.1c0.3-0.3,0.6-0.5,0.8-0.8c3.1-2.6,7.2,2.1,12.3,3c-0.1,0.1-0.2,0.1-0.3,0.1c-3.5,0-7.3,4.8-9.3,7
		C235.8,54.3,245.1,85.5,245.2,85.8z"/>
	<path class="st0" d="M202.3,258.6c0,0,12.2-2.9,39.9-2.9c27.6,0,68.6-14.1,68.6-14.1l-14.8-40.5l-79.1-0.2L202.3,258.6z"/>
	<path class="st17" d="M219.3,367.4c-2.7-15.9-16.6-106.8-19-121.1c-2.3-14.3,0.4-42.8,13.5-45c13-2.2,24.4,5.6,26.7,22.1
		c2.3,16.4,2.1,60.8,0,74.9c-2.1,14.1,0.9,54.5,1.7,60.4c0,6.2-2.4,14-7.5,15.6c-5.2,1.5,0.8-6.8-0.7-7.5
		C232.5,366,222.7,363,219.3,367.4z"/>
	<path class="st0" d="M219.3,367.4c-2.7-15.9-16.6-106.8-19-121.1c-2.3-14.3,0.4-42.8,13.5-45c4.5-0.7,8.7-0.3,12.5,1.2
		c-7.2,7.6-15.6,14-15.6,26.7c0,14.9,19.3,16.8,20.6,26.8c2.9,23-14.7,31.8-12.9,46.4c2.5,19.5,12.2,25.4,12.7,29.9
		c1.3,11.6-4.4,24.1-2.3,33.2C225.4,364.8,221.3,364.9,219.3,367.4z"/>
	<path class="st18" d="M223.7,420.8c5.2,0,18.4-9.1,18.4-14.9c0-5.8-2.7-16.2,0-23.6c2.7-7.4,2.6-19.5,0-23.7c0,6.2-2.4,14-7.5,15.6
		c-5.2,1.5,0.8-6.8-0.7-7.5c-1.5-0.7-11.2-3.7-14.6,0.7c-3.4,4.3,0.7,18.9-2,27c-2.7,8.1-6,13-5,18
		C213.3,417.4,218.1,420.8,223.7,420.8z"/>
	<path class="st19" d="M223.7,420.8c0.3,0,0.6,0,0.9-0.1c-1.7-2.9-5.8-2.6-6.7-9.4c0-4.1,6.6-14.5,8.4-17.2
		c1.8-2.7,6.9-16.8,6.8-19.8v0c-2.1-0.7,2.1-7,0.8-7.6c-1.5-0.7-11.2-3.7-14.6,0.7c-3.4,4.3,0.7,18.9-2,27c-2.7,8.1-6,13-5,18
		C213.3,417.4,218.1,420.8,223.7,420.8z"/>
	<path class="st17" d="M291.3,367.4c2.7-15.9,16.6-106.8,19-121.1c2.3-14.3-0.4-42.8-13.5-45c-13-2.2-24.4,5.6-26.7,22.1
		c-2.3,16.4-2.1,60.8,0,74.9c2.1,14.1-0.9,54.5-1.7,60.4c0,6.2,2.4,14,7.5,15.6c5.2,1.5-0.8-6.8,0.7-7.5
		C278.1,366,287.9,363,291.3,367.4z"/>
	<path class="st0" d="M295.9,201.1c-12.7-1.7-23.6,6.1-25.9,22.2c-2.3,16.4-2.1,60.8,0,74.9c2.1,14.1-0.9,54.5-1.7,60.4
		c0,6.2,2.4,14,7.5,15.6c5.2,1.5-0.8-6.8,0.7-7.5c-1-4.6-0.2-5.6,5.8-12.5c14.8-17.1-10.1-33.2-4.1-52.8
		c1.7-5.7,13.7-25.5,14.3-31.7c0.6-6.2-0.6-13.4-3-18c-2.4-4.6-11.3-15.1-11.3-23.8C277.4,215.5,295.8,201.2,295.9,201.1z"/>
	<path class="st18" d="M286.8,420.8c-5.2,0-18.4-9.1-18.4-14.9c0-5.8,2.7-16.2,0-23.6c-2.7-7.4-2.6-19.5,0-23.7
		c0,6.2,2.4,14,7.5,15.6c5.2,1.5-0.8-6.8,0.7-7.5c1.5-0.7,11.2-3.7,14.6,0.7c3.4,4.3-0.7,18.9,2,27c2.7,8.1,6,13,5,18
		C297.3,417.4,292.5,420.8,286.8,420.8z"/>
	<path class="st19" d="M286.8,420.8c-5.2,0-18.4-9.1-18.4-14.9c0-5.8,2.7-16.2,0-23.6c-2.5-6.8-2.6-17.8-0.5-22.7l0.6,0.4
		c0.3,5.9,2.7,12.7,7.5,14.1c-5.1,6.8,0.2,24.8,2.8,30.5c3.4,8.8,14,14.8,14,14.8C291,420.3,289,420.8,286.8,420.8z"/>
	<path class="st20" d="M204.8,124h107.4c2.9,0,5.5,2.4,5.2,5.2l-7.7,66.4c-0.3,2.8-2.3,5.2-5.2,5.2H210c-2.8,0-5-2.3-5.2-5.2
		l-5.2-66.4C199.4,126.4,201.9,124,204.8,124z"/>
	<path class="st21" d="M228.1,34.9c0,8.6,4.6,23,7,26.4l0,0c-2.3-13.3-0.5-27.3,7.5-34.1c3.4-2.9,7.8,2.8,13.6,3
		c4.8,0.2,8.8-5.6,11.8-3c8.1,6.8,10.5,20.7,9.1,33.9h0c0,0,4.3-10.1,5.2-16.4c0.9-6.4,1.4-20.4-5.9-28.3
		c-7.3-7.9-18.9-7.5-21.8-7.5C240.6,8.7,228.1,19.4,228.1,34.9z"/>
	<path class="st22" d="M228.1,34.9c0,8.6,4.6,23,7,26.4l0,0c-2.3-13.3-0.5-27.3,7.5-34.1c3-2.6,6.9,1.8,11.8,2.8
		c0-13.1-4.2-6.3-7.9-13.1c-0.7-1.3-0.8-4.4,0-6.9C236.1,13.1,228.1,22.4,228.1,34.9z"/>
	<path class="st22" d="M271,28.4c5.9,7.4,7.6,19.4,6.4,31h0c0,0,3.2-7.4,4.7-13.5c-1-10.6-8.7-26.8-8.4-23.2
		C273.8,24.5,272.6,26.5,271,28.4z"/>
	<circle class="st13" cx="246.4" cy="59" r="5.9"/>
	<circle class="st13" cx="266.9" cy="59" r="5.9"/>
	<path class="st13" d="M258.5,159.2c4,0,7.3,2.5,7.3,5.6c0,3.1-3.3,5.6-7.3,5.6c-4,0-7.3-2.5-7.3-5.6
		C251.2,161.7,254.5,159.2,258.5,159.2z"/>
</g>
</svg>
