<?xml version="1.0" encoding="utf-8"?>
<!-- Generator: Adobe Illustrator 21.0.0, SVG Export Plug-In . SVG Version: 6.00 Build 0)  -->
<svg version="1.1" id="Layer_1" xmlns="http://www.w3.org/2000/svg" xmlns:xlink="http://www.w3.org/1999/xlink" x="0px" y="0px"
	 viewBox="0 0 361 259" style="enable-background:new 0 0 361 259;" xml:space="preserve">
<style type="text/css">
	.st0{fill:#F1F8FD;}
	.st1{fill:#CFDDEF;}
	.st2{fill:#0C2752;}
	.st3{fill:#DFE9F4;}
	.st4{fill:#CFDEEF;}
	.st5{fill:#E4EBF3;}
	.st6{fill:#C9DAED;}
	.st7{fill:url(#Shape-65_1_);}
	.st8{fill:url(#Shape-66_1_);}
	.st9{fill:url(#Shape-67_1_);}
	.st10{fill:url(#Shape-68_1_);}
	.st11{fill:url(#Shape-69_1_);}
	.st12{fill:#54DAA1;}
	.st13{fill:#8490A7;}
</style>
<g id="computer">
	<path id="Shape-58" class="st0" d="M164.4,3.3c18.4-6.9,38.7,0.9,48.4,17.4c7.6,12.9,19.8,20.8,34.8,22.3
		c41.3,4.3,75.2,25.2,87.7,58.5c5.2,13.8,6.2,28.3,3.6,42.8c-1.7,9.6-0.6,18.4,3.5,27.3c0.6,1.2,1.1,2.4,1.5,3.6
		c9.8,26.2-3.2,55.2-29.1,64.8c-10.7,4-22,4-32.2,0.9c-11-3.4-21.5-2.9-32.1,1.7c-3.1,1.4-6.3,2.6-9.5,3.8
		c-70.9,26.4-144.2,6.1-165.5-45.4C71,190.1,63.6,182.3,53,177.2c-20.6-9.9-37.7-27.5-46.4-50.7C-11,79.6,12.6,27.1,59.3,9.7
		c20.5-7.7,42.2-7.3,61.4-0.4c13,4.6,26,3.5,38-3.3C160.5,5,162.4,4.1,164.4,3.3z"/>
	<path id="Shape-59" class="st1" d="M74.5,17.6h206.6c3.7,0,6.8,3.1,6.8,6.8v121.7V166c0,3.7-3.1,6.8-6.8,6.8H74.5
		c-3.7,0-6.8-3.1-6.8-6.8v-19.8V24.4C67.7,20.7,70.8,17.6,74.5,17.6z"/>
	<path id="Shape-60" class="st2" d="M78.6,18h206.6c3.7,0,6.8,3.1,6.8,6.8v121.8H71.8V24.8C71.8,21,74.9,18,78.6,18z"/>
	<path id="Shape-61" class="st3" d="M78.6,173.1h206.6c3.7,0,6.8-3.1,6.8-6.8v-19.7H71.8v19.7C71.8,170.1,74.9,173.1,78.6,173.1z"/>
	<path id="Ellipse-3" class="st2" d="M182,155.5c2.5,0,4.5,2,4.5,4.5s-2,4.5-4.5,4.5s-4.5-2-4.5-4.5S179.5,155.5,182,155.5z"/>
	<path id="Shape-62" class="st4" d="M155,173.1h50v29.7h6.9v4.7H205h-38.2c-6.5,0-11.8-5.3-11.8-11.9V173.1z"/>
	<path id="Shape-63" class="st5" d="M160.4,173.1h46.4v29.6h-36.1c-5.6,0-10.3-4.6-10.3-10.2L160.4,173.1L160.4,173.1z"/>
	<path id="Shape-64" class="st6" d="M160.4,173.1h46.4v16.7l-46.4-7V173.1z"/>
	
		<linearGradient id="Shape-65_1_" gradientUnits="userSpaceOnUse" x1="159.6856" y1="68.7259" x2="168.6534" y2="68.7259" gradientTransform="matrix(1 0 0 -1 0 260)">
		<stop  offset="0" style="stop-color:#2B9972"/>
		<stop  offset="1" style="stop-color:#15D98E"/>
	</linearGradient>
	<path id="Shape-65" class="st7" d="M160,196.7c0,0,5.5-4.2,5.5-9.2c0.1-5.1-5.5-2.6-5.5-2.6v-4.1c0,0,9.1-0.9,8.5,6.7
		s-8.9,14.2-8.9,14.2l0,0c0.3-0.8,0.4-1.7,0.4-2.6V196.7z"/>
	
		<linearGradient id="Shape-66_1_" gradientUnits="userSpaceOnUse" x1="133.161" y1="67.3" x2="160.425" y2="67.3" gradientTransform="matrix(1 0 0 -1 0 260)">
		<stop  offset="0" style="stop-color:#15D98E"/>
		<stop  offset="1" style="stop-color:#2B9972"/>
	</linearGradient>
	<path id="Shape-66" class="st8" d="M134.9,177.9h23.8c0.9,0,1.7,0.8,1.7,1.7V199c0,4.7-3.8,8.5-8.6,8.5h-10.2
		c-4.7,0-8.6-3.8-8.6-8.5v-19.4C133.2,178.7,133.9,177.9,134.9,177.9z"/>
	
		<linearGradient id="Shape-67_1_" gradientUnits="userSpaceOnUse" x1="317.3" y1="66.95" x2="351.2176" y2="66.95" gradientTransform="matrix(1 0 0 -1 0 260)">
		<stop  offset="0" style="stop-color:#D8F0FD"/>
		<stop  offset="1" style="stop-color:#B2CAE0"/>
	</linearGradient>
	<path id="Shape-67" class="st9" d="M342.3,207.5h-16c-0.5,0-0.8-0.3-1-0.7l-7.9-26c-0.2-0.5-0.1-1.1,0.3-1.5
		c0.3-0.4,0.8-0.7,1.4-0.7h30.5c0.6,0,1,0.2,1.4,0.7c0.3,0.4,0.4,1,0.3,1.5l-7.9,26C343.1,207.2,342.7,207.5,342.3,207.5z"/>
	
		<linearGradient id="Shape-68_1_" gradientUnits="userSpaceOnUse" x1="317.552" y1="110.7509" x2="339.9537" y2="110.7509" gradientTransform="matrix(1 0 0 -1 0 260)">
		<stop  offset="0" style="stop-color:#1ACE91"/>
		<stop  offset="1" style="stop-color:#0D915A"/>
	</linearGradient>
	<path id="Shape-68" class="st10" d="M326.4,178.6c-4.8,0-8.8-3.8-8.9-8.6c0-0.1,0-0.1,0-0.2c0-6.3,4.4-11.1,4.4-14.1
		s-3.4-7.7-3.4-10.1c-0.1-7.2,7-5.4,6.6-10.1c-0.3-3.3-1.4-11-1-12.1c1.9-4.6,7.3-4.6,8.8-0.4c2.7,8,1.2,9.1,1.2,16.1
		c0,3.1,4.4,6.9,4.4,11.3c0,4.4-2.3,5.2-2.3,7.9s2.8,4.7,3.7,10.2c0.8,5.3-3.4,10.1-8.8,10.1L326.4,178.6L326.4,178.6z"/>
	
		<linearGradient id="Shape-69_1_" gradientUnits="userSpaceOnUse" x1="331.174" y1="96.45" x2="350.4123" y2="96.45" gradientTransform="matrix(1 0 0 -1 0 260)">
		<stop  offset="0" style="stop-color:#22E3A3"/>
		<stop  offset="1" style="stop-color:#0CAF6D"/>
	</linearGradient>
	<path id="Shape-69" class="st11" d="M346.8,148.6c-2,0-2.2,3-2.4,4.8c-0.2,1.8-5.8,3.7-5.7,6.3c0,2.1-0.5,4.9-1.4,6.3
		c-1.3,2.1-3.3,2.6-5.2,5.1c-0.4,0.5-0.7,1.2-0.8,1.8c-0.6,2.9,1.9,5.6,4.9,5.6h3.6c2.5,0,4.6-1.9,4.9-4.4c0.1-1.1,0.3-2.3,0.6-3.4
		c1-3.2,4.1-5.6,5-8.1c0.7-2.1-0.8-6.4-1.2-8.1C348.2,151.7,349.2,148.6,346.8,148.6z"/>
	<path id="Shape-70" class="st12" d="M343.3,166.1c1-0.6,2.7-1.5,3.5-1.5c0.1,0,0.2,0.1,0.2,0.2c0,0.1-0.1,0.2-0.2,0.2
		c-1,0-3.9,1.8-4.2,1.9c-0.3,0.4-0.6,0.7-0.9,1c-1.1,1.1-2.2,3.2-2.8,5.4c-0.5,1.9-0.6,3.8,0,4.9c0.1,0.1,0,0.2-0.1,0.3
		s-0.2,0-0.3-0.1c-0.7-1.2-0.6-3.2-0.1-5.2c0-0.2,0.1-0.3,0.1-0.5c-0.6-3.9-1.6-3.7-1.6-3.7c-0.1,0-0.2,0-0.3-0.2s0-0.2,0.2-0.3
		c0,0,1.3-0.3,1.9,3.3c0.6-1.8,1.6-3.4,2.5-4.3c1.1-1.1,2.6-3.4,3.7-5.7c0.2-0.5,0.4-0.9,0.6-1.4c-0.4-1.2-1.3-2.4-1.8-3.2l-0.3-0.5
		c-0.1-0.1,0-0.2,0.1-0.3s0.2,0,0.3,0.1l0.3,0.4c0.5,0.7,1.2,1.7,1.7,2.8c0.4-1.2,0.7-2.4,0.5-3.1c0-0.1,0.1-0.2,0.2-0.2
		s0.2,0.1,0.2,0.2c0.2,1.3-0.4,3.3-1.4,5.4C344.9,163.5,344.1,164.9,343.3,166.1z M332.7,154.3c-1.1,0-2.5,1.7-3.6,2.9
		c-0.3,0.4-0.6,0.7-0.9,1v0.1c-0.5,1.9-0.9,3.6-1.3,5.2c-1.4,6.4,1.5,14.8,1.5,14.8c0,0.1,0,0.2-0.1,0.3c-0.1,0-0.2,0-0.3-0.1
		c0,0-2-5.9-1.9-11.5c-0.6-2.1-3-3.9-3-3.9c-0.1-0.1-0.1-0.2,0-0.3s0.2-0.1,0.3,0c0,0,1.9,1.4,2.8,3.2c0.1-0.8,0.2-1.6,0.3-2.4
		c0.3-1.6,0.8-3.3,1.3-5.2c1.2-4.6,2.5-9.9,3-14.9c-0.1-1.4-4.6-5.2-4.6-5.3c-0.1-0.1-0.1-0.2,0-0.3s0.2-0.1,0.3,0
		c0,0,3.3,2.8,4.4,4.6c0.3-4.6-0.2-9-2.5-12.4c-0.1-0.1,0-0.2,0.1-0.3s0.2,0,0.3,0.1c2.5,3.7,2.9,8.5,2.5,13.5l0,0l0,0
		c-0.4,4.8-1.6,9.7-2.7,14.1c0.1-0.1,0.2-0.2,0.3-0.4c1.1-1.3,2.7-3.1,3.9-3.1c0.1,0,0.2,0.1,0.2,0.2
		C332.9,154.2,332.9,154.3,332.7,154.3z"/>
	<path id="Shape-71" class="st13" d="M31.9,207.4h326.7c1,0,1.8,0.8,1.8,1.7l0,0c0,0.9-0.8,1.7-1.8,1.7H31.9c-1,0-1.8-0.8-1.8-1.7
		l0,0C30.1,208.2,30.9,207.4,31.9,207.4z"/>
</g>
</svg>
