<?xml version="1.0" encoding="utf-8"?>
<!-- Generator: Adobe Illustrator 21.0.0, SVG Export Plug-In . SVG Version: 6.00 Build 0)  -->
<svg version="1.1" id="Layer_1" xmlns="http://www.w3.org/2000/svg" xmlns:xlink="http://www.w3.org/1999/xlink" x="0px" y="0px"
	 viewBox="0 0 52 52" style="enable-background:new 0 0 52 52;" xml:space="preserve">
<style type="text/css">
	.st0{fill:#8CB5F3;}
</style>
<path id="searchIcon" class="st0" d="M35.8,35.6c-0.6,0.6-1.6,0.6-2.2,0L28.9,31c-1.6,1.1-3.4,1.6-5.2,1.6c-2.4,0-4.7-0.9-6.5-2.7v0
	c-1.8-1.8-2.7-4.1-2.7-6.5c0-2.3,0.9-4.7,2.7-6.5c1.8-1.8,4.1-2.7,6.5-2.7c2.3,0,4.7,0.9,6.5,2.7h0c1.8,1.8,2.7,4.1,2.7,6.5
	c0,1.9-0.6,3.7-1.7,5.3l4.6,4.6C36.4,34,36.4,35,35.8,35.6z M27.9,19.2c-1.2-1.2-2.7-1.8-4.3-1.8c-1.5,0-3.1,0.6-4.3,1.8
	c-1.2,1.2-1.8,2.7-1.8,4.2c0,1.5,0.6,3.1,1.8,4.2c1.2,1.2,2.7,1.8,4.3,1.8c1.5,0,3.1-0.6,4.3-1.8c1.2-1.2,1.8-2.7,1.8-4.2
	C29.7,21.9,29.1,20.4,27.9,19.2z"/>
</svg>
