<?xml version="1.0" encoding="utf-8"?>
<!-- Generator: Adobe Illustrator 21.0.0, SVG Export Plug-In . SVG Version: 6.00 Build 0)  -->
<svg version="1.1" id="Layer_1" xmlns="http://www.w3.org/2000/svg" xmlns:xlink="http://www.w3.org/1999/xlink" x="0px" y="0px"
	 viewBox="0 0 850 600" style="enable-background:new 0 0 850 600;" xml:space="preserve">
<style type="text/css">
	.st0{fill:#8CB5F3;}
	.st1{fill:#FFFFFF;}
	.st2{fill:#F053A0;}
	.st3{fill:#08238A;}
	.st4{fill:#021E72;}
	.st5{fill:#010E42;}
	.st6{fill:#082487;}
	.st7{fill:#B10E79;}
	.st8{fill:#002081;}
	.st9{fill:#AF0D7A;}
	.st10{fill:#061C71;}
	.st11{fill:#000E3F;}
</style>
<path class="st0" d="M850,0H0v181.7c85.9,145.2,244.1,242.6,425,242.6s339.1-97.4,425-242.6V0z"/>
<g id="Layer_3">
	<path class="st1" d="M420.2,300.5c-3.8,1.8-22.2,11.9-24.7,13.3c-7.5,4.5-10.2,49.5-9.8,58.5c0.4,9,2.9,17,17.2,16.4
		c1.9-0.1,3.8-0.2,5.5-0.3H401c-1.9,0-3.4-1.6-3.6-3.6l-3.6-45.4c-0.1-1.9,1.6-3.6,3.6-3.6H471c2,0,3.8,1.6,3.6,3.6l-5.3,45.4
		c-0.2,1.9-1.6,3.6-3.6,3.6h-5.6c0.2,0.1,0.4,0.2,0.5,0.3c3.8,2.9,18.7-0.8,20.8-7.7c2.1-6.9-0.1-56.2-4-62.3
		c-3.8-6.1-28.6-16.1-30.7-20.1c-0.1-0.2-0.3-0.4-0.5-0.5c-2,9.2-6.6,16.8-12.2,16.8C428.1,314.8,423.1,308.5,420.2,300.5z"/>
	<path class="st2" d="M420.2,300.5c-3.8,1.8-22.2,11.9-24.7,13.3c-7.5,4.5-10.2,49.5-9.8,58.5c0.4,9,2.9,17,17.2,16.4
		c1.9-0.1,3.8-0.2,5.6-0.3H401c-1.9,0-3.4-1.6-3.6-3.6l-3.6-45.4c-0.1-1.9,1.6-3.6,3.6-3.6h29.2c-3-5.5-14.6-6.3-14.6-11.8
		c0-6,11.5-16.5,11.5-16.5C422.3,305.5,421.2,303,420.2,300.5z"/>
	<path class="st3" d="M440.9,269.1c0.2,0.1,0.3,0.3,0.5,0.5l0.1,0.1l0,0l0.1,0.1c0.2,0.2,0.3,0.3,0.5,0.5l0.1,0.1
		c0.2,0.2,0.3,0.4,0.5,0.6l0.1,0.1l0.4,0.5l0.1,0.1l0.4,0.6l0.1,0.2l0.4,0.7l0.1,0.2l0.3,0.6l0.1,0.2l0.3,0.7l0.1,0.3l0,0l0.1,0.3
		l0.1,0.1l0.1,0.4l0.2,0.5l0.1,0.3l0.2,0.6l0.1,0.3v0.1l0.1,0.4v0.1l0.1,0.7v0.1l0.1,0.4l0.1,0.6l0.1,0.2l0.1,0.4l0.1,0.3v0.1
		l0.1,0.4v0.1l0.1,0.3l0.1,0.4l0.1,0.4l0.1,0.4l0.1,0.4l0.1,0.8v0.1v0.4l0.1,0.8v0.4v0.4v0.4v0.1v0.8v0.1v0.4v0.4v0.4v0.9v0.4v0.4
		v0.4v0.4l-0.1,0.4l-0.1,0.4c-1.2,11.5-6.4,22.3-13.1,22.3c-7.9-0.1-14-10.8-15.9-22.2l-0.1-0.4l-0.1-0.4v-0.1l-0.1-0.8l0,0
		l-0.1-0.4v-0.1l-0.1-0.3l-0.1-0.4l-0.1-0.4l-0.1-0.4v-0.4v-0.4v-0.1V288l-0.1-0.8v-0.3v-0.4v-0.4v-0.3v-0.8v-0.1v-0.2v-0.1v-0.8
		v-0.5l0.1-0.7v-0.3l0.1-0.7l0.1-0.5l0.1-0.8v-0.1v-0.1l0.1-0.8l0.1-0.3l0.1-0.8l0.1-0.3l0.2-0.8v-0.1v-0.1c0.1-0.3,0.1-0.5,0.3-0.8
		v-0.1c0.1-0.3,0.2-0.5,0.3-0.8l0,0l0,0v-0.1c0.1-0.3,0.2-0.5,0.3-0.8l0,0c0.1-0.3,0.3-0.5,0.4-0.8l0.1-0.1c0.1-0.2,0.2-0.5,0.3-0.7
		l0.1-0.2c0.1-0.2,0.3-0.4,0.4-0.6l0.1-0.1c0.1-0.2,0.3-0.5,0.5-0.7l0.1-0.1c0.1-0.2,0.3-0.4,0.5-0.6l0,0l0,0l0,0
		c0.2-0.2,0.3-0.4,0.5-0.6l0.1-0.1c0.2-0.2,0.4-0.3,0.6-0.5c2.3-1.9,5.4,2,9.3,2.1C436.1,271.4,438.8,267.5,440.9,269.1z"/>
	<path class="st4" d="M425.1,309.7c-3.4-4.2-5.8-10.4-6.9-16.8l-0.1-0.4v-0.5V292l-0.1-0.8l0,0l-0.1-0.4v-0.1l-0.1-0.3l-0.1-0.4
		l-0.1-0.4l-0.1-0.4v-0.4v-0.4v-0.1v-0.1l-0.1-0.8V287v-0.4v-0.4v-0.3v-0.8V285V285v-0.1v-0.8v-0.5l0.1-0.7v-0.3l0.1-0.7l0.1-0.4
		l0.1-0.8v-0.1v-0.1l0.1-0.8l0.1-0.3l0.1-0.8l0.1-0.3l0.2-0.8v-0.1v-0.1c0.1-0.3,0.1-0.5,0.3-0.8v-0.1c0.1-0.3,0.2-0.5,0.3-0.8l0,0
		l0,0v-0.1c0.1-0.3,0.2-0.5,0.3-0.8l0,0c0.1-0.3,0.3-0.5,0.4-0.8l0.1-0.1c0.1-0.2,0.2-0.4,0.3-0.7l0.1-0.2c0.1-0.2,0.3-0.4,0.4-0.6
		l0.1-0.1c0.1-0.2,0.3-0.5,0.5-0.7l0.1-0.1c0.1-0.2,0.3-0.4,0.5-0.6l0,0l0,0l0,0c0.2-0.2,0.3-0.4,0.5-0.5l0.1-0.1
		c0.2-0.2,0.4-0.3,0.5-0.5c2.1-1.8,4.9,1.4,8.4,2.1c-0.1,0.1-0.1,0.1-0.2,0.1c-2.4,0-5,3.3-6.4,4.8
		C418.7,288.2,425.1,309.5,425.1,309.7z"/>
	<path class="st5" d="M395.8,428c0,0,8.3-2,27.3-2c18.9,0,46.9-9.6,46.9-9.6l-10.1-27.7l-54.1-0.1L395.8,428z"/>
	<path class="st6" d="M407.4,502.4c-1.8-10.9-11.4-73.1-13-82.9c-1.6-9.8,0.3-29.3,9.2-30.8c8.9-1.5,16.7,3.8,18.3,15.1
		c1.6,11.2,1.4,41.6,0,51.3c-1.4,9.6,0.6,37.3,1.2,41.3c0,4.2-1.6,9.6-5.1,10.7c-3.6,1,0.5-4.7-0.5-5.1
		C416.4,501.5,409.7,499.4,407.4,502.4z"/>
	<path class="st5" d="M407.4,502.4c-1.8-10.9-11.4-73.1-13-82.9c-1.6-9.8,0.3-29.3,9.2-30.8c3.1-0.5,6-0.2,8.6,0.8
		c-4.9,5.2-10.7,9.6-10.7,18.3c0,10.2,13.2,11.5,14.1,18.3c2,15.7-10.1,21.8-8.8,31.8c1.7,13.3,8.3,17.4,8.7,20.5
		c0.9,7.9-3,16.5-1.6,22.7C411.6,500.7,408.8,500.7,407.4,502.4z"/>
	<path class="st7" d="M410.4,539c3.6,0,12.6-6.2,12.6-10.2s-1.8-11.1,0-16.1c1.8-5.1,1.8-13.3,0-16.2c0,4.2-1.6,9.6-5.1,10.7
		c-3.6,1,0.5-4.7-0.5-5.1c-1-0.5-7.7-2.5-10,0.5c-2.3,2.9,0.5,12.9-1.4,18.5c-1.8,5.5-4.1,8.9-3.4,12.3
		C403.3,536.6,406.6,539,410.4,539z"/>
	<path class="st8" d="M410.4,539c0.2,0,0.4,0,0.6-0.1c-1.2-2-4-1.8-4.6-6.4c0-2.8,4.5-9.9,5.7-11.8c1.2-1.8,4.7-11.5,4.7-13.5l0,0
		c-1.4-0.5,1.4-4.8,0.5-5.2c-1-0.5-7.7-2.5-10,0.5c-2.3,2.9,0.5,12.9-1.4,18.5c-1.8,5.5-4.1,8.9-3.4,12.3
		C403.3,536.6,406.6,539,410.4,539z"/>
	<path class="st6" d="M456.7,502.4c1.8-10.9,11.4-73.1,13-82.9c1.6-9.8-0.3-29.3-9.2-30.8c-8.9-1.5-16.7,3.8-18.3,15.1
		c-1.6,11.2-1.4,41.6,0,51.3c1.4,9.6-0.6,37.3-1.2,41.3c0,4.2,1.6,9.6,5.1,10.7c3.6,1-0.5-4.7,0.5-5.1
		C447.6,501.5,454.4,499.4,456.7,502.4z"/>
	<path class="st5" d="M459.8,388.6c-8.7-1.2-16.1,4.2-17.7,15.2c-1.6,11.2-1.4,41.6,0,51.3c1.4,9.6-0.6,37.3-1.2,41.3
		c0,4.2,1.6,9.6,5.1,10.7c3.6,1-0.5-4.7,0.5-5.1c-0.7-3.1-0.1-3.8,4-8.6c10.1-11.7-6.9-22.7-2.8-36.1c1.2-3.9,9.4-17.4,9.8-21.7
		s-0.4-9.2-2.1-12.3c-1.6-3.1-7.7-10.3-7.7-16.3C447.2,398.5,459.8,388.7,459.8,388.6z"/>
	<path class="st7" d="M453.6,539c-3.6,0-12.6-6.2-12.6-10.2s1.8-11.1,0-16.1s-1.8-13.3,0-16.2c0,4.2,1.6,9.6,5.1,10.7
		c3.6,1-0.5-4.7,0.5-5.1c1-0.5,7.7-2.5,10,0.5c2.3,2.9-0.5,12.9,1.4,18.5c1.8,5.5,4.1,8.9,3.4,12.3C460.8,536.6,457.5,539,453.6,539
		z"/>
	<path class="st8" d="M453.6,539c-3.6,0-12.6-6.2-12.6-10.2s1.8-11.1,0-16.1c-1.7-4.7-1.8-12.2-0.3-15.5l0.4,0.3
		c0.2,4,1.8,8.7,5.1,9.6c-3.5,4.7,0.1,17,1.9,20.9c2.3,6,9.6,10.1,9.6,10.1C456.5,538.6,455.1,539,453.6,539z"/>
	<path class="st9" d="M397.5,335.9H471c2,0,3.8,1.6,3.6,3.6l-5.3,45.4c-0.2,1.9-1.6,3.6-3.6,3.6H401c-1.9,0-3.4-1.6-3.6-3.6
		l-3.6-45.4C393.8,337.5,395.5,335.9,397.5,335.9z"/>
	<path class="st10" d="M413.4,274.9c0,5.9,3.1,15.7,4.8,18.1l0,0c-1.6-9.1-0.3-18.7,5.1-23.3c2.3-2,5.3,1.9,9.3,2.1
		c3.3,0.1,6-3.8,8.1-2.1c5.5,4.7,7.2,14.2,6.2,23.2l0,0c0,0,2.9-6.9,3.6-11.2c0.6-4.4,1-14-4-19.4s-12.9-5.1-14.9-5.1
		C422,257,413.4,264.3,413.4,274.9z"/>
	<path class="st11" d="M413.4,274.9c0,5.9,3.1,15.7,4.8,18.1l0,0c-1.6-9.1-0.3-18.7,5.1-23.3c2.1-1.8,4.7,1.2,8.1,1.9
		c0-9-2.9-4.3-5.4-9c-0.5-0.9-0.5-3,0-4.7C418.9,260,413.4,266.4,413.4,274.9z"/>
	<path class="st11" d="M442.8,270.5c4,5.1,5.2,13.3,4.4,21.2l0,0c0,0,2.2-5.1,3.2-9.2c-0.7-7.3-6-18.3-5.7-15.9
		C444.7,267.8,443.9,269.2,442.8,270.5z"/>
	<circle class="st1" cx="426" cy="291.4" r="4"/>
	<circle class="st1" cx="440" cy="291.4" r="4"/>
	<path class="st1" d="M434.2,360c2.7,0,5,1.7,5,3.8c0,2.1-2.3,3.8-5,3.8c-2.7,0-5-1.7-5-3.8C429.2,361.7,431.5,360,434.2,360z"/>
</g>
</svg>
