<?xml version="1.0" encoding="utf-8"?>
<!-- Generator: Adobe Illustrator 21.0.0, SVG Export Plug-In . SVG Version: 6.00 Build 0)  -->
<svg version="1.1" id="Layer_1" xmlns="http://www.w3.org/2000/svg" xmlns:xlink="http://www.w3.org/1999/xlink" x="0px" y="0px"
	 viewBox="0 0 122 80" style="enable-background:new 0 0 122 80;" xml:space="preserve">
<style type="text/css">
	.st0{fill:#FFFFFF;}
</style>
<path id="logoLogo" class="st0" d="M28.6,33.3L11.2,19.8c-0.3-0.2-0.6-0.2-0.9-0.1c-0.3,0.1-0.5,0.4-0.5,0.7v2.4l16.8,13.1
	c1.5,1.2,1.5,3.5,0,4.7c-1.1,0.8-2.6,0.9-3.7,0L2.2,24.4c-0.3-0.2-0.6-0.2-0.9-0.1S0.8,24.7,0.8,25v31.3c0,1.6,0.9,3,2.3,3.7
	c1.4,0.7,3,0.5,4.3-0.5L28.6,43C31.7,40.5,31.7,35.8,28.6,33.3z"/>
</svg>
