<?xml version="1.0" encoding="utf-8"?>
<!-- Generator: Adobe Illustrator 21.0.0, SVG Export Plug-In . SVG Version: 6.00 Build 0)  -->
<svg version="1.1" id="Layer_1" xmlns="http://www.w3.org/2000/svg" xmlns:xlink="http://www.w3.org/1999/xlink" x="0px" y="0px"
	 viewBox="0 0 122 80" style="enable-background:new 0 0 122 80;" xml:space="preserve">
<style type="text/css">
	.st0{fill:#FFFFFF;}
</style>
<g id="Logo">
	<path id="logoLogo" class="st0" d="M18.5,35.6l-11.6-9c-0.2-0.1-0.4-0.2-0.6-0.1C6.1,26.6,6,26.8,6,27v1.6l11.2,8.7
		c0.7,0.6,1,1.7,0.5,2.5c-0.7,1.1-2,1.3-3,0.6L0.9,29.6c-0.2-0.1-0.4-0.2-0.6-0.1S0,29.8,0,30v20.8c0,0.7,0.4,1.7,1,2.1
		c1,0.9,2.4,0.9,3.4,0.1l14.1-11C20.6,40.4,20.6,37.2,18.5,35.6z"/>
</g>
</svg>
