<?xml version="1.0" encoding="utf-8"?>
<!-- Generator: Adobe Illustrator 21.0.0, SVG Export Plug-In . SVG Version: 6.00 Build 0)  -->
<svg version="1.1" id="Layer_1" xmlns="http://www.w3.org/2000/svg" xmlns:xlink="http://www.w3.org/1999/xlink" x="0px" y="0px"
	 viewBox="0 0 131 80" style="enable-background:new 0 0 131 80;" xml:space="preserve">
<style type="text/css">
	.st0{fill:#8CB5F3;}
	.st1{fill:#78869F;}
</style>
<path class="st0" d="M16.3,36.1l-10.2-8c-0.2-0.1-0.4-0.1-0.5,0c-0.2,0.1-0.3,0.2-0.3,0.4v1.4l9.9,7.7c0.9,0.7,0.9,2.1,0,2.8
	c-0.6,0.5-1.5,0.5-2.1,0L0.8,30.8c-0.1-0.1-0.3-0.1-0.5-0.1C0.1,30.8,0,31,0,31.2v18.4c0,0.9,0.5,1.7,1.3,2.2
	c0.8,0.4,1.8,0.3,2.5-0.3l12.4-9.7C18.1,40.3,18.1,37.5,16.3,36.1z"/>
<rect x="85.2" y="30.2" class="st1" width="2.2" height="14.8"/>
<path class="st1" d="M116.2,45.5v-11H114c0,3.6,0,7.3,0,10.9c0,0.9-0.7,1.7-1.7,1.7h-1.1v2.2h1.1C114.4,49.3,116.2,47.6,116.2,45.5z
	"/>
<rect x="114" y="30.7" class="st1" width="2.2" height="2.2"/>
<path class="st1" d="M33.2,45H31V34.2h1.8c0,1.3,0,1.6,0,2.4c0-2.6,8.2-4.7,8.2,1.2V45h-2.2v-7.2c0-2.6-5.3-3-5.6,0.8V45z"/>
<path class="st1" d="M71.4,45.7c-3.2,0-5.7-2.6-5.7-5.7c0-3.2,2.6-5.7,5.7-5.7c3.2,0,5.7,2.6,5.7,5.7C77.1,43.2,74.5,45.7,71.4,45.7
	L71.4,45.7z M71.4,43.7c2,0,3.7-1.7,3.7-3.7s-1.7-3.7-3.7-3.7S67.7,38,67.7,40C67.7,42,69.3,43.7,71.4,43.7z"/>
<path class="st1" d="M53.8,45.7c-2.8,0-5.7-2.6-5.7-5.7c0-3.2,2.6-5.7,5.7-5.7c3.5,0,6.2,3.2,5.6,6.6h-9.2c0.4,1.6,2.1,2.8,3.6,2.8
	s2.4-0.6,3.1-1.6h2.3C58.3,44.2,56.6,45.7,53.8,45.7L53.8,45.7z M50.2,39.1h7.2c-0.4-1.6-1.9-2.8-3.6-2.8
	C52,36.3,50.6,37.5,50.2,39.1z"/>
<path class="st1" d="M100,45.7c-2.8,0-5.7-2.6-5.7-5.7c0-3.2,2.6-5.7,5.7-5.7c3.5,0,6.2,3.2,5.6,6.6h-9.2c0.4,1.6,2.1,2.8,3.6,2.8
	s2.4-0.6,3.1-1.6h2.3C104.5,44.2,102.8,45.7,100,45.7L100,45.7z M96.4,39.1h7.2c-0.4-1.6-1.9-2.8-3.6-2.8
	C98.2,36.3,96.8,37.5,96.4,39.1z"/>
</svg>
