<?xml version="1.0" encoding="utf-8"?>
<!-- Generator: Adobe Illustrator 21.0.0, SVG Export Plug-In . SVG Version: 6.00 Build 0)  -->
<svg version="1.1" id="Layer_1" xmlns="http://www.w3.org/2000/svg" xmlns:xlink="http://www.w3.org/1999/xlink" x="0px" y="0px"
	 viewBox="0 0 30 30" style="enable-background:new 0 0 30 30;" xml:space="preserve">
<style type="text/css">
	.st0{fill:#78869F;}
</style>
<path class="st0" d="M11.5,7.4h7.1c0.5,0,1,0.2,1.3,0.5s0.5,0.8,0.5,1.3v12.5c0,0.4-0.3,0.8-0.8,0.8c-0.2,0-0.5-0.1-0.6-0.3L15.1,18
	l-4,4.4c-0.1,0.2-0.3,0.2-0.5,0.2h-0.1c-0.4,0-0.8-0.3-0.8-0.8V9.2c0-0.5,0.2-1,0.5-1.3C10.5,7.6,11,7.4,11.5,7.4L11.5,7.4z
	 M18.6,8.9h-7.1c-0.1,0-0.2,0-0.2,0.1c-0.1,0.1-0.1,0.1-0.1,0.2V20l3.5-3.7c0.3-0.3,0.8-0.3,1.1,0l3.2,3.4V9.2C19,9.1,19,9,18.9,9
	C18.8,8.9,18.7,8.9,18.6,8.9z"/>
</svg>
