<?xml version="1.0" encoding="utf-8"?>
<!-- Generator: Adobe Illustrator 21.0.0, SVG Export Plug-In . SVG Version: 6.00 Build 0)  -->
<svg version="1.1" id="Layer_1" xmlns="http://www.w3.org/2000/svg" xmlns:xlink="http://www.w3.org/1999/xlink" x="0px" y="0px"
	 viewBox="0 0 30 30" style="enable-background:new 0 0 30 30;" xml:space="preserve">
<style type="text/css">
	.st0{fill:#78869F;}
</style>
<path class="st0" d="M10.2,22.5c-0.6,0-1.2-0.1-1.8-0.3c-0.3-0.1-0.5-0.3-0.5-0.6S8,21,8.2,20.8c0.6-0.4,1-0.9,1.3-1.5
	c-1.1-1.3-1.7-2.9-1.7-4.7c0-3.9,3.2-7.2,7.2-7.2s7.2,3.2,7.2,7.2s-3.2,7.2-7.2,7.2c-0.7,0-1.3-0.1-1.9-0.3
	C12.2,22.2,11.2,22.5,10.2,22.5z M15,9c-3.1,0-5.7,2.5-5.7,5.7c0,1.5,0.6,2.9,1.6,4c0.2,0.2,0.3,0.5,0.2,0.8
	c-0.2,0.6-0.5,1.1-0.9,1.5c0.8,0,1.5-0.3,2.2-0.8c0.2-0.2,0.5-0.2,0.7-0.1c0.6,0.2,1.2,0.3,1.8,0.3c3.1,0,5.7-2.5,5.7-5.7
	S18.1,9,15,9z"/>
</svg>
