<?xml version="1.0" encoding="utf-8"?>
<!-- Generator: Adobe Illustrator 21.0.0, SVG Export Plug-In . SVG Version: 6.00 Build 0)  -->
<svg version="1.1" id="Layer_1" xmlns="http://www.w3.org/2000/svg" xmlns:xlink="http://www.w3.org/1999/xlink" x="0px" y="0px"
	 viewBox="0 0 30 30" style="enable-background:new 0 0 30 30;" xml:space="preserve">
<style type="text/css">
	.st0{fill:#78869F;}
</style>
<g>
	<path class="st0" d="M14.2,20c-0.4-0.4-1-0.7-1.6-0.7c-0.6,0-1.2,0.3-1.6,0.7c-0.4,0.4-0.7,1-0.7,1.6c0,0.6,0.3,1.2,0.7,1.6
		c0.4,0.4,1,0.7,1.6,0.7c0.6,0,1.2-0.3,1.6-0.7c0.4-0.4,0.7-1,0.7-1.6C14.9,21,14.7,20.5,14.2,20L14.2,20z M13.2,22.2
		c-0.1,0.1-0.3,0.2-0.6,0.2c-0.2,0-0.4-0.1-0.6-0.2c-0.1-0.1-0.2-0.3-0.2-0.6c0-0.2,0.1-0.4,0.2-0.6c0.1-0.1,0.3-0.2,0.6-0.2
		c0.2,0,0.4,0.1,0.6,0.2l0,0c0.1,0.1,0.2,0.3,0.2,0.5C13.4,21.8,13.3,22,13.2,22.2z"/>
	<path class="st0" d="M22.7,20c-0.4-0.4-1-0.7-1.6-0.7c-0.6,0-1.2,0.3-1.6,0.7c-0.4,0.4-0.7,1-0.7,1.6c0,0.6,0.3,1.2,0.7,1.6
		c0.4,0.4,1,0.7,1.6,0.7c0.6,0,1.2-0.3,1.6-0.7c0.4-0.4,0.7-1,0.7-1.6C23.4,21,23.1,20.5,22.7,20L22.7,20z M21.6,22.2
		c-0.1,0.1-0.3,0.2-0.6,0.2c-0.2,0-0.4-0.1-0.6-0.2c-0.1-0.1-0.2-0.3-0.2-0.6c0-0.2,0.1-0.4,0.2-0.6c0.1-0.1,0.3-0.2,0.6-0.2
		c0.2,0,0.4,0.1,0.6,0.2l0,0c0.1,0.1,0.2,0.3,0.2,0.5C21.9,21.8,21.8,22,21.6,22.2z"/>
	<path class="st0" d="M12.6,15.6C12.6,15.6,12.6,15.6,12.6,15.6l8.5,0c0.3,0,0.6-0.2,0.7-0.5l2.1-5.7c0,0,0,0,0,0l0,0
		c0,0,0-0.1,0-0.1c0-0.1,0-0.1,0-0.2c0,0,0,0,0,0c0,0,0-0.1,0-0.1c0-0.1,0-0.1,0-0.2c0,0,0,0,0-0.1c0-0.1-0.1-0.1-0.1-0.2
		c0,0,0,0-0.1,0c-0.1,0-0.1-0.1-0.2-0.1c0,0,0,0,0,0c0,0-0.1,0-0.1,0c-0.1,0-0.1,0-0.2,0H11l-0.7-1.8C10.3,6.3,10,6.1,9.6,6.1H6.8
		c-0.4,0-0.8,0.3-0.8,0.8c0,0.4,0.3,0.8,0.8,0.8h2.3l0.7,1.8c0,0,0,0,0,0l1.8,4.9c-0.7,0.4-1.3,1.1-1.3,2c0,1.2,1,2.3,2.2,2.3v0
		h10.3c0.4,0,0.8-0.3,0.8-0.8s-0.3-0.8-0.8-0.8H12.6c0,0,0,0,0,0c-0.4,0-0.7-0.3-0.7-0.7C11.9,15.9,12.2,15.6,12.6,15.6z M22.1,9.9
		l-1.5,4.2h-7.5l-1.6-4.2H22.1z"/>
</g>
</svg>
