<?xml version="1.0" encoding="utf-8"?>
<!-- Generator: Adobe Illustrator 21.0.0, SVG Export Plug-In . SVG Version: 6.00 Build 0)  -->
<svg version="1.1" id="Layer_1" xmlns="http://www.w3.org/2000/svg" xmlns:xlink="http://www.w3.org/1999/xlink" x="0px" y="0px"
	 viewBox="0 0 30 30" style="enable-background:new 0 0 30 30;" xml:space="preserve">
<style type="text/css">
	.st0{fill:#78869F;}
</style>
<path class="st0" d="M11.3,15.9v-1.8l-4.5-2.6v7.1L11.3,15.9L11.3,15.9z M12.8,13.7v2.7c0,0.3-0.1,0.5-0.4,0.6l-6,3.5
	c-0.1,0.1-0.3,0.1-0.4,0.1c-0.4,0-0.8-0.3-0.8-0.8v-9.7c0-0.1,0-0.3,0.1-0.4c0.2-0.4,0.7-0.5,1-0.3l6,3.5
	C12.7,13.1,12.8,13.4,12.8,13.7z"/>
<path class="st0" d="M17.6,18.3c-0.4,0-0.8-0.3-0.8-0.8s0.3-0.8,0.8-0.8h3c0.4,0,0.8,0.3,0.8,0.8s-0.3,0.8-0.8,0.8H17.6z"/>
<path class="st0" d="M22.3,9.7h-8.6c-0.2,0-0.5,0.1-0.6,0.3c-0.2,0.2-0.3,0.4-0.3,0.6v8.8c0,0.2,0.1,0.5,0.3,0.6
	c0.2,0.2,0.4,0.3,0.6,0.3h8.6c0.2,0,0.5-0.1,0.6-0.3c0.2-0.2,0.3-0.4,0.3-0.6v-8.8c0-0.2-0.1-0.5-0.3-0.6
	C22.8,9.8,22.6,9.7,22.3,9.7L22.3,9.7z M13.7,8.2h8.6c0.7,0,1.2,0.3,1.7,0.7c0.4,0.4,0.7,1,0.7,1.7v8.8c0,0.7-0.3,1.2-0.7,1.7
	c-0.4,0.4-1,0.7-1.7,0.7h-8.6c-0.7,0-1.2-0.3-1.7-0.7c-0.4-0.4-0.7-1-0.7-1.7v-8.8c0-0.7,0.3-1.2,0.7-1.7
	C12.5,8.5,13.1,8.2,13.7,8.2z"/>
</svg>
