<svg version="1.1" xmlns="http://www.w3.org/2000/svg" xmlns:xlink="http://www.w3.org/1999/xlink" width="368" height="266" viewBox="0 0 368 266">
<g id="pen">
<path id="Shape-72" d="M299.777,238.467 C294.474,238.467 289.315,237.639 284.363,236.073 C275.944,233.409 267.185,236.181 261.826,243.205 C251.718,256.455 234.413,265.191 214.761,265.191 C196.192,265.191 179.718,257.390 169.430,245.352 C167.969,243.643 166.107,242.689 163.867,242.501 C138.772,240.397 115.872,230.636 97.464,215.597 C97.464,215.597 89.958,224.083 89.958,224.083 C89.590,224.499 89.010,224.597 88.524,224.389 C88.524,224.389 88.512,224.405 88.512,224.405 C87.016,227.243 85.519,230.081 84.023,232.920 C80.956,232.170 77.943,231.700 74.967,231.426 C74.967,231.426 69.467,231.138 69.467,231.138 C46.970,230.831 26.580,240.551 4.314,232.834 C4.314,232.834 34.717,199.612 34.717,199.612 C14.581,191.303 0.400,171.476 0.400,148.322 C0.400,119.408 22.501,95.661 50.717,93.084 C54.199,92.766 56.986,90.485 57.990,87.132 C72.942,37.203 119.284,0.808 174.145,0.808 C209.800,0.808 241.860,16.180 264.042,40.651 C272.679,50.178 284.027,54.824 296.860,54.084 C297.827,54.029 298.800,54.000 299.777,54.000 C337.235,54.000 367.600,95.294 367.600,146.234 C367.600,197.173 337.235,238.467 299.777,238.467 z" fill="#F1F8FD" />
<path id="Shape-73" d="M174.145,0.808 C209.800,0.808 241.860,16.180 264.042,40.651 C272.679,50.178 284.027,54.824 296.860,54.084 C297.827,54.029 298.800,54.000 299.777,54.000 C337.235,54.000 367.600,95.294 367.600,146.234 C367.600,197.173 337.235,238.467 299.777,238.467 C294.474,238.467 289.315,237.639 284.363,236.073 C275.944,233.409 267.185,236.181 261.826,243.205 C251.718,256.455 234.413,265.191 214.761,265.191 C196.192,265.191 179.718,257.390 169.430,245.352 C167.969,243.643 166.107,242.689 163.867,242.501 C134.614,240.049 108.319,227.222 88.677,207.719 C83.351,202.432 76.237,200.450 68.949,202.224 C64.740,203.248 60.342,203.792 55.817,203.792 C25.211,203.792 0.400,178.957 0.400,148.322 C0.400,119.408 22.501,95.661 50.717,93.084 C54.199,92.765 56.986,90.484 57.990,87.132 C72.942,37.203 119.284,0.808 174.145,0.808 z" fill="#F1F8FD" />
<path id="Shape-74" d="M183.445,48.228 L296.258,72.372 L262.611,229.521 L149.798,205.378 L183.445,48.228 z" fill="#BECFE2" />
<path id="Shape-75" d="M175.865,52.006 L290.383,66.196 L270.610,225.744 L156.093,211.554 L175.865,52.006 z" fill="#D2DCE7" />
<path id="Shape-77" d="M216.539,39.523 C218.009,40.335 219.013,41.673 219.443,43.173 C219.874,44.670 219.734,46.334 218.919,47.803 C218.919,47.803 212.590,59.209 212.590,59.209 C211.772,60.649 210.447,61.633 208.965,62.058 C207.465,62.488 205.799,62.348 204.327,61.535 C202.858,60.724 201.854,59.386 201.423,57.886 C200.993,56.389 201.133,54.725 201.948,53.256 C201.948,53.256 208.277,41.850 208.277,41.850 C209.094,40.409 210.420,39.426 211.902,39.000 C213.401,38.570 215.068,38.711 216.539,39.523 C216.539,39.523 216.539,39.523 216.539,39.523 zM217.755,43.652 C217.447,42.582 216.733,41.628 215.689,41.051 C214.646,40.475 213.457,40.378 212.382,40.686 C211.323,40.990 210.379,41.687 209.800,42.704 C209.800,42.704 203.478,54.106 203.478,54.106 C202.900,55.146 202.803,56.334 203.112,57.407 C203.419,58.477 204.134,59.431 205.178,60.008 C206.221,60.584 207.410,60.681 208.485,60.373 C209.544,60.069 210.488,59.372 211.067,58.355 C211.067,58.355 217.389,46.953 217.389,46.953 C217.966,45.912 218.063,44.725 217.755,43.652 z" fill="#F27748" />
<path id="Shape-76" d="M188.906,40.255 L300.035,71.083 L257.150,226.163 L146.021,195.335 L188.906,40.255 z" fill="#FFFFFF" />
<path id="Shape-78" d="M204.017,52.775 C204.017,52.775 203.992,52.816 203.992,52.816 C203.683,53.397 203.633,54.051 203.805,54.645 C203.981,55.250 204.390,55.789 204.991,56.117 C205.588,56.445 206.269,56.501 206.884,56.326 C207.484,56.156 208.018,55.767 208.351,55.199 C208.351,55.199 208.374,55.155 208.374,55.155 C208.374,55.155 213.882,45.328 213.882,45.328 C214.117,44.909 214.653,44.758 215.078,44.991 C215.502,45.224 215.655,45.753 215.419,46.173 C215.419,46.173 209.912,56.000 209.912,56.000 L209.885,56.044 C209.885,56.044 209.877,56.057 209.877,56.057 C209.304,57.041 208.389,57.713 207.367,58.002 C206.325,58.298 205.165,58.199 204.136,57.636 C203.109,57.074 202.409,56.154 202.109,55.122 C201.814,54.108 201.907,52.979 202.457,51.973 C202.457,51.973 202.479,51.930 202.479,51.930 C202.479,51.930 207.999,42.080 207.999,42.080 C208.235,41.661 208.771,41.510 209.196,41.743 C209.620,41.976 209.773,42.505 209.537,42.925 C209.537,42.925 204.017,52.775 204.017,52.775 z" fill="#F27748" />
<path id="Shape-79" d="M182.710,54.753 C182.710,54.753 182.710,54.753 182.710,54.753 C185.318,58.136 184.697,63.047 181.330,65.667 C181.330,65.667 178.835,67.608 178.835,67.608 C181.664,66.768 184.856,67.690 186.764,70.166 C186.764,70.166 186.765,70.166 186.765,70.166 C189.245,73.384 188.654,78.057 185.451,80.550 C185.451,80.550 181.226,83.837 181.226,83.837 C182.751,84.054 184.198,84.842 185.210,86.155 C185.210,86.155 185.210,86.155 185.210,86.155 C187.273,88.831 186.781,92.716 184.118,94.789 C184.118,94.789 178.459,99.191 178.459,99.191 C175.795,101.264 171.928,100.770 169.865,98.093 C169.865,98.093 169.865,98.093 169.865,98.093 C167.802,95.418 168.294,91.533 170.958,89.460 C170.958,89.460 173.646,87.368 173.646,87.368 C171.615,87.231 169.648,86.259 168.311,84.525 C168.311,84.525 168.311,84.524 168.311,84.524 C165.830,81.306 166.421,76.633 169.625,74.141 C169.625,74.141 171.717,72.513 171.717,72.513 C168.726,73.431 165.335,72.467 163.314,69.845 C163.314,69.845 163.313,69.844 163.313,69.844 C160.706,66.461 161.327,61.550 164.694,58.930 C164.694,58.930 171.847,53.365 171.847,53.365 C175.214,50.745 180.103,51.369 182.710,54.753 C182.710,54.753 182.710,54.753 182.710,54.753 zM182.350,109.914 C182.350,109.914 182.350,109.914 182.350,109.914 C184.413,112.590 183.921,116.476 181.257,118.548 C181.257,118.548 175.599,122.951 175.599,122.951 C172.935,125.023 169.068,124.530 167.005,121.854 C167.005,121.854 167.005,121.854 167.005,121.854 C164.942,119.177 165.434,115.292 168.098,113.220 C168.098,113.220 173.756,108.817 173.756,108.817 C176.420,106.744 180.287,107.238 182.350,109.914 z" fill="#FFBCA3" />
<path id="Shape-80" d="M106.859,39.834 C106.859,39.834 171.333,39.834 171.333,39.834 C174.260,39.834 176.654,42.220 176.654,45.138 C176.654,45.138 176.654,165.465 176.654,165.465 C176.654,168.382 174.260,170.768 171.333,170.768 C171.333,170.768 106.859,170.768 106.859,170.768 C103.932,170.768 101.538,168.382 101.538,165.465 C101.538,165.465 101.538,45.138 101.538,45.138 C101.538,42.220 103.932,39.834 106.859,39.834 z" fill="#CFDDEF" />
<path id="Shape-81" d="M111.928,39.835 C111.928,39.835 171.721,39.835 171.721,39.835 C174.435,39.835 176.655,42.051 176.655,44.760 C176.655,44.760 176.655,165.843 176.655,165.843 C176.655,168.552 174.435,170.768 171.721,170.768 C171.721,170.768 111.928,170.768 111.928,170.768 C109.214,170.768 106.993,168.552 106.993,165.843 C106.993,165.843 106.993,44.760 106.993,44.760 C106.993,42.051 109.214,39.835 111.928,39.835 z" fill="#DFE9F4" />
<path id="Shape-82" d="M112.867,154.820 L170.781,154.820 L170.781,47.387 L112.867,47.387 L112.867,154.820 z" fill="#FFFFFF" />
<path id="Shape-83" d="M117.065,88.087 L166.583,88.087 L166.583,51.999 L117.065,51.999 L117.065,88.087 z" fill="#8BB4F2" />
<path id="Shape-84" d="M117.065,135.090 L117.065,131.978 L166.582,131.978 L166.582,135.090 L117.065,135.090 zM117.065,112.763 L166.582,112.763 L166.582,115.874 L117.065,115.874 L117.065,112.763 zM117.065,93.546 L166.582,93.546 L166.582,96.658 L117.065,96.658 L117.065,93.546 zM163.751,103.063 L117.065,103.063 L117.065,99.952 L163.751,99.952 L163.751,103.063 zM154.794,109.469 L117.065,109.469 L117.065,106.357 L154.794,106.357 L154.794,109.469 zM163.751,122.279 L117.065,122.279 L117.065,119.168 L163.751,119.168 L163.751,122.279 z" fill="#78859E" />
<path id="Shape-85" d="M101.535,102.364 L74.260,156.500 L101.535,126.662 L101.535,102.364 z" fill="#FFAF9B" />
<path id="Shape-86" d="M144.343,170.840 C144.343,170.840 135.301,194.251 109.233,189.598 C106.983,189.172 104.694,188.564 102.697,187.930 C101.368,187.494 100.005,186.998 98.599,186.421 C113.473,187.115 119.809,178.776 121.684,170.754 C121.684,170.754 144.116,170.754 144.116,170.754 L144.343,170.840 z" fill="#FFAF9B" />
<path id="Shape-87" d="M9.632,227.761 L103.749,124.484 L156.506,119.569 C156.506,119.569 159.870,127.657 152.395,131.017 C144.921,134.376 123.743,138.483 120.504,139.229 C117.265,139.976 116.393,149.308 116.393,149.308 C116.393,149.308 121.999,155.561 122.248,164.613 C122.497,173.665 117.328,187.135 98.517,186.264 C101.995,187.784 109.462,190.013 114.633,190.013 C114.633,190.013 83.447,231.619 83.447,231.619 L9.632,227.761 z" fill="#FFBCA3" />
<path id="Shape-88" d="M60.306,171.221 C60.306,171.221 102.230,208.274 102.230,208.274 C102.748,208.733 102.796,209.529 102.338,210.046 C102.338,210.046 90.408,223.496 90.408,223.496 C89.949,224.013 89.151,224.062 88.633,223.604 C88.633,223.604 46.709,186.550 46.709,186.550 C46.191,186.093 46.142,185.296 46.600,184.779 C46.600,184.779 58.530,171.329 58.530,171.329 C58.989,170.812 59.788,170.763 60.306,171.221 z" fill="#2DB887" />
<path id="Shape-89" d="M5.016,232.371 C5.016,232.371 47.017,186.708 47.017,186.708 C47.017,186.708 89.366,223.967 89.366,223.967 C87.867,226.797 86.367,229.626 84.867,232.456 C56.280,225.498 32.027,241.686 5.016,232.371 z" fill="#22AA78" />
<path id="Shape-90" d="M91.663,216.027 C93.399,216.027 94.814,214.611 94.814,212.875 C94.814,211.139 93.399,209.724 91.663,209.724 C89.927,209.724 88.512,211.139 88.512,212.875 C88.512,214.611 89.927,216.027 91.663,216.027 z" fill="#DFE9F4" />
<path id="Shape-91" d="M277.377,121.214 L280.731,123.283 L250.086,172.863 L250.259,169.037 L246.733,170.793 L246.906,166.967 L243.379,168.723 L274.023,119.144 L277.377,121.214 z" fill="#EFAA46" />
<path id="Shape-92" d="M250.255,172.496 L241.177,179.984 L243.657,168.327 L247.126,166.558 L246.956,170.412 L250.425,168.643 L250.255,172.496 z" fill="#E2E1C0" />
<path id="Shape-93" d="M244.994,176.922 C244.994,176.922 241.204,180.138 241.204,180.138 C241.204,180.138 242.239,175.132 242.239,175.132 C242.778,175.200 243.311,175.389 243.803,175.708 C244.295,176.028 244.695,176.445 244.994,176.922 z" fill="#383A3A" />
<path id="Shape-94" d="M279.987,123.511 C279.987,123.511 273.997,119.729 273.997,119.729 C273.611,119.485 273.490,118.964 273.729,118.569 C273.729,118.569 276.367,114.203 276.367,114.203 C276.605,113.808 277.115,113.685 277.501,113.929 C277.501,113.929 283.491,117.711 283.491,117.711 C283.877,117.954 283.997,118.476 283.759,118.870 C283.759,118.870 281.121,123.236 281.121,123.236 C280.882,123.631 280.373,123.754 279.987,123.511 z" fill="#B4B5B5" />
<path id="Shape-95" d="M283.420,118.295 L276.908,114.342 C276.908,114.342 278.513,111.789 278.513,111.789 C279.619,110.028 281.988,109.478 283.778,110.565 C283.778,110.565 283.779,110.566 283.779,110.566 C285.570,111.652 286.130,113.981 285.024,115.741 C285.024,115.741 283.420,118.295 283.420,118.295 z" fill="#E88274" />
<path id="Shape-96" d="M142.019,166.946 C144.216,166.946 146.009,165.154 146.009,162.956 C146.009,160.759 144.216,158.966 142.019,158.966 C139.821,158.966 138.028,160.759 138.028,162.956 C138.028,165.154 139.821,166.946 142.019,166.946 z" fill="#C9DAED" />
</g>
</svg>
