<?xml version="1.0" encoding="utf-8"?>
<!-- Generator: Adobe Illustrator 21.0.0, SVG Export Plug-In . SVG Version: 6.00 Build 0)  -->
<svg version="1.1" id="Layer_1" xmlns="http://www.w3.org/2000/svg" xmlns:xlink="http://www.w3.org/1999/xlink" x="0px" y="0px"
	 viewBox="0 0 100 100" style="enable-background:new 0 0 100 100;" xml:space="preserve">
<style type="text/css">
	.st0{fill:#DDDEE7;}
	.st1{fill:#FFD433;}
	.st2{fill:#FAB700;}
	.st3{fill:#E84350;}
	.st4{opacity:0.1;fill:#000003;enable-background:new    ;}
	.st5{fill:#F9CB6F;}
	.st6{fill:#DF3A47;}
	.st7{fill:#CC3845;}
	.st8{fill:#A4D2F1;}
	.st9{fill:#39ABE1;}
	.st10{fill:#1988BA;}
	.st11{fill:#28A0DA;}
	.st12{fill:#81B5DA;}
	.st13{fill:#BE7635;}
	.st14{fill:#DAD1AC;}
	.st15{fill:#CE7F37;}
	.st16{fill:#9EBDE4;}
	.st17{fill:#84A7D8;}
	.st18{fill:#B1CBEB;}
	.st19{fill:#CEC5A3;}
	.st20{fill:#9E652C;}
	.st21{fill:#8D5B29;}
	.st22{fill:#EA5A4D;}
	.st23{fill:#D8504A;}
</style>
<path class="st0" d="M36.3,100c10.8,0,19.6-0.8,19.6-1.9c0-1-8.8-1.9-19.6-1.9S16.7,97,16.7,98.1C16.7,99.2,25.5,100,36.3,100z"/>
<g>
	<path class="st1" d="M5.5,18.9l8.2-4.5c1.9-1,4.3-0.3,5.3,1.5L41.6,57c1,1.9,0.3,4.3-1.5,5.3l-8.2,4.5c-1.9,1-4.3,0.3-5.3-1.5
		L4,24.2C2.9,22.3,3.6,19.9,5.5,18.9z"/>
	<rect x="28.3" y="14.5" transform="matrix(0.8762 -0.482 0.482 0.8762 -14.2189 18.7652)" class="st2" width="2.2" height="45.1"/>
	<path class="st2" d="M12.6,21.8L12.6,21.8c-0.3-0.5-0.1-1.2,0.4-1.5l5.5-3c0.5-0.3,1.2-0.1,1.5,0.4l0,0c0.3,0.5,0.1,1.2-0.4,1.5
		l-5.5,3C13.5,22.5,12.9,22.3,12.6,21.8z"/>
	<path class="st2" d="M15.7,27.4L15.7,27.4c-0.3-0.5-0.1-1.2,0.4-1.5l5.5-3c0.5-0.3,1.2-0.1,1.5,0.4l0,0c0.3,0.5,0.1,1.2-0.4,1.5
		l-5.5,3C16.6,28.1,16,27.9,15.7,27.4z"/>
	<path class="st2" d="M18.8,33L18.8,33c-0.3-0.5-0.1-1.2,0.4-1.5l5.5-3c0.5-0.3,1.2-0.1,1.5,0.4l0,0c0.3,0.5,0.1,1.2-0.4,1.5l-5.5,3
		C19.7,33.7,19.1,33.5,18.8,33z"/>
	<path class="st2" d="M21.9,38.6L21.9,38.6c-0.3-0.5-0.1-1.2,0.4-1.5l5.5-3c0.5-0.3,1.2-0.1,1.5,0.4l0,0c0.3,0.5,0.1,1.2-0.4,1.5
		l-5.5,3C22.8,39.3,22.2,39.1,21.9,38.6z"/>
	<path class="st2" d="M25,44.2L25,44.2c-0.3-0.5-0.1-1.2,0.4-1.5l5.5-3c0.5-0.3,1.2-0.1,1.5,0.4l0,0c0.3,0.5,0.1,1.2-0.4,1.5l-5.5,3
		C25.9,45,25.3,44.8,25,44.2z"/>
	<path class="st2" d="M28.1,49.9L28.1,49.9c-0.3-0.5-0.1-1.2,0.4-1.5l5.5-3c0.5-0.3,1.2-0.1,1.5,0.4l0,0c0.3,0.5,0.1,1.2-0.4,1.5
		l-5.5,3C29,50.6,28.3,50.4,28.1,49.9z"/>
	<path class="st2" d="M6.8,23.7L6.8,23.7c-0.3,0.2-0.4,0.6-0.3,0.9L27.7,63c0.2,0.3,0.6,0.4,0.9,0.3l0,0c0.3-0.2,0.4-0.6,0.3-0.9
		L7.7,24C7.5,23.7,7.1,23.5,6.8,23.7z"/>
</g>
<polygon class="st3" points="3.1,46.3 13.2,38 30.1,58.5 13.7,59.2 "/>
<path class="st4" d="M10.7,36.4l22.8,5.8l8.2,14.9c1,1.9,0.3,4.3-1.5,5.3L32,66.9c-1.9,1-4.3,0.3-5.3-1.5L10.7,36.4z"/>
<g>
	<path class="st5" d="M2.4,33.2L6.5,35l6.7,3l-5,4.2l-5,4.2l-1.7-7.1l-1-4.3c-0.1-0.5,0.1-1.1,0.5-1.4C1.3,33.1,1.9,33,2.4,33.2z"/>
	<path class="st3" d="M2.4,33.2l2.8,1.2l-4.1,3.4l-0.7-2.9c-0.1-0.5,0.1-1.1,0.5-1.4C1.3,33.1,1.9,33,2.4,33.2z"/>
	
		<rect x="13.9" y="40.9" transform="matrix(0.7704 -0.6375 0.6375 0.7704 -33.6068 23.6911)" class="st3" width="4.4" height="35.3"/>
	
		<rect x="17.2" y="38.1" transform="matrix(0.7704 -0.6376 0.6376 0.7704 -31.0927 25.1669)" class="st6" width="4.4" height="35.3"/>
	
		<rect x="20.6" y="35.3" transform="matrix(0.7704 -0.6375 0.6375 0.7704 -28.5163 26.664)" class="st7" width="4.4" height="35.3"/>
</g>
<path class="st4" d="M0.9,33.5c4.4,2.2,11.4,8.2,14.9,14.5c3.6,6.3,3.3,9.9-2.8,10.3l12.6,15.3l3.4-2.8l3.4-2.8l3.4-2.8L13.2,38l0,0
	l-6.7-3l-4.1-1.8C1.9,33,1.3,33.1,0.9,33.5C0.9,33.4,0.9,33.5,0.9,33.5z"/>
<g>
	<path class="st8" d="M42.3,23.5l3,0.1c1.2,0,2.2,1,2.1,2.2l-0.7,39.9c0,1.2-1,2.2-2.2,2.1l-3-0.1c-1.2,0-2.2-1-2.1-2.2l0.7-39.9
		C40.1,24.4,41.1,23.5,42.3,23.5z"/>
	<path class="st9" d="M42.3,23.5h0.8h2.2c2.2,0,4.8,0.5,4.8,4.4l-0.3,16.3c0,0.4-0.3,0.7-0.7,0.7l0,0c-0.4,0-0.7-0.3-0.7-0.7
		l0.3-16.4c0-0.3-0.3-0.6-0.6-0.6l0,0c-0.3,0-0.6,0.3-0.6,0.6l-0.2,10.5L40,38.2l0.2-11.8v-0.8C40.1,24.4,41.1,23.5,42.3,23.5z"/>
	
		<rect x="42.8" y="35.3" transform="matrix(1.800030e-02 -0.9998 0.9998 1.800030e-02 3.8195 81.7687)" class="st10" width="1.4" height="7.3"/>
</g>
<path class="st11" d="M48.6,27.8c0-0.8-1.2-0.8-1.2,0l-0.2,10.5l-7.3-0.1v-1.5c6.6,3.8,6.7-4.3,6.6-9.1
	C46.5,25.9,48.7,25.2,48.6,27.8z"/>
<path class="st12" d="M47.2,40.4c-0.4,3.7-1.5,7.5-4.1,8.3c-1.3,0.4-2.4,0.2-3.3-0.3l-0.3,17.1c0,1.2,0.9,2.2,2.1,2.2l3,0.1
	c1.2,0,2.2-0.9,2.2-2.1L47.2,40.4L47.2,40.4z M47.3,33.1L47.3,33.1L47.3,33.1L47.3,33.1z"/>
<path class="st13" d="M36.7,71.8c0,0-5.7-8.6-8.2-22.5c-2.6-13.9-1.3-27-1.3-27l0.5-0.1l3.4-0.6l0.5-0.1c0,0,5.8,11.7,8.4,25.6
	s0.4,24,0.4,24h-0.1L36.7,71.8L36.7,71.8z"/>
<path class="st14" d="M27,37.9c-0.6-8.9-0.2-15.5-0.2-15.5l0.5-0.1l4.8-0.9c0,0,2.3,6.1,5,14.6L27,37.9z"/>
<path class="st15" d="M28.8,51.2c-0.1-0.6-0.3-1.3-0.4-2c-0.6-3.5-1-6.9-1.3-10l8.6-1.6c0.8-0.1,1.1,0.1,1.4,1.8
	c0.3,1.7,2.1,11.9-1.5,13.4C33.1,53.9,30.3,54.3,28.8,51.2z"/>
<path class="st16" d="M28.5,92l19.7-4.6c2.4-0.6,3.9-2.7,3.7-5.2l-3-29.6c0-0.4-0.2-0.8-0.6-1c-0.3-0.2-0.7-0.3-1.2-0.2l-33.6,7.8
	c-0.4,0.1-0.7,0.3-0.9,0.7s-0.2,0.8-0.1,1.2L22.9,89C23.7,91.3,26.1,92.6,28.5,92z"/>
<path class="st17" d="M28.5,92l19.7-4.6c2.3-0.5,3.8-2.6,3.7-4.8L23,89.3C23.9,91.4,26.2,92.5,28.5,92z"/>
<polygon class="st17" points="50,63.9 49.3,57.5 14.2,65.8 16.4,71.8 "/>
<path class="st18" d="M48.8,52.6c0-0.4-0.2-0.8-0.6-1c-0.3-0.2-0.7-0.3-1.2-0.2l-33.6,7.8c-0.4,0.1-0.7,0.3-0.9,0.7
	s-0.2,0.8-0.1,1.2L48.8,52.6z"/>
<path class="st19" d="M27,37.2c2.4-0.2,4.7-0.7,5.4-1.4c1.5-1.7,0.1-8.7-1.4-14.2l1.1-0.2c0,0,2.3,6.1,5,14.6l-10,1.9
	C27,37.7,27,37.4,27,37.2z"/>
<path class="st20" d="M32,21.4c0,0,2.8-4,2.2-8.1c-0.6-3.8-2.7-6.7-3.2-8.2C31,5,30.9,5,30.9,5c-0.1,0-0.1,0-0.1,0.1
	c-0.3,0.6-0.3,1.7-0.3,1.7c-0.4-1.2-1.5-1.9-2.3-2.4c-1.1-0.6-1.5-1.8-1.5-2.8c0-0.1-0.1-0.3-0.2-0.3c-0.1-0.1-0.3,0-0.4,0.1
	c-1.7,1.8-5.3,7-3.6,14.2c1.3,5.4,4.2,6.8,4.2,6.8L32,21.4z"/>
<path class="st21" d="M30.5,6.7c-0.4-1-1.4-1.7-2.1-2.2h-0.1c-0.4-0.2-0.8-0.6-1-1c0.1,0.4,0.3,1,0.7,1.8c4.2,6.6,2.3,10.6,1.7,12.8
	c0,0.1-0.1,0.2-0.2,0.2s-0.2-0.1-0.2-0.2c-0.4-1.3-1-2.9-1.7-4.5l-0.1-0.1l-0.1,0.1c0.4,2.3,0.2,5.7,0,6.5c0,0,0,0.1-0.1,0.1h-0.1
	c-0.4-0.3-0.9-1-1.5-2.3c0-0.1-0.2-0.2-0.3-0.1c-0.1,0-0.2,0.1-0.2,0.3c0.2,1.5,0.8,3.1,1.5,4.4l5.3-1c0,0,2.8-4,2.2-8.1
	c-0.5-3.3-2.2-6.2-3.1-7.9c0.1,1.1,0.3,1.8-0.3,3.1C30.8,7.7,30.6,7.1,30.5,6.7z"/>
<path class="st22" d="M29.1,4.7c-0.2-0.2-0.4-0.3-0.6-0.4c-1.2-0.6-1.7-2-1.6-3.1c0-0.1-0.1-0.3-0.2-0.3c-0.1-0.1-0.3,0-0.4,0.1
	c-1.5,1.6-4.3,5.5-4.4,11.4c0,0.1,0,0.2,0.1,0.3s0.2,0.1,0.3,0.1c6.2-1.1,5.1-4.9,4.7-6.4V6.3l0.1-0.1c1.3-0.1,1.8-0.6,2.1-1
	C29.3,5,29.3,4.8,29.1,4.7z"/>
<path class="st4" d="M28.5,92l19.7-4.6c2.4-0.6,3.9-2.7,3.7-5.2l-3-29.6c0-0.4-0.2-0.8-0.6-1c-0.3-0.2-0.7-0.3-1.2-0.2l-3.9,0.9
	c2.2,6.9,6.8,28.4-20.7,35.5l0.4,1.2C23.7,91.3,26.1,92.6,28.5,92z"/>
<path class="st23" d="M29.1,4.7c-0.1-0.1-0.3-0.2-0.4-0.3c-0.5,0.5-1.1,1.3-2.1,1.2c-0.2,0-0.3,0.1-0.2,0.3c0.5,2.7-1.4,5.5-4.1,4.9
	c-0.1,0-0.3,0.1-0.3,0.2c-0.1,0.4-0.1,1-0.1,1.5c0,0.1,0,0.2,0.1,0.3s0.2,0.1,0.3,0.1c6.2-1.1,5.1-4.9,4.7-6.4V6.3l0.1-0.1
	c1.3-0.1,1.8-0.6,2.1-1C29.3,5.1,29.3,4.8,29.1,4.7z"/>
</svg>
