<?xml version="1.0" encoding="utf-8"?>
<!-- Generator: Adobe Illustrator 21.0.0, SVG Export Plug-In . SVG Version: 6.00 Build 0)  -->
<svg version="1.1" id="Layer_1" xmlns="http://www.w3.org/2000/svg" xmlns:xlink="http://www.w3.org/1999/xlink" x="0px" y="0px"
	 viewBox="0 0 33 33" style="enable-background:new 0 0 33 33;" xml:space="preserve">
<style type="text/css">
	.st0{fill:#FFFFFF;}
</style>
<path class="st0" d="M16.5,17c-2.2,0-4.1-1.9-4.1-4.1s1.9-4.1,4.1-4.1s4.1,1.9,4.1,4.1C20.6,15.3,18.7,17,16.5,17z M16.5,10.2
	c-1.5,0-2.9,1.2-2.9,2.9s1.2,2.9,2.9,2.9s2.9-1.2,2.9-2.9S18.1,10.2,16.5,10.2z"/>
<path class="st0" d="M16.5,24.2c-1.7,0-3.5-0.5-5-1.4c-0.1-0.1-0.2-0.2-0.4-0.4C11,22.1,11,21.7,11,21.3c0-3.1,2.5-5.5,5.5-5.5
	s5.5,2.5,5.5,5.5c0,0.4-0.1,0.7-0.1,1.1c-0.1,0.1-0.1,0.4-0.4,0.4C20,23.7,18.2,24.2,16.5,24.2z M12.4,21.8c2.6,1.4,5.7,1.4,8.3,0
	c0-0.1,0.1-0.4,0.1-0.6c0-2.4-1.9-4.2-4.2-4.2s-4.2,1.9-4.2,4.2C12.3,21.5,12.3,21.7,12.4,21.8z"/>
</svg>
