<?xml version="1.0" encoding="utf-8"?>
<!-- Generator: Adobe Illustrator 21.0.0, SVG Export Plug-In . SVG Version: 6.00 Build 0)  -->
<svg version="1.1" id="Layer_1" xmlns="http://www.w3.org/2000/svg" xmlns:xlink="http://www.w3.org/1999/xlink" x="0px" y="0px"
	 viewBox="0 0 51 51" style="enable-background:new 0 0 51 51;" xml:space="preserve">
<style type="text/css">
	.st0{fill-rule:evenodd;clip-rule:evenodd;fill:#F2F2F2;}
	.st1{fill-rule:evenodd;clip-rule:evenodd;fill:#FECBF6;}
	.st2{fill-rule:evenodd;clip-rule:evenodd;fill:#FFCFF7;}
	.st3{fill-rule:evenodd;clip-rule:evenodd;fill:#EF013F;}
</style>
<path class="st0" d="M0,44.8c2.5,1,27.5,1.9,43.1-7.6C59.9,26.9,33.4,12.5,46.3,6c3.6-1.8,1.4-4.3,0.2-5.1c-1.2-0.8-5.5-2.7-10,2.8
	C25.4,17.1,45.5,23.2,0,44.8z"/>
<path class="st1" d="M5.7,40c2.1,0.9,30,7.2,38.9-7.1c5-9.3-7.3-13.6-10.1-12.9C31.6,20.8,26.4,39.1,5.7,40z"/>
<path class="st2" d="M36.1,49.9c-1.4-0.6-6.1-4.7-6.7-7.2c1.9-0.5,3.9-1.1,5.7-1.8C35.1,43.3,35,47,36.1,49.9z"/>
<path class="st3" d="M48,2.7c-1.1,0.6-1.8,2.3-1.2,3c0.6,0.8,2.1-0.4,2.6,0C50,6.2,49.5,4.2,48,2.7z"/>
<path class="st3" d="M34.6,51h6.3c0,0-2.9-1.9-4.4-1.8C35.2,49.3,34.6,51,34.6,51z"/>
<circle class="st3" cx="43.9" cy="2.6" r="0.9"/>
</svg>
