<?xml version="1.0" encoding="utf-8"?>
<!-- Generator: Adobe Illustrator 21.0.0, SVG Export Plug-In . SVG Version: 6.00 Build 0)  -->
<svg version="1.1" id="Layer_1" xmlns="http://www.w3.org/2000/svg" xmlns:xlink="http://www.w3.org/1999/xlink" x="0px" y="0px"
	 viewBox="0 0 30 30" style="enable-background:new 0 0 30 30;" xml:space="preserve">
<style type="text/css">
	.st0{opacity:0.6;}
	.st1{fill:#78869F;}
	.st2{opacity:0.6;fill:#78869F;}
	.st3{fill:#93B264;}
</style>
<g class="st0">
	<path class="st1" d="M11.1,20c-0.4-0.4-1-0.7-1.6-0.7c-0.6,0-1.2,0.3-1.6,0.7c-0.4,0.4-0.7,1-0.7,1.6c0,0.6,0.3,1.2,0.7,1.6
		c0.4,0.4,1,0.7,1.6,0.7c0.6,0,1.2-0.3,1.6-0.7c0.4-0.4,0.7-1,0.7-1.6C11.8,21,11.6,20.5,11.1,20L11.1,20z M10.1,22.2
		c-0.1,0.1-0.3,0.2-0.6,0.2c-0.2,0-0.4-0.1-0.6-0.2c-0.1-0.1-0.2-0.3-0.2-0.6c0-0.2,0.1-0.4,0.2-0.6c0.1-0.1,0.3-0.2,0.6-0.2
		c0.2,0,0.4,0.1,0.6,0.2l0,0c0.1,0.1,0.2,0.3,0.2,0.5C10.3,21.8,10.2,22,10.1,22.2z"/>
	<path class="st1" d="M19.6,20c-0.4-0.4-1-0.7-1.6-0.7c-0.6,0-1.2,0.3-1.6,0.7c-0.4,0.4-0.7,1-0.7,1.6c0,0.6,0.3,1.2,0.7,1.6
		c0.4,0.4,1,0.7,1.6,0.7c0.6,0,1.2-0.3,1.6-0.7c0.4-0.4,0.7-1,0.7-1.6C20.3,21,20,20.5,19.6,20L19.6,20z M18.5,22.2
		c-0.1,0.1-0.3,0.2-0.6,0.2c-0.2,0-0.4-0.1-0.6-0.2c-0.1-0.1-0.2-0.3-0.2-0.6c0-0.2,0.1-0.4,0.2-0.6c0.1-0.1,0.3-0.2,0.6-0.2
		c0.2,0,0.4,0.1,0.6,0.2l0,0c0.1,0.1,0.2,0.3,0.2,0.5C18.8,21.8,18.7,22,18.5,22.2z"/>
</g>
<path class="st2" d="M19.8,17.1H9.5c0,0,0,0,0,0c-0.4,0-0.7-0.3-0.7-0.7c0-0.4,0.3-0.7,0.7-0.7h0l8.5,0c0,0,0.1,0,0.1,0
	c-0.9-0.3-1.8-0.8-2.5-1.5H10L8.5,9.9h4.7c-0.1-0.5-0.2-1-0.2-1.5h-5L7.3,6.6C7.2,6.3,6.9,6.1,6.5,6.1H3.7C3.3,6.1,3,6.4,3,6.8
	c0,0.4,0.3,0.8,0.8,0.8H6l0.7,1.8c0,0,0,0,0,0l1.8,4.9c-0.7,0.4-1.3,1.1-1.3,2c0,1.2,1,2.3,2.2,2.3v0h10.3c0.4,0,0.8-0.3,0.8-0.8
	C20.5,17.4,20.2,17.1,19.8,17.1z"/>
<path class="st3" d="M20.8,14.3c-3.3,0-6.1-2.7-6.1-6.1c0-3.3,2.7-6.1,6.1-6.1c3.3,0,6.1,2.7,6.1,6.1C26.9,11.5,24.2,14.3,20.8,14.3
	L20.8,14.3z M17.7,9l1.8,1.8c0.3,0.3,0.9,0.3,1.2,0l3.2-3.1c0.3-0.3,0.3-0.9,0-1.2c-0.3-0.3-0.9-0.3-1.2,0L20.1,9l-1.1-1.1
	c-0.3-0.3-0.9-0.3-1.2,0C17.4,8.2,17.4,8.6,17.7,9z"/>
</svg>
