<?xml version="1.0" encoding="utf-8"?>
<!-- Generator: Adobe Illustrator 21.0.0, SVG Export Plug-In . SVG Version: 6.00 Build 0)  -->
<svg version="1.1" id="Layer_1" xmlns="http://www.w3.org/2000/svg" xmlns:xlink="http://www.w3.org/1999/xlink" x="0px" y="0px"
	 viewBox="0 0 33 33" style="enable-background:new 0 0 33 33;" xml:space="preserve">
<style type="text/css">
	.st0{fill:#FFFFFF;}
</style>
<path class="st0" d="M19,20.1L12.9,14c-0.3-0.3-0.3-0.8,0-1.1l0,0c0.3-0.3,0.8-0.3,1.1,0l6.1,6.1c0.3,0.3,0.3,0.8,0,1.1l0,0
	C19.8,20.5,19.3,20.5,19,20.1z"/>
<path class="st0" d="M12.9,19l6.1-6.1c0.3-0.3,0.8-0.3,1.1,0l0,0c0.3,0.3,0.3,0.8,0,1.1L14,20.1c-0.3,0.3-0.8,0.3-1.1,0l0,0
	C12.5,19.8,12.5,19.3,12.9,19z"/>
</svg>
