<?xml version="1.0" encoding="utf-8"?>
<!-- Generator: Adobe Illustrator 21.0.0, SVG Export Plug-In . SVG Version: 6.00 Build 0)  -->
<svg version="1.1" id="Layer_1" xmlns="http://www.w3.org/2000/svg" xmlns:xlink="http://www.w3.org/1999/xlink" x="0px" y="0px"
	 viewBox="0 0 20 20" style="enable-background:new 0 0 20 20;" xml:space="preserve">
<style type="text/css">
	.st0{fill:#78869F;}
</style>
<path class="st0" d="M10.7,1.4l1.9,5.8h6.1c0.4,0,0.8,0.3,0.8,0.8c0,0.3-0.1,0.5-0.3,0.6l-4.9,3.6l1.9,5.8c0.1,0.4-0.1,0.8-0.5,1
	c-0.3,0.1-0.5,0-0.7-0.1l-5-3.7l-4.9,3.6C4.8,19.1,4.3,19,4,18.6c-0.2-0.2-0.2-0.5-0.1-0.7l1.9-5.8l-5-3.5C0.5,8.3,0.4,7.9,0.6,7.5
	C0.8,7.3,1,7.2,1.3,7.2h6l1.9-5.8c0.1-0.4,0.6-0.6,1-0.5C10.5,1,10.7,1.2,10.7,1.4L10.7,1.4z M11.3,8.2l-1.3-4l-1.3,4
	C8.6,8.5,8.3,8.7,8,8.7H3.7l3.4,2.5c0.3,0.2,0.4,0.5,0.3,0.9l-1.3,4l3.4-2.5c0.3-0.2,0.6-0.2,0.9,0l3.4,2.5l-1.3-4
	c-0.1-0.3,0-0.7,0.3-0.9l3.4-2.5H12C11.7,8.8,11.4,8.6,11.3,8.2z"/>
</svg>
