<?xml version="1.0" encoding="utf-8"?>
<!-- Generator: Adobe Illustrator 21.0.0, SVG Export Plug-In . SVG Version: 6.00 Build 0)  -->
<svg version="1.1" id="Layer_1" xmlns="http://www.w3.org/2000/svg" xmlns:xlink="http://www.w3.org/1999/xlink" x="0px" y="0px"
	 viewBox="0 0 122 80" style="enable-background:new 0 0 122 80;" xml:space="preserve">
<style type="text/css">
	.st0{fill-rule:evenodd;clip-rule:evenodd;fill:#8CB5F3;}
</style>
<path class="st0" d="M23.9,41.6l-15-11.7c-0.2-0.2-0.5-0.2-0.7-0.1c-0.2,0.1-0.4,0.4-0.4,0.6v2.1l14.5,11.3c1.3,1,1.3,3,0,4.1
	c-1,0.7-2.2,0.7-3.1,0l-17.9-14c-0.2-0.2-0.5-0.2-0.7-0.1C0.1,33.9,0,34.1,0,34.4v27c0,1.4,0.7,2.6,2,3.2c1.2,0.6,2.6,0.5,3.7-0.4
	l18.2-14.2C26.6,47.8,26.6,43.7,23.9,41.6z"/>
</svg>
