<?xml version="1.0" encoding="utf-8"?>
<!-- Generator: Adobe Illustrator 21.0.0, SVG Export Plug-In . SVG Version: 6.00 Build 0)  -->
<svg version="1.1" id="Layer_1" xmlns="http://www.w3.org/2000/svg" xmlns:xlink="http://www.w3.org/1999/xlink" x="0px" y="0px"
	 viewBox="0 0 20 20" style="enable-background:new 0 0 20 20;" xml:space="preserve">
<style type="text/css">
	.st0{fill:#F37748;}
</style>
<path class="st0" d="M16.8,8.5c0-0.3-0.3-0.6-0.6-0.6h-4.5l-1.4-4.3c-0.1-0.2-0.2-0.3-0.4-0.4C9.6,3.1,9.3,3.3,9.2,3.6L7.8,7.9H3.3
	C3.1,7.9,2.9,8,2.8,8.1C2.6,8.4,2.7,8.8,2.9,9l3.7,2.7L5.2,16c-0.1,0.2,0,0.4,0.1,0.5c0.2,0.3,0.5,0.3,0.8,0.1l3.7-2.7l3.6,2.6
	c0.1,0.1,0.4,0.2,0.6,0.1c0.3-0.1,0.5-0.4,0.4-0.7L13,11.6L16.6,9C16.7,8.8,16.8,8.7,16.8,8.5z"/>
</svg>
