<?xml version="1.0" encoding="utf-8"?>
<!-- Generator: Adobe Illustrator 21.0.0, SVG Export Plug-In . SVG Version: 6.00 Build 0)  -->
<svg version="1.1" id="Layer_1" xmlns="http://www.w3.org/2000/svg" xmlns:xlink="http://www.w3.org/1999/xlink" x="0px" y="0px"
	 viewBox="0 0 32 32" style="enable-background:new 0 0 32 32;" xml:space="preserve">
<style type="text/css">
	.st0{fill:#78869F;}
</style>
<path class="st0" d="M22.7,15.6l-6.2-6.2C16.3,9.1,16,9,15.6,9h-4.7C9.9,9,9,9.9,9,10.9v4.7c0,0.4,0.1,0.7,0.4,1l6.2,6.2
	c0.9,0.9,2.5,0.9,3.4,0l3.8-3.8C23.7,18,23.7,16.5,22.7,15.6z M13.3,13.1c-0.6,0.6-1.4,0.6-2,0s-0.6-1.4,0-2s1.4-0.6,2,0
	C13.9,11.7,13.9,12.6,13.3,13.1z"/>
</svg>
