<?xml version="1.0" encoding="utf-8"?>
<!-- Generator: Adobe Illustrator 21.0.0, SVG Export Plug-In . SVG Version: 6.00 Build 0)  -->
<svg version="1.1" id="Layer_1" xmlns="http://www.w3.org/2000/svg" xmlns:xlink="http://www.w3.org/1999/xlink" x="0px" y="0px"
	 viewBox="0 0 32 32" style="enable-background:new 0 0 32 32;" xml:space="preserve">
<style type="text/css">
	.st0{fill-rule:evenodd;clip-rule:evenodd;fill:#74839D;}
</style>
<path class="st0" d="M10.6,16.4l4.3,1.8c0.4,0.2,0.9,0.2,1.3,0l4.3-1.8c0.1-0.1,0.3,0,0.4,0c0.1,0.1,0.2,0.2,0.2,0.3v3.2
	c0,0.1-0.1,0.2-0.2,0.3l-4.6,2c-0.4,0.2-0.9,0.2-1.3,0l-4.6-2C10.1,20.1,10,20,10,19.9v-3.2c0-0.1,0.1-0.2,0.2-0.3
	C10.3,16.4,10.5,16.4,10.6,16.4z"/>
<path class="st0" d="M7.1,12.6l7.7-3c0.4-0.2,0.9-0.2,1.3,0l7.7,3c0.3,0.1,0.4,0.3,0.4,0.5c0,0.2-0.2,0.4-0.4,0.5l-7.7,3
	c-0.4,0.2-0.9,0.2-1.3,0l-7.7-3c-0.3-0.1-0.4-0.3-0.4-0.5C6.7,12.9,6.8,12.7,7.1,12.6z"/>
<path class="st0" d="M22.5,18.9L22.5,18.9c-0.3,0-0.5-0.2-0.5-0.5v-4.8c0-0.3,0.2-0.5,0.5-0.5l0,0c0.3,0,0.5,0.2,0.5,0.5v4.8
	C23,18.7,22.8,18.9,22.5,18.9z"/>
</svg>
