<?xml version="1.0" encoding="utf-8"?>
<!-- Generator: Adobe Illustrator 21.0.0, SVG Export Plug-In . SVG Version: 6.00 Build 0)  -->
<svg version="1.1" id="Layer_1" xmlns="http://www.w3.org/2000/svg" xmlns:xlink="http://www.w3.org/1999/xlink" x="0px" y="0px"
	 viewBox="0 0 100 100" style="enable-background:new 0 0 100 100;" xml:space="preserve">
<style type="text/css">
	.st0{fill-rule:evenodd;clip-rule:evenodd;fill:#B2D1FF;}
	.st1{fill-rule:evenodd;clip-rule:evenodd;fill:#DEDEE7;}
	.st2{fill-rule:evenodd;clip-rule:evenodd;fill:#996F26;}
	.st3{fill-rule:evenodd;clip-rule:evenodd;fill:#B3822C;}
	.st4{fill-rule:evenodd;clip-rule:evenodd;fill:#CC9432;}
	.st5{fill-rule:evenodd;clip-rule:evenodd;fill:#607541;}
	.st6{fill-rule:evenodd;clip-rule:evenodd;fill:#758E4F;}
	.st7{fill-rule:evenodd;clip-rule:evenodd;fill:#F58960;}
	.st8{fill-rule:evenodd;clip-rule:evenodd;fill:#879D66;}
	.st9{fill-rule:evenodd;clip-rule:evenodd;fill:#C9CFD9;}
	.st10{fill-rule:evenodd;clip-rule:evenodd;fill:#4C5C33;}
	.st11{opacity:0.6;fill-rule:evenodd;clip-rule:evenodd;fill:#D9EAFF;}
</style>
<ellipse transform="matrix(0.9385 -0.3453 0.3453 0.9385 -12.1986 22.3347)" class="st0" cx="56.6" cy="45.4" rx="9.5" ry="15.1"/>
<path class="st1" d="M69.5,95.7c1.3,0.3,2.1,0.8,2.1,1.3c0,1.1-4,2-9,2c-5,0-9-0.9-9-2c0-0.1,0-0.1,0-0.2C49,96.9,43.8,97,38.4,97
	C17.2,97,0,95.5,0,93.8c0-1.8,17.2-3.2,38.4-3.2c21.2,0,38.4,1.4,38.4,3.2C76.9,94.5,74.1,95.1,69.5,95.7L69.5,95.7z M47.7,98.1
	c-3.3,0-5.9,0.4-5.9,0.9c0,0.5,2.6,0.9,5.9,0.9c3.3,0,5.9-0.4,5.9-0.9C53.6,98.5,51,98.1,47.7,98.1z"/>
<path class="st2" d="M37.3,68.6L37.3,68.6c0.5,0.4,0.5,1.1,0.1,1.6L19.6,91.7c-0.4,0.5-1.1,0.5-1.6,0.1l0,0
	c-0.5-0.4-0.5-1.1-0.1-1.6l17.8-21.5C36.1,68.3,36.8,68.2,37.3,68.6z"/>
<path class="st3" d="M35.7,68.5L35.7,68.5c-0.5,0.4-0.5,1.1-0.1,1.6l17.8,21.5c0.4,0.5,1.1,0.5,1.6,0.1l0,0c0.5-0.4,0.5-1.1,0.1-1.6
	L37.3,68.6C36.9,68.1,36.2,68.1,35.7,68.5z"/>
<path class="st4" d="M36.2,68.3L36.2,68.3c0.6-0.1,1.2,0.3,1.3,0.9l5.4,24.8c0.1,0.6-0.3,1.2-0.9,1.3l0,0c-0.6,0.1-1.2-0.3-1.3-0.9
	l-5.4-24.8C35.2,69,35.5,68.4,36.2,68.3z"/>
<path class="st5" d="M35.5,59.6c0-0.5,0.4-0.9,0.9-0.9s0.9,0.4,0.9,0.9v9.8c0,0.5-0.4,0.9-0.9,0.9s-0.9-0.4-0.9-0.9V59.6z"/>
<circle class="st6" cx="36.4" cy="69.4" r="2.6"/>
<circle class="st5" cx="36.4" cy="69.4" r="1.1"/>
<path class="st7" d="M49.4,6.8l0.4-0.3c1.9,2,5.1,2.1,7,0.2L57.1,7c-2,1.9-2.1,5.1-0.2,7l-0.4,0.3c-1.9-2-5.1-2.1-7-0.2l-0.3-0.4
	C51.2,11.9,51.3,8.8,49.4,6.8z"/>
<path class="st7" d="M69,0h0.2c0,1.4,1.1,2.5,2.5,2.5v0.2c-1.4,0-2.5,1.1-2.5,2.5H69c0-1.4-1.1-2.5-2.5-2.5V2.5
	C67.9,2.5,69,1.4,69,0z"/>
<path class="st7" d="M80.2,20.5l0.4,0.2c-1.1,2.3-0.1,5,2.2,6l-0.2,0.4c-2.3-1.1-5-0.1-6,2.2l-0.4-0.2c1.1-2.3,0.1-5-2.2-6l0.2-0.4
	C76.4,23.8,79.1,22.8,80.2,20.5z"/>
<path class="st5" d="M13.2,65.6l-2.7-7.4c-0.2-0.6,0-1.3,0.7-1.6l12.2-6.1L28,63.1l-13.3,3.3C14.1,66.6,13.4,66.2,13.2,65.6z"/>
<path class="st6" d="M28.1,63.2l-4.8-12.9c-0.2-0.6,0-1.3,0.6-1.6l12-6.9l7.2,19.7l-13.6,2.6C28.9,64.2,28.3,63.8,28.1,63.2z"/>
<path class="st8" d="M43.4,62.2l-7.8-21.1c-0.2-0.6,0-1.3,0.6-1.6l16.3-9.9l11.2,30.4l-18.8,3C44.3,63.2,43.7,62.8,43.4,62.2z"/>
<path class="st9" d="M51.5,28.7l1.6-0.6c0.4-0.1,0.8,0.1,1,0.5l11.5,31.2c0.1,0.4-0.1,0.8-0.5,1l-1.6,0.6c-0.4,0.1-0.8-0.1-1-0.5
	L51.1,29.7C50.9,29.3,51.1,28.9,51.5,28.7z"/>
<path class="st10" d="M7.9,64.5l-0.8-2c-0.2-0.6,0-1.2,0.5-1.6l3.1-2l2.2,6.1l-3.7,0.4C8.6,65.4,8.1,65.1,7.9,64.5z"/>
<polygon class="st5" points="43.2,61.5 35.9,41.8 37.1,62.7 "/>
<polygon class="st10" points="28,63.1 23.4,50.5 24.1,64.1 "/>
<path class="st11" d="M62.7,40.6c-0.7,0.8-2.3,0.2-3.5-1.2c-1.3-1.5-1.8-3.3-1.1-4.1c0.7-0.8,2.3-0.2,3.5,1.2
	C62.8,38,63.3,39.8,62.7,40.6z"/>
</svg>
