<?xml version="1.0" encoding="utf-8"?>
<!-- Generator: Adobe Illustrator 21.0.0, SVG Export Plug-In . SVG Version: 6.00 Build 0)  -->
<svg version="1.1" id="Layer_1" xmlns="http://www.w3.org/2000/svg" xmlns:xlink="http://www.w3.org/1999/xlink" x="0px" y="0px"
	 viewBox="0 0 206.3 320" style="enable-background:new 0 0 206.3 320;" xml:space="preserve">
<style type="text/css">
	.st0{fill:#F1F3F4;}
	.st1{fill:#4A5F80;}
	.st2{fill:#B6B9D1;}
	.st3{fill:#8BB4F2;}
	.st4{fill:#9DC4FF;}
	.st5{fill:#FFFFFF;}
	.st6{fill:#AAADC8;}
	.st7{fill:#BCBFD5;}
	.st8{fill:#E0E2F1;}
	.st9{fill:#B57C85;}
	.st10{fill:#DDDDE6;}
	.st11{fill:#D1D9D9;}
	.st12{fill:#F8B600;}
	.st13{fill:#FFD342;}
	.st14{fill:#CB9332;}
	.st15{fill:#869C66;}
	.st16{fill:#B2B2B2;}
	.st17{fill:#E5E5E5;}
	.st18{fill:#758D4F;}
	.st19{fill:#B4B5B5;}
	.st20{fill:url(#SVGID_1_);}
	.st21{fill:url(#SVGID_2_);}
	.st22{fill:#383A3A;}
</style>
<path class="st0" d="M169.5,152.9c0.4-0.1,0.8,0.2,0.9,0.6c0.1,0.4-0.2,0.8-0.6,0.9l-13.6,2.9c-0.4,0.1-0.8-0.2-0.9-0.6
	c-0.1-0.4,0.2-0.8,0.6-0.9L169.5,152.9z"/>
<path class="st0" d="M152.8,150.5L152.8,150.5c5.2,3,7.8,6.9,7.9,10.8c0.1,3.9-2.4,7.8-7.5,10.7c-1.7,1-3.3,1.9-5,2.9
	s-3.3,1.9-5,2.9c-4.6,2.7-12.3,2.6-17-0.1c-3.4-2-6.8-3.9-10.2-5.9c-3.4-2-6.8-3.9-10.2-5.9c-4.7-2.7-4.8-7.2-0.2-9.8
	c1.7-1,3.3-1.9,5-2.9s3.3-1.9,5-2.9c5.1-2.9,11.8-4.4,18.6-4.3C140.9,146,147.7,147.5,152.8,150.5z"/>
<path class="st0" d="M53.8,141c13.9,8,27.8,16,41.7,24.1c13.9,8,27.8,16,41.7,24.1c2.3,1.3,2.1,3.6-0.5,5.1
	c-7.7,4.4-15.4,8.9-23.1,13.3s-15.4,8.9-23.1,13.3c-2.6,1.5-6.6,1.6-8.9,0.3C68.4,213.6,55.2,206,42,198.3
	c-13.2-7.6-26.4-15.2-39.6-22.8c-2.3-1.3-2.1-3.6,0.5-5.1c8.5-4.9,16.9-9.8,25.4-14.7C36.8,150.8,45.3,145.9,53.8,141z"/>
<path class="st0" d="M156.7,177.8c0.3-0.2,0.8-0.1,1,0.2c0.2,0.3,0.1,0.8-0.2,1l-19.1,11.5c-0.3,0.2-0.8,0.1-1-0.2
	c-0.2-0.3-0.1-0.8,0.2-1L156.7,177.8z"/>
<path class="st1" d="M172.4,93c2-0.3,5.2-0.8,5.1,4c-0.1,4.9-3.7,3-5.9,1.6L172.4,93L172.4,93z M131.5,59.1c0-3.5,2.7-4.3,4.3-3.5
	c1.6,0.8-0.4,3-0.4,3L131.5,59.1z"/>
<path class="st2" d="M105.8,158.3c0,0.8-0.6,1.4-1.4,1.4s-1.4-0.6-1.4-1.4v-36.2c0-0.8,0.6-1.4,1.4-1.4s1.4,0.6,1.4,1.4V158.3z"/>
<path class="st2" d="M158.6,128c-0.3-0.7,0.1-1.5,0.8-1.8c0.7-0.3,1.5,0.1,1.8,0.8l9.8,25.4c0.3,0.7-0.1,1.5-0.8,1.8
	c-0.7,0.3-1.5-0.1-1.8-0.8L158.6,128z"/>
<path class="st2" d="M136.6,175.3c0,0.8-0.6,1.4-1.4,1.4s-1.4-0.6-1.4-1.4v-36.2c0-0.8,0.6-1.4,1.4-1.4s1.4,0.6,1.4,1.4V175.3z"/>
<path class="st2" d="M168.1,83.6v20.7c0,2.1-0.6,4.3-1.6,6.2s-2.4,3.6-4,4.5l-12.6,7.3l-1.4-2.4l12.6-7.3c1.1-0.7,2.2-1.9,3-3.4
	s1.3-3.3,1.3-4.9V83.6H168.1z"/>
<path class="st2" d="M148.5,73.5v20.7c0,2.1-0.6,4.3-1.6,6.2s-2.4,3.6-4,4.5l-12.6,7.3l-1.4-2.4l12.6-7.3c1.1-0.7,2.2-1.9,3-3.4
	s1.3-3.3,1.3-4.9V73.5L148.5,73.5L148.5,73.5z"/>
<path class="st1" d="M155.5,110.5L155.5,110.5c5.8,3.3,8.7,7.7,8.8,12.1c0.1,4.4-2.7,8.7-8.4,12c-1.9,1.1-3.7,2.2-5.6,3.2
	c-1.9,1.1-3.7,2.2-5.6,3.2c-5.2,3-13.7,2.9-19-0.1c-3.8-2.2-7.6-4.4-11.4-6.6c-3.8-2.2-7.6-4.4-11.4-6.6c-5.3-3-5.4-8-0.2-11
	c1.9-1.1,3.7-2.2,5.6-3.2c1.9-1.1,3.7-2.2,5.6-3.2c5.7-3.3,13.2-4.9,20.7-4.8C142.1,105.4,149.7,107.1,155.5,110.5z"/>
<path class="st3" d="M155.5,107.4L155.5,107.4c5.8,3.3,8.7,7.7,8.8,12.1c0.1,4.4-2.7,8.7-8.4,12c-1.9,1.1-3.7,2.2-5.6,3.2
	c-1.9,1.1-3.7,2.2-5.6,3.2c-5.2,3-13.7,2.9-19-0.1c-3.8-2.2-7.6-4.4-11.4-6.6c-3.8-2.2-7.6-4.4-11.4-6.6c-5.3-3-5.4-8-0.2-11
	c1.9-1.1,3.7-2.2,5.6-3.2c1.9-1.1,3.7-2.2,5.6-3.2c5.7-3.3,13.2-4.9,20.7-4.8C142.1,102.4,149.7,104.1,155.5,107.4z"/>
<path class="st4" d="M144.4,113.8L144.4,113.8c3.1,1.8,4.7,4.1,4.7,6.5c0,2.3-1.5,4.7-4.5,6.4c-1,0.6-2,1.2-3,1.7
	c-1,0.6-2,1.2-3,1.7c-2.8,1.6-7.4,1.6-10.2-0.1c-2-1.2-4.1-2.4-6.1-3.5c-2-1.2-4.1-2.4-6.1-3.5c-2.8-1.6-2.9-4.3-0.1-5.9
	c1-0.6,2-1.2,3-1.7c1-0.6,2-1.2,3-1.7c3-1.8,7.1-2.6,11.1-2.6C137.2,111.1,141.3,112,144.4,113.8z"/>
<path class="st1" d="M135.8,55.6c6.5,3.8,13.1,7.5,19.6,11.3c6.5,3.8,13.1,7.5,19.6,11.3c1.4,0.8,2.5,2.9,2.5,4.8c0,2.2,0,4.5,0,6.7
	s0,4.5,0,6.7c0,1.8-1.1,2.7-2.5,1.9c-6.5-3.8-13.1-7.5-19.6-11.3s-13.1-7.5-19.6-11.3c-1.4-0.8-2.5-2.9-2.5-4.8c0-2.2,0-4.5,0-6.7
	c0-2.2,0-4.5,0-6.7C133.3,55.7,134.4,54.8,135.8,55.6z"/>
<path class="st3" d="M134,56.9c6.5,3.8,13.1,7.5,19.6,11.3s13.1,7.5,19.6,11.3c1.4,0.8,2.5,2.9,2.5,4.8c0,2.2,0,4.5,0,6.7
	s0,4.5,0,6.7c0,1.8-1.1,2.7-2.5,1.9c-6.5-3.8-13.1-7.5-19.6-11.3S140.5,80.8,134,77c-1.4-0.8-2.5-2.9-2.5-4.8c0-2.2,0-4.5,0-6.7
	c0-2.2,0-4.5,0-6.7C131.5,57,132.7,56.1,134,56.9z"/>
<path class="st5" d="M167.7,84.4c0.1,0,0.2,0.1,0.2,0.2c0.1,0.1,0.1,0.2,0.2,0.3s0.1,0.2,0.1,0.4s0,0.3,0,0.4c0,0.1,0,0.3,0,0.4
	s-0.1,0.2-0.1,0.2c-0.1,0.1-0.1,0.1-0.2,0.1s-0.1,0-0.2-0.1c-0.1,0-0.2-0.1-0.2-0.2c-0.1-0.1-0.1-0.2-0.2-0.3s-0.1-0.2-0.1-0.4
	c0-0.1,0-0.3,0-0.4c0-0.1,0-0.3,0-0.3c0-0.1,0.1-0.2,0.1-0.2c0.1-0.1,0.1-0.1,0.2-0.1C167.5,84.4,167.6,84.4,167.7,84.4z"/>
<path class="st5" d="M141.4,69.3c0.1,0,0.2,0.1,0.2,0.2c0.1,0.1,0.1,0.2,0.2,0.3s0.1,0.2,0.1,0.4c0,0.1,0,0.3,0,0.4
	c0,0.1,0,0.3,0,0.4c0,0.1-0.1,0.2-0.1,0.2c-0.1,0.1-0.1,0.1-0.2,0.1s-0.1,0-0.2-0.1c-0.1,0-0.2-0.1-0.2-0.2
	c-0.1-0.1-0.1-0.2-0.2-0.3s-0.1-0.2-0.1-0.4c0-0.1,0-0.3,0-0.4c0-0.1,0-0.3,0-0.3c0-0.1,0.1-0.2,0.1-0.2c0.1-0.1,0.1-0.1,0.2-0.1
	C141.2,69.2,141.3,69.2,141.4,69.3z"/>
<polygon class="st6" points="15.3,110.1 15.3,169.8 16.7,170.6 16.7,110.9 "/>
<polygon class="st7" points="16.7,170.6 21.7,167.7 23.9,122 16.7,117.8 "/>
<polygon class="st2" points="16.7,117.8 16.7,110.9 92.9,154.7 92.9,161.8 "/>
<polygon class="st6" points="92.9,154.7 92.9,214.6 94.3,215.4 94.3,155.1 "/>
<polygon class="st8" points="94.3,154.8 94.3,215.4 99,212.6 101.9,152.5 "/>
<polygon class="st8" points="101.9,153.2 101.6,158.5 140,136.4 157.8,178.7 161,176.8 144.1,129 "/>
<path class="st9" d="M68.1,77.8c13.2,7.6,26.4,15.2,39.6,22.8s26.4,15.2,39.6,22.9c2.3,1.3,2.1,3.6-0.5,5.1
	c-7.7,4.4-15.4,8.9-23.1,13.3c-7.7,4.4-15.4,8.9-23.1,13.3c-2.6,1.5-6.6,1.6-8.9,0.3c-13.2-7.6-26.4-15.2-39.6-22.9
	c-13.2-7.6-26.4-15.2-39.6-22.8c-2.3-1.3-2.1-3.6,0.5-5.1c7.7-4.4,15.4-8.9,23.1-13.3c7.7-4.4,15.4-8.9,23.1-13.3
	C61.8,76.6,65.8,76.5,68.1,77.8z"/>
<path class="st9" d="M98.5,94.8l-34.6-20l14.3-8.2c1.6-0.9,3.4-0.9,5,0L106.5,80c0.6,0.4,1.1,1,1.2,1.7s0,1.4-0.5,2L98.5,94.8z"/>
<path class="st0" d="M98.5,92.6l-34.6-20l14.3-8.3c1.6-0.9,3.4-0.9,5,0l23.3,13.4c0.6,0.4,1.1,1,1.2,1.7s0,1.4-0.5,2L98.5,92.6z"/>
<path class="st0" d="M63.9,72.6c13.9,8,27.8,16,41.7,24.1c13.9,8,27.8,16,41.7,24.1c2.3,1.3,2.1,3.6-0.5,5.1
	c-7.7,4.4-15.4,8.9-23.1,13.3c-7.7,4.4-15.4,8.9-23.1,13.3c-2.6,1.5-6.6,1.6-8.9,0.3c-13.2-7.6-26.4-15.2-39.6-22.9
	c-13.2-7.6-26.4-15.2-39.6-22.8c-2.3-1.3-2.1-3.6,0.5-5.1c8.5-4.9,16.9-9.8,25.4-14.7C47,82.4,55.5,77.5,63.9,72.6z"/>
<polygon class="st10" points="76.4,129 59.5,112.6 92.4,99.6 112.1,115.2 "/>
<polygon class="st5" points="85.7,128 63,114.2 91.4,97.3 113.4,110.2 "/>
<path class="st11" d="M83.8,83.9L46,97.3l4.3,3.4c0.9,0.7,1.9,0.9,2.9,0.5l33.1-11.1c0.7-0.2,1.3-0.8,1.4-1.6s-0.1-1.5-0.7-2
	L83.8,83.9z"/>
<path class="st12" d="M46.8,67.5c5.8-1.8,11.6-3.5,17.4-5.3c5.8-1.8,8.3-2.5,14.1-4.3c2.7-0.8,7.2-0.2,8.2,4.3c0,3.7,0,6.6,0,10.4
	c0,3.7,0,7.5,0,11.2c0,2.2-1.5,4.4-3.2,4.9c-5.4,1.6-10.7,3.3-16.1,4.9c-5.4,1.6-12,3.7-17.4,5.3c-2.1,0.6-5-2.9-5-2.9
	c-1.4-1.3-1.2-4.4-1.2-6.9c0-3.2,0-3.9,0-7.1c0-3.2,0-6.4,0-9.6C43.6,70.3,45,68,46.8,67.5z"/>
<path class="st13" d="M50.1,70c5.6-1.7,11.1-3.3,16.7-5c5.6-1.7,11.1-3.3,16.7-5c1.6-0.5,3,0.7,3,2.7c0,3.6,0,7.3,0,10.9
	c0,3.6,0,7.3,0,10.9c0,1.9-1.3,3.9-3,4.4c-5.6,1.7-11.1,3.3-16.7,5s-11.1,3.3-16.7,5c-1.6,0.5-2.9-0.7-2.9-2.7c0-3.6,0-7.3,0-10.9
	s0-7.3,0-10.9C47.2,72.4,48.5,70.4,50.1,70z"/>
<path class="st14" d="M60.8,65.1c-0.3-0.3-0.3-0.8,0-1c0.3-0.3,0.8-0.3,1,0l1.2,1.2l0,0c0.3,0.3,0.5,0.4,0.7,0.5s0.5,0.1,0.8,0
	l7.7-2.4L71,62.2c-0.3-0.3-0.3-0.8,0-1c0.3-0.3,0.8-0.3,1,0l1.3,1.3c0.2,0.2,0.3,0.4,0.3,0.6c0.1,0.2,0.1,0.5,0,0.7
	s-0.2,0.4-0.3,0.6c-0.2,0.2-0.4,0.3-0.6,0.4c-0.3,0-7.1,2.1-7.9,2.4c-0.6,0.2-1.1,0.2-1.6,0.1c-0.5-0.1-0.9-0.4-1.4-0.9l0,0
	L60.8,65.1z"/>
<path class="st5" d="M80,80.1c0.8-0.3,1.6-0.2,2.2,0.2c0.5,0.4,0.9,1.1,0.9,2s-0.3,1.8-0.9,2.6c-0.5,0.8-1.3,1.4-2.2,1.7
	c-0.9,0.3-1.6,0.2-2.2-0.2s-0.9-1.1-0.9-2s0.4-1.8,0.9-2.6C78.3,81,79.1,80.4,80,80.1z"/>
<path class="st15" d="M80,80.8c0.7-0.2,1.2-0.1,1.7,0.2c0.4,0.3,0.7,0.8,0.7,1.5s-0.3,1.4-0.7,2c-0.4,0.6-1,1.1-1.7,1.3
	s-1.2,0.2-1.7-0.1c-0.4-0.3-0.7-0.8-0.7-1.5s0.3-1.4,0.7-2C78.7,81.5,79.3,81,80,80.8z"/>
<path class="st16" d="M55.9,65.9c0.2,0.2,0.4,0.4,0.6,0.6c0.2,0.2,0.4,0.4,0.6,0.6c0.1,0.1,0.1,0.3-0.1,0.3c-0.1,0-0.2,0.1-0.3,0.1
	s-0.2,0.1-0.3,0.1c-0.2,0-0.4,0-0.5-0.1c-0.2-0.2-0.4-0.4-0.6-0.6c-0.2-0.2-0.4-0.4-0.6-0.6c-0.1-0.1-0.1-0.2,0.1-0.3
	c0.1,0,0.2-0.1,0.3-0.1s0.2-0.1,0.3-0.1C55.6,65.7,55.8,65.7,55.9,65.9z"/>
<path class="st17" d="M56,65.7c0.2,0.2,0.4,0.4,0.6,0.6c0.2,0.2,0.4,0.4,0.6,0.6c0.1,0.1,0.1,0.3-0.1,0.3c-0.1,0-0.2,0.1-0.3,0.1
	s-0.2,0.1-0.3,0.1c-0.2,0-0.4,0-0.5-0.1c-0.2-0.2-0.4-0.4-0.6-0.6c-0.2-0.2-0.4-0.4-0.6-0.6c-0.1-0.1-0.1-0.2,0.1-0.3
	c0.1,0,0.2-0.1,0.3-0.1s0.2-0.1,0.3-0.1C55.7,65.5,55.9,65.6,56,65.7z"/>
<path class="st16" d="M77.5,59.3c0.2,0.2,0.4,0.4,0.6,0.6c0.2,0.2,0.4,0.4,0.6,0.6c0.1,0.1,0.1,0.3-0.1,0.3c-0.1,0-0.2,0.1-0.3,0.1
	c-0.1,0-0.2,0.1-0.3,0.1c-0.2,0-0.4,0-0.5-0.1c-0.2-0.2-0.4-0.4-0.6-0.6c-0.2-0.2-0.4-0.4-0.6-0.6c-0.1-0.1-0.1-0.2,0.1-0.3
	c0.1,0,0.2-0.1,0.3-0.1c0.1,0,0.2-0.1,0.3-0.1C77.1,59.1,77.4,59.2,77.5,59.3z"/>
<path class="st17" d="M77.5,59.1c0.2,0.2,0.4,0.4,0.6,0.6c0.2,0.2,0.4,0.4,0.6,0.6c0.1,0.1,0.1,0.3-0.1,0.3c-0.1,0-0.2,0.1-0.3,0.1
	c-0.1,0-0.2,0.1-0.3,0.1c-0.2,0-0.4,0-0.5-0.1c-0.2-0.2-0.4-0.4-0.6-0.6c-0.2-0.2-0.4-0.4-0.6-0.6c-0.1-0.1-0.1-0.2,0.1-0.3
	c0.1,0,0.2-0.1,0.3-0.1c0.1,0,0.2-0.1,0.3-0.1C77.2,58.9,77.4,59,77.5,59.1z"/>
<polygon class="st18" points="80.4,104.2 80.5,103.5 90.8,106 90.1,106.2 90.6,106.7 89.9,106.9 90.4,107.4 80.2,104.9 "/>
<path class="st19" d="M80.7,103.6l-0.3,1.3c0,0.1-0.1,0.1-0.2,0.1l-0.9-0.2c-0.1,0-0.1-0.1-0.1-0.2l0.3-1.3c0-0.1,0.1-0.1,0.2-0.1
	l0.9,0.2C80.7,103.4,80.7,103.5,80.7,103.6z"/>
<linearGradient id="SVGID_1_" gradientUnits="userSpaceOnUse" x1="78.9198" y1="216.7536" x2="78.6658" y2="215.7265" gradientTransform="matrix(1 0 0 -1 0 320)">
	<stop  offset="0" style="stop-color:#F09083"/>
	<stop  offset="1" style="stop-color:#D46351"/>
</linearGradient>
<path class="st20" d="M79.5,103.3l-0.3,1.3l-0.5-0.1c-0.4-0.1-0.6-0.5-0.5-0.8l0,0c0.1-0.4,0.5-0.6,0.8-0.5L79.5,103.3z"/>
<linearGradient id="SVGID_2_" gradientUnits="userSpaceOnUse" x1="91.3833" y1="213.5005" x2="91.1358" y2="212.5" gradientTransform="matrix(1 0 0 -1 0 320)">
	<stop  offset="0" style="stop-color:#E8E7C8"/>
	<stop  offset="1" style="stop-color:#BAB990"/>
</linearGradient>
<polygon class="st21" points="90.8,106 92.6,107.2 90.4,107.4 89.9,106.9 90.6,106.7 90.1,106.2 "/>
<path class="st22" d="M91.8,106.7l0.7,0.5l-0.9,0.1c0-0.1,0-0.2,0-0.3C91.7,106.9,91.8,106.8,91.8,106.7z"/>
<polygon class="st6" points="140,136.4 157.8,178.7 156.4,178.2 138.7,136.8 "/>
<path class="st5" d="M153.6,119.4c0,0.1-0.1,0.2-0.2,0.2c-0.1,0.1-0.2,0.1-0.3,0.2c-0.1,0.1-0.2,0.1-0.4,0.1c-0.1,0-0.3,0-0.4,0
	s-0.3,0-0.4,0s-0.2-0.1-0.2-0.1c-0.1-0.1-0.1-0.1-0.1-0.2c0-0.1,0-0.1,0.1-0.2c0-0.1,0.1-0.2,0.2-0.2c0.1-0.1,0.2-0.1,0.3-0.2
	c0.1-0.1,0.2-0.1,0.4-0.1c0.1,0,0.3,0,0.4,0s0.3,0,0.3,0c0.1,0,0.2,0.1,0.2,0.1c0.1,0.1,0.1,0.1,0.1,0.2S153.6,119.3,153.6,119.4z"
	/>
<path class="st5" d="M135,107c0,0.1-0.1,0.2-0.2,0.2c-0.1,0.1-0.2,0.1-0.3,0.2c-0.1,0.1-0.2,0.1-0.4,0.1c-0.1,0-0.3,0-0.4,0
	s-0.3,0-0.4,0s-0.2-0.1-0.2-0.1c-0.1-0.1-0.1-0.1-0.1-0.2c0-0.1,0-0.1,0.1-0.2c0-0.1,0.1-0.2,0.2-0.2c0.1-0.1,0.2-0.1,0.3-0.2
	c0.1-0.1,0.2-0.1,0.4-0.1c0.1,0,0.3,0,0.4,0s0.3,0,0.3,0c0.1,0,0.2,0.1,0.2,0.1c0.1,0.1,0.1,0.1,0.1,0.2
	C135,106.8,135,106.9,135,107z"/>
</svg>
