<?xml version="1.0" encoding="utf-8"?>
<!-- Generator: Adobe Illustrator 21.0.0, SVG Export Plug-In . SVG Version: 6.00 Build 0)  -->
<svg version="1.1" id="Layer_1" xmlns="http://www.w3.org/2000/svg" xmlns:xlink="http://www.w3.org/1999/xlink" x="0px" y="0px"
	 viewBox="0 0 115 115" style="enable-background:new 0 0 115 115;" xml:space="preserve">
<style type="text/css">
	.st0{fill:#B2D1FF;}
	.st1{fill:#78869F;}
	.st2{fill:#78869F;fill-opacity:0.302;}
</style>
<g id="Group-9">
	<path id="Shape-112" class="st0" d="M35.1,41.1h44.4c1.4,0,2.6,1.2,2.6,2.7v28H64.6v0.1c0,0.6-0.6,1.2-1.4,1.2l0,0l0,0h-0.7h-0.7
		H61h-0.7h-0.7h-0.7h-0.7h-0.7h-0.7h-0.7h-0.7h-1.1h-0.7h-0.7h-0.7h-0.7l0,0l0,0c-0.8,0-1.4-0.6-1.4-1.2v-0.1H32.5v-28
		C32.5,42.3,33.7,41.1,35.1,41.1z"/>
	<path id="Shape-111" class="st1" d="M85.3,75c-0.7,1.1-1.9,1.9-4,1.9H32.6c-2.1,0-3.3-0.8-4-1.9s-0.8-2.4-0.8-3.7
		c0-0.5,0.4-0.8,0.8-0.8h3V43.6c0-1,0.4-1.8,1-2.5c0.6-0.6,1.5-1,2.4-1h43.9c0.9,0,1.8,0.4,2.4,1s1,1.5,1,2.5v26.9h3
		c0.5,0,0.8,0.4,0.8,0.8C86.2,72.6,85.9,73.9,85.3,75z M80.5,43.6c0-0.5-0.2-1-0.5-1.3s-0.7-0.5-1.2-0.5H35c-0.5,0-0.9,0.2-1.2,0.5
		c-0.3,0.3-0.5,0.8-0.5,1.3v26.9h16.5c0.5,0,0.8,0.4,0.8,0.8c0,0.1,0,0.1,0,0.2c0,0,0,0.1,0.1,0.1c0,0,0,0,0,0.1
		c0.1,0.1,0.2,0.1,0.3,0.1s0.1,0,0.2,0h11.6c0.1,0,0.1,0,0.2,0c0.1,0,0.2-0.1,0.3-0.1l0,0c0,0,0-0.1,0.1-0.1c0-0.1,0-0.1,0-0.2
		c0-0.5,0.4-0.8,0.8-0.8h16.5v-27H80.5z M81.4,72.1H64.8c-0.1,0.3-0.3,0.5-0.5,0.7l0,0c-0.4,0.3-0.8,0.5-1.4,0.6h-0.1l0,0l0,0h-0.2
		c-3.6,0-7.9,0.2-11.3,0l0,0l0,0h-0.1h-0.1c-0.5-0.1-1-0.3-1.3-0.6l0,0c-0.2-0.2-0.4-0.4-0.5-0.7H32.3h-3c0.1,0.7,0.2,1.4,0.5,2
		c0.4,0.7,1.2,1.1,2.6,1.1h48.8c1.4,0,2.2-0.5,2.6-1.1c0.3-0.5,0.5-1.2,0.5-2H81.4z M56.1,61.3c-0.3,0.3-0.8,0.3-1.2,0
		c-0.3-0.3-0.3-0.8,0-1.2l2.9-2.9l-2.9-2.9c-0.3-0.3-0.3-0.8,0-1.2c0.3-0.3,0.8-0.3,1.2,0l3.5,3.5c0.3,0.3,0.3,0.8,0,1.2L56.1,61.3z
		"/>
	<path id="Shape-113" class="st2" d="M97.9,63.2c-0.2,0.4-0.7,0.6-1.1,0.4l-2.1-0.9l-0.9,2.1c-0.2,0.4-0.7,0.6-1.1,0.4
		s-0.6-0.7-0.4-1.1l0.9-2.1l-2.1-0.9c-0.4-0.2-0.6-0.7-0.4-1.1c0.2-0.4,0.7-0.6,1.1-0.4l2.1,0.9l0.9-2.1c0.2-0.4,0.7-0.6,1.1-0.4
		c0.4,0.2,0.6,0.7,0.4,1.1l-1,2.2l2.1,0.9C97.9,62.3,98.2,62.8,97.9,63.2z M47.3,94.3c-0.7,0.7-1.7,1.2-2.8,1.2s-2.1-0.4-2.8-1.2
		c-0.7-0.7-1.2-1.7-1.2-2.8c0-1.1,0.4-2.1,1.2-2.8l0,0c0.7-0.7,1.7-1.1,2.8-1.1s2.1,0.4,2.8,1.2l0,0c0.7,0.7,1.1,1.7,1.1,2.7
		C48.4,92.6,48.1,93.6,47.3,94.3z M46.2,89.9L46.2,89.9c-0.5-0.4-1-0.7-1.7-0.7c-0.6,0-1.2,0.2-1.6,0.6l0,0c-0.4,0.4-0.7,1-0.7,1.6
		s0.3,1.2,0.7,1.6s1,0.7,1.6,0.7s1.2-0.3,1.6-0.7c0.4-0.4,0.7-1,0.7-1.6C46.8,90.9,46.6,90.3,46.2,89.9z M46.1,25
		c-0.6,0.6-1.4,0.9-2.3,0.9s-1.7-0.4-2.3-0.9c-0.6-0.6-1-1.4-1-2.3s0.4-1.7,1-2.3c0.6-0.6,1.4-0.9,2.3-0.9c0.9,0,1.7,0.4,2.3,0.9
		l0,0c0.6,0.6,0.9,1.4,0.9,2.2C47.1,23.7,46.7,24.5,46.1,25z M44.9,21.7L44.9,21.7c-0.3-0.3-0.7-0.5-1.1-0.5s-0.8,0.2-1.1,0.5
		c-0.3,0.3-0.5,0.7-0.5,1.1s0.2,0.8,0.5,1.1c0.3,0.3,0.7,0.5,1.1,0.5c0.4,0,0.8-0.2,1.1-0.5c0.3-0.3,0.5-0.7,0.5-1.1
		C45.3,22.3,45.2,22,44.9,21.7z"/>
</g>
</svg>
