<?xml version="1.0" encoding="utf-8"?>
<!-- Generator: Adobe Illustrator 21.0.0, SVG Export Plug-In . SVG Version: 6.00 Build 0)  -->
<svg version="1.1" id="Layer_1" xmlns="http://www.w3.org/2000/svg" xmlns:xlink="http://www.w3.org/1999/xlink" x="0px" y="0px"
	 viewBox="0 0 115 115" style="enable-background:new 0 0 115 115;" xml:space="preserve">
<style type="text/css">
	.st0{fill:#B2D1FF;}
	.st1{fill:#78869F;}
	.st2{fill:#78869F;fill-opacity:0.302;}
</style>
<g id="Group-11">
	<path id="Shape-106" class="st0" d="M26.1,28.1h20.4c2.1,0,3.8,1.7,3.8,3.8v10.5c0,2.1-1.7,3.8-3.8,3.8h-2v5.1l-6.1-5.1H26.1
		c-2.1,0-3.8-1.7-3.8-3.8V31.9C22.3,29.8,24,28.1,26.1,28.1z"/>
	<path id="Shape-105" class="st1" d="M78.2,71.8L78.2,71.8c-0.1,0.2-0.2,0.4-0.3,0.5c-0.2,0.2-0.3,0.3-0.5,0.4l-0.1,0
		c-0.2,0.1-0.4,0.1-0.6,0.1H55.3c-0.2,0-0.4,0-0.6-0.1c-0.2-0.1-0.4-0.2-0.5-0.4c-0.2-0.2-0.3-0.3-0.4-0.5l0-0.1
		c-0.1-0.2-0.1-0.4-0.1-0.6l0,0c0.1-1.9,0.8-4.2,2.2-6.3c1-1.6,2.4-3,4.1-4.3c-0.3-0.2-0.5-0.5-0.8-0.7l0,0
		c-1.5-1.5-2.5-3.6-2.7-5.8c-0.7,0-1.4,0-2-0.1c-0.5,0-0.8-0.4-0.8-0.9c0-0.5,0.4-0.8,0.9-0.8c0.6,0,1.3,0,1.9,0
		c0.2-2.3,1.2-4.4,2.8-5.9c1.7-1.7,4.1-2.8,6.8-2.8c2.6,0,5.1,1.1,6.8,2.8c1.7,1.7,2.8,4.1,2.8,6.7c0,2.6-1.1,5-2.8,6.7
		c-0.3,0.3-0.5,0.5-0.8,0.7c1.7,1.2,3.1,2.7,4.1,4.3c1.4,2.2,2.2,4.5,2.2,6.3l0,0C78.3,71.4,78.3,71.6,78.2,71.8z M66,45.2
		c-2.2,0-4.2,0.9-5.6,2.3c-1.2,1.2-2,2.9-2.2,4.7c2.2-0.2,4.3-0.6,6.3-1.4c2.5-0.9,4.6-2.4,6.1-4.2C69.2,45.7,67.7,45.2,66,45.2z
		 M73.9,53c0-2.1-0.8-3.9-2.1-5.4c-1.7,2-4.1,3.6-6.7,4.6c-2.2,0.8-4.6,1.3-6.9,1.5c0.2,1.8,1,3.5,2.2,4.7l0,0
		c0.5,0.4,1,0.8,1.5,1.2c1.7,0.9,3.4,1.3,5.1,1.1c0,0,0,0,0,0c1-0.1,1.9-0.5,2.9-1c0.6-0.3,1.2-0.8,1.7-1.3
		C73,57.2,73.9,55.2,73.9,53z M74.7,65.7c-1-1.6-2.4-3-4.2-4.2c-1,0.5-2,0.9-3.2,1c-0.1,0-0.2,0-0.3,0c-0.2,0-0.4,0-0.6,0
		c-0.3,0-0.5,0-0.8,0c-0.2,0-0.5,0-0.7,0c0,0-0.1,0-0.1,0c-1.2-0.2-2.3-0.5-3.3-1c-1.8,1.2-3.2,2.7-4.2,4.2c-1.2,1.9-1.9,3.9-2,5.5
		h21.3C76.6,69.6,75.9,67.6,74.7,65.7z M46.4,47h-1.2v4.2c0,0.5-0.4,0.8-0.8,0.8c-0.2,0-0.4-0.1-0.6-0.2L38,47H26.1
		c-1.3,0-2.4-0.5-3.3-1.4c-0.8-0.8-1.4-2-1.4-3.2V31.9c0-1.3,0.5-2.4,1.4-3.2l0,0c0.8-0.8,2-1.3,3.2-1.3h20.3c1.3,0,2.4,0.5,3.3,1.3
		c0.8,0.8,1.4,2,1.4,3.2v10.5c0,1.3-0.5,2.4-1.4,3.2C48.8,46.4,47.7,47,46.4,47z M49.3,31.9c0-0.8-0.3-1.5-0.9-2.1
		c-0.5-0.5-1.3-0.9-2.1-0.9H26.1c-0.8,0-1.5,0.3-2.1,0.8l0,0c-0.5,0.5-0.9,1.3-0.9,2.1v10.5c0,0.8,0.3,1.5,0.9,2.1
		c0.5,0.5,1.3,0.9,2.1,0.9h12.1c0.2,0,0.4,0.1,0.5,0.2l4.7,3.9v-3.3c0-0.5,0.4-0.8,0.8-0.8h2c0.8,0,1.6-0.3,2.1-0.9s0.9-1.3,0.9-2.1
		V31.9z M42,40H30.2c-0.5,0-0.8-0.4-0.8-0.8s0.4-0.8,0.8-0.8H42c0.5,0,0.8,0.4,0.8,0.8S42.5,40,42,40z M42,35.8H30.2
		c-0.5,0-0.8-0.4-0.8-0.8c0-0.5,0.4-0.8,0.8-0.8H42c0.5,0,0.8,0.4,0.8,0.8C42.8,35.4,42.5,35.8,42,35.8z"/>
	<path id="Shape-114" class="st2" d="M92.7,59.2h-2.3l0,2.3c0,0.5-0.4,0.8-0.8,0.8c-0.5,0-0.8-0.4-0.8-0.8v-2.3h-2.3
		c-0.5,0-0.8-0.4-0.8-0.8s0.4-0.8,0.8-0.8h2.3v-2.3c0-0.5,0.4-0.8,0.8-0.8c0.5,0,0.8,0.4,0.8,0.8v2.3h2.3c0.5,0,0.8,0.4,0.8,0.8
		S93.1,59.2,92.7,59.2z M65,29.8c-0.9,0-1.7-0.4-2.3-0.9c-0.6-0.6-1-1.4-1-2.3c0-0.9,0.4-1.7,1-2.3c0.6-0.6,1.4-0.9,2.3-0.9
		c0.9,0,1.7,0.4,2.3,0.9l0,0c0.6,0.6,0.9,1.4,0.9,2.2c0,0.9-0.4,1.7-1,2.3C66.7,29.4,65.9,29.8,65,29.8z M66.2,25.5L66.2,25.5
		C65.9,25.2,65.5,25,65,25c-0.4,0-0.8,0.2-1.1,0.5c-0.3,0.3-0.5,0.7-0.5,1.1c0,0.4,0.2,0.8,0.5,1.1c0.3,0.3,0.7,0.5,1.1,0.5
		c0.4,0,0.8-0.2,1.1-0.5c0.3-0.3,0.5-0.7,0.5-1.1C66.6,26.1,66.4,25.7,66.2,25.5z M49.1,91.7c-0.9,0-1.7-0.4-2.3-0.9
		c-0.6-0.6-0.9-1.4-0.9-2.3c0-0.9,0.4-1.7,0.9-2.3c0.6-0.6,1.4-0.9,2.3-0.9c0.9,0,1.7,0.4,2.3,0.9l0,0c0.6,0.6,0.9,1.4,0.9,2.2
		c0,0.9-0.4,1.7-0.9,2.3C50.7,91.3,49.9,91.7,49.1,91.7z M50.2,87.4L50.2,87.4c-0.3-0.3-0.7-0.5-1.1-0.5c-0.4,0-0.8,0.2-1.1,0.5
		c-0.3,0.3-0.5,0.7-0.5,1.1c0,0.4,0.2,0.8,0.5,1.1c0.3,0.3,0.7,0.5,1.1,0.5c0.4,0,0.8-0.2,1.1-0.5c0.3-0.3,0.5-0.7,0.5-1.1
		C50.6,88.1,50.5,87.7,50.2,87.4z M36.3,66.6l1.5,1.7c0.3,0.3,0.3,0.9-0.1,1.2c-0.3,0.3-0.9,0.3-1.2-0.1L35,67.7l-1.7,1.5
		c-0.3,0.3-0.9,0.3-1.2-0.1c-0.3-0.3-0.3-0.9,0.1-1.2l1.7-1.5l-1.5-1.7c-0.3-0.3-0.3-0.9,0.1-1.2c0.3-0.3,0.9-0.3,1.2,0.1l1.5,1.7
		l1.7-1.5c0.3-0.3,0.9-0.3,1.2,0.1c0.3,0.3,0.3,0.9-0.1,1.2L36.3,66.6z"/>
</g>
</svg>
