<?xml version="1.0" encoding="utf-8"?>
<!-- Generator: Adobe Illustrator 21.0.0, SVG Export Plug-In . SVG Version: 6.00 Build 0)  -->
<svg version="1.1" id="Layer_1" xmlns="http://www.w3.org/2000/svg" xmlns:xlink="http://www.w3.org/1999/xlink" x="0px" y="0px"
	 viewBox="0 0 115 115" style="enable-background:new 0 0 115 115;" xml:space="preserve">
<style type="text/css">
	.st0{fill:#B2D1FF;}
	.st1{fill:#78869F;}
	.st2{fill:#78869F;fill-opacity:0.302;}
</style>
<g id="Group-10">
	<path id="Shape-109" class="st0" d="M39.1,38l17.6,13v28.5l-17.6-13V38z"/>
	<path id="Shape-108" class="st1" d="M78.7,73.9L57,80.3c-0.1,0-0.2,0.1-0.3,0.1h-0.2l-22.9-4.6c-0.4-0.1-0.7-0.4-0.7-0.8V46.5
		c0-0.5,0.4-0.8,0.8-0.8h0.2l4.7,0.9V38c0-0.5,0.4-0.8,0.8-0.8c0.2,0,0.4,0.1,0.5,0.2l16.8,12.7L78,43.8c0.1,0,0.2-0.1,0.3-0.1
		c0.5,0,0.8,0.4,0.8,0.8V73C79.3,73.4,79.1,73.8,78.7,73.9z M39,67.2c-0.2-0.2-0.3-0.4-0.3-0.7V48.3l-4.1-0.8v26.8L53.4,78L39,67.2z
		 M55.9,51.5L40.3,39.7v26.4l15.5,11.8V51.5H55.9z M77.6,45.7l-20.1,6v26.7l20.1-6V45.7z M43.9,46.8l9.4,7.1
		c0.4,0.3,0.4,0.8,0.2,1.2c-0.3,0.4-0.8,0.4-1.2,0.2l-9.4-7.1c-0.4-0.3-0.4-0.8-0.2-1.2C43.1,46.6,43.6,46.5,43.9,46.8z M43.9,52.1
		l9.4,7.1c0.4,0.3,0.4,0.8,0.2,1.2c-0.3,0.4-0.8,0.4-1.2,0.2l-9.4-7.1c-0.4-0.3-0.4-0.8-0.2-1.2C43.1,51.9,43.6,51.9,43.9,52.1z
		 M43.9,58.8l4.7,3.5c0.4,0.3,0.4,0.8,0.2,1.2c-0.2,0.4-0.8,0.4-1.2,0.2l-4.7-3.5c-0.4-0.3-0.4-0.8-0.2-1.2
		C43.1,58.6,43.6,58.5,43.9,58.8z"/>
	<path id="Shape-110" class="st2" d="M91.5,62l-2.3,0.6l0.6,2.3c0.1,0.5-0.1,0.9-0.6,1.1c-0.5,0.1-0.9-0.1-1.1-0.6l-0.6-2.3
		l-2.3,0.6c-0.5,0.1-0.9-0.1-1.1-0.6c-0.1-0.5,0.1-0.9,0.6-1.1l2.3-0.6l-0.6-2.3c-0.1-0.5,0.1-0.9,0.6-1.1c0.5-0.1,0.9,0.1,1.1,0.6
		l0.6,2.3l2.3-0.6c0.5-0.1,0.9,0.1,1.1,0.6C92.2,61.3,91.9,61.8,91.5,62z M44.8,26.5l1.9,2.2c0.3,0.3,0.3,0.8-0.1,1.1
		c-0.3,0.3-0.8,0.3-1.1-0.1l-1.9-2.2l-2.2,1.9c-0.3,0.3-0.8,0.3-1.1-0.1C40,29,40,28.5,40.4,28.2l2.2-1.9l-1.9-2.2
		c-0.3-0.3-0.3-0.8,0.1-1.1c0.3-0.3,0.8-0.3,1.1,0.1l1.9,2.2l2.2-1.9c0.3-0.3,0.8-0.3,1.1,0.1c0.3,0.3,0.3,0.8-0.1,1.1L44.8,26.5z
		 M42.4,86.2c0.6,0.6,0.9,1.4,0.9,2.2c0,0.9-0.4,1.7-0.9,2.3c-0.6,0.6-1.4,0.9-2.3,0.9s-1.7-0.4-2.3-0.9c-0.6-0.6-0.9-1.4-0.9-2.3
		s0.4-1.7,0.9-2.3c0.6-0.6,1.4-0.9,2.3-0.9C41,85.2,41.8,85.5,42.4,86.2L42.4,86.2z M41.2,87.3L41.2,87.3c-0.3-0.3-0.7-0.5-1.1-0.5
		c-0.4,0-0.8,0.2-1.1,0.4c-0.3,0.3-0.5,0.7-0.5,1.1s0.2,0.8,0.5,1.1c0.3,0.3,0.7,0.5,1.1,0.5c0.4,0,0.8-0.2,1.1-0.5s0.5-0.7,0.5-1.1
		C41.6,87.9,41.5,87.6,41.2,87.3z"/>
</g>
</svg>
