<?xml version="1.0" encoding="utf-8"?>
<!-- Generator: Adobe Illustrator 21.0.0, SVG Export Plug-In . SVG Version: 6.00 Build 0)  -->
<svg version="1.1" id="Layer_1" xmlns="http://www.w3.org/2000/svg" xmlns:xlink="http://www.w3.org/1999/xlink" x="0px" y="0px"
	 viewBox="0 0 48 48" style="enable-background:new 0 0 48 48;" xml:space="preserve">
<style type="text/css">
	.st0{fill-rule:evenodd;clip-rule:evenodd;fill:#8CB5F3;}
	.st1{fill:#FFFFFF;}
</style>
<circle class="st0" cx="24" cy="24" r="17.9"/>
<path class="st1" d="M31.2,31.2H16.8c-1.4,0-2.5-1.2-2.5-2.5v-9.4c0-1.4,1.2-2.5,2.5-2.5h14.4c1.4,0,2.5,1.2,2.5,2.5v9.4
	C33.8,30.1,32.6,31.2,31.2,31.2z M16.8,18.4c-0.5,0-0.9,0.4-0.9,0.9v9.4c0,0.5,0.5,0.9,0.9,0.9h14.4c0.5,0,0.9-0.4,0.9-0.9v-9.4
	c0-0.5-0.4-0.9-0.9-0.9H16.8z"/>
<path class="st1" d="M24,26.2c-0.2,0-0.4-0.1-0.5-0.2l-8.1-7.6c-0.4-0.3-0.4-0.8,0-1.2c0.3-0.4,0.8-0.4,1.2,0l8.1,7.6
	c0.4,0.3,0.4,0.8,0,1.2C24.5,26.1,24.2,26.2,24,26.2z"/>
<path class="st1" d="M24,26.2c-0.2,0-0.5-0.1-0.6-0.3c-0.3-0.4-0.3-0.8,0-1.2l8.1-7.6c0.4-0.3,0.8-0.3,1.2,0c0.3,0.4,0.3,0.8,0,1.2
	l-8.1,7.6C24.4,26.1,24.2,26.2,24,26.2z"/>
</svg>
