<?xml version="1.0" encoding="utf-8"?>
<!-- Generator: Adobe Illustrator 21.0.0, SVG Export Plug-In . SVG Version: 6.00 Build 0)  -->
<svg version="1.1" id="Layer_1" xmlns="http://www.w3.org/2000/svg" xmlns:xlink="http://www.w3.org/1999/xlink" x="0px" y="0px"
	 viewBox="0 0 48 48" style="enable-background:new 0 0 48 48;" xml:space="preserve">
<style type="text/css">
	.st0{fill:#78869F;}
</style>
<path class="st0" d="M32,32H16c-1.6,0-2.8-1.3-2.8-2.8V18.8c0-1.6,1.3-2.8,2.8-2.8h16c1.6,0,2.8,1.3,2.8,2.8v10.4
	C34.9,30.8,33.6,32,32,32z M16,17.8c-0.6,0-1,0.5-1,1v10.4c0,0.6,0.5,1,1,1h16c0.6,0,1-0.5,1-1V18.8c0-0.6-0.5-1-1-1H16z"/>
<path class="st0" d="M24,26.4c-0.2,0-0.4-0.1-0.6-0.2l-9-8.4c-0.4-0.3-0.4-0.9,0-1.3c0.3-0.4,0.9-0.4,1.3,0l9,8.4
	c0.4,0.3,0.4,0.9,0,1.3C24.5,26.3,24.2,26.4,24,26.4z"/>
<path class="st0" d="M24,26.4c-0.2,0-0.5-0.1-0.7-0.3c-0.3-0.4-0.3-0.9,0-1.3l9-8.4c0.4-0.3,0.9-0.3,1.3,0c0.3,0.4,0.3,0.9,0,1.3
	l-9,8.4C24.4,26.3,24.2,26.4,24,26.4z"/>
</svg>
