<?xml version="1.0" encoding="utf-8"?>
<!-- Generator: Adobe Illustrator 21.0.0, SVG Export Plug-In . SVG Version: 6.00 Build 0)  -->
<svg version="1.1" id="Layer_1" xmlns="http://www.w3.org/2000/svg" xmlns:xlink="http://www.w3.org/1999/xlink" x="0px" y="0px"
	 viewBox="0 0 48 48" style="enable-background:new 0 0 48 48;" xml:space="preserve">
<style type="text/css">
	.st0{fill:#8CB5F3;}
	.st1{fill:#FFFFFF;}
</style>
<circle class="st0" cx="24" cy="24" r="24"/>
<path class="st1" d="M24,25c-3.9,0-7-3.2-7-7c0-3.9,3.2-7,7-7c3.9,0,7,3.2,7,7C31,21.8,27.9,25,24,25z M24,13
	c-2.7,0-4.9,2.2-4.9,4.9s2.2,4.9,4.9,4.9s4.9-2.2,4.9-4.9S26.7,13,24,13z"/>
<path class="st1" d="M24,37.1c-3,0-6-0.8-8.6-2.3c-0.3-0.1-0.4-0.4-0.5-0.7c-0.1-0.6-0.2-1.3-0.2-1.9c0-5.2,4.2-9.3,9.3-9.3
	s9.3,4.2,9.3,9.3c0,0.6-0.1,1.3-0.2,1.9c-0.1,0.3-0.2,0.6-0.5,0.7C30,36.3,27,37.1,24,37.1z M16.8,33.2c4.4,2.3,9.9,2.3,14.3,0
	c0-0.3,0.1-0.7,0.1-1c0-4-3.2-7.2-7.2-7.2c-4,0-7.2,3.2-7.2,7.2C16.8,32.6,16.8,32.9,16.8,33.2z"/>
</svg>
