<?xml version="1.0" encoding="utf-8"?>
<!-- Generator: Adobe Illustrator 21.0.0, SVG Export Plug-In . SVG Version: 6.00 Build 0)  -->
<svg version="1.1" id="Layer_1" xmlns="http://www.w3.org/2000/svg" xmlns:xlink="http://www.w3.org/1999/xlink" x="0px" y="0px"
	 viewBox="0 0 48 48" style="enable-background:new 0 0 48 48;" xml:space="preserve">
<style type="text/css">
	.st0{fill:#78869F;}
</style>
<path class="st0" d="M30,36H18c-1.7,0-3.1-1.4-3.1-3.1v-10c0-1.7,1.4-3.1,3.1-3.1h12c1.7,0,3.1,1.4,3.1,3.1v9.9
	C33.1,34.6,31.7,36,30,36z M18,21.9c-0.6,0-1,0.5-1,1v9.9c0,0.6,0.5,1,1,1h12c0.6,0,1-0.5,1-1v-9.9c0-0.6-0.5-1-1-1H18z"/>
<path class="st0" d="M28.2,21.6h-8.5c-0.6,0-1-0.5-1-1v-3.2c0-2.9,2.4-5.3,5.3-5.3c2.9,0,5.3,2.4,5.3,5.3v3.2
	C29.3,21.1,28.8,21.6,28.2,21.6z M20.8,20.3h6.4v-3c0-1.8-1.4-3.2-3.2-3.2l0,0c-1.8,0-3.2,1.4-3.2,3.2
	C20.8,17.3,20.8,20.3,20.8,20.3z"/>
<path class="st0" d="M24,26.9L24,26.9c0.6,0,1.1,0.5,1.1,1.1v2.6c0,0.6-0.5,1.1-1.1,1.1l0,0c-0.6,0-1.1-0.5-1.1-1.1v-2.6
	C22.9,27.4,23.4,26.9,24,26.9z"/>
</svg>
