<?xml version="1.0" encoding="utf-8"?>
<!-- Generator: Adobe Illustrator 21.0.0, SVG Export Plug-In . SVG Version: 6.00 Build 0)  -->
<svg version="1.1" id="Layer_1" xmlns="http://www.w3.org/2000/svg" xmlns:xlink="http://www.w3.org/1999/xlink" x="0px" y="0px"
	 viewBox="0 0 48 48" style="enable-background:new 0 0 48 48;" xml:space="preserve">
<style type="text/css">
	.st0{fill:#78869F;}
</style>
<path class="st0" d="M33.3,33.5H14.6c-1.8,0-3.3-1.5-3.3-3.3V18c0-1.8,1.5-3.3,3.3-3.3h18.7c1.8,0,3.3,1.5,3.3,3.3v12.1
	C36.6,32,35.1,33.5,33.3,33.5z M14.6,16.8c-0.7,0-1.2,0.5-1.2,1.2v12.1c0,0.7,0.5,1.2,1.2,1.2h18.7c0.7,0,1.2-0.6,1.2-1.2V18
	c0-0.7-0.6-1.2-1.2-1.2H14.6z"/>
<path class="st0" d="M23.9,26.9c-0.3,0-0.5-0.1-0.7-0.3l-10.5-9.8c-0.4-0.4-0.4-1.1-0.1-1.5c0.4-0.4,1.1-0.4,1.5-0.1l10.5,9.8
	c0.4,0.4,0.4,1.1,0.1,1.5C24.5,26.8,24.2,26.9,23.9,26.9z"/>
<path class="st0" d="M23.9,26.9c-0.3,0-0.6-0.1-0.8-0.3c-0.4-0.4-0.4-1.1,0.1-1.5l10.5-9.8c0.4-0.4,1.1-0.4,1.5,0.1
	c0.4,0.4,0.4,1.1-0.1,1.5l-10.5,9.8C24.5,26.8,24.2,26.9,23.9,26.9z"/>
</svg>
