<?xml version="1.0" encoding="utf-8"?>
<!-- Generator: Adobe Illustrator 21.0.0, SVG Export Plug-In . SVG Version: 6.00 Build 0)  -->
<svg version="1.1" id="Layer_1" xmlns="http://www.w3.org/2000/svg" xmlns:xlink="http://www.w3.org/1999/xlink" x="0px" y="0px"
	 viewBox="0 0 48 48" style="enable-background:new 0 0 48 48;" xml:space="preserve">
<style type="text/css">
	.st0{fill:#8CB5F3;}
	.st1{fill:#FFFFFF;}
	.st2{fill-rule:evenodd;clip-rule:evenodd;fill:#FFFFFF;}
</style>
<circle class="st0" cx="24" cy="24" r="24"/>
<path class="st1" d="M32.5,33.6H15.5c-2,0-3.6-1.5-3.6-3.4V17.8c0-1.9,1.6-3.4,3.6-3.4h16.9c2,0,3.6,1.5,3.6,3.4v2.9
	c0,0.6-0.5,1-1,1h-4.5c-1.4,0-2.5,1-2.5,2.2c0,1.2,1.1,2.2,2.5,2.2H35c0.6,0,1,0.5,1,1v2.9C36,32.1,34.4,33.6,32.5,33.6z M15.5,16.5
	c-0.8,0-1.5,0.6-1.5,1.3v12.4c0,0.7,0.7,1.3,1.5,1.3h16.9c0.8,0,1.5-0.6,1.5-1.3v-1.9h-3.4c-2.6,0-4.6-1.9-4.6-4.3
	c0-2.4,2.1-4.3,4.6-4.3h3.4v-1.9c0-0.7-0.7-1.3-1.5-1.3H15.5z"/>
<path class="st1" d="M35.9,28.3h-5.7c-2.4,0-4.3-1.9-4.3-4.3c0-2.4,1.9-4.3,4.3-4.3h5.7c0.8,0,1.4,0.6,1.4,1.4v5.8
	C37.3,27.7,36.7,28.3,35.9,28.3z M30.2,21.8c-1.2,0-2.2,1-2.2,2.2s1,2.2,2.2,2.2h5v-4.5H30.2z M35.9,21.8L35.9,21.8L35.9,21.8z"/>
<circle class="st2" cx="30.3" cy="24" r="1.2"/>
</svg>
