<?xml version="1.0" encoding="utf-8"?>
<!-- Generator: Adobe Illustrator 21.0.0, SVG Export Plug-In . SVG Version: 6.00 Build 0)  -->
<svg version="1.1" id="Layer_1" xmlns="http://www.w3.org/2000/svg" xmlns:xlink="http://www.w3.org/1999/xlink" x="0px" y="0px"
	 viewBox="0 0 48 48" style="enable-background:new 0 0 48 48;" xml:space="preserve">
<style type="text/css">
	.st0{fill:#78869F;}
</style>
<path class="st0" d="M23.9,24.2c-3.9,0-7-3.2-7-7c0-3.9,3.2-7,7-7c3.9,0,7,3.2,7,7C31,21.1,27.8,24.2,23.9,24.2z M23.9,12.3
	c-2.7,0-4.9,2.2-4.9,4.9s2.2,4.9,4.9,4.9s4.9-2.2,4.9-4.9S26.7,12.3,23.9,12.3z"/>
<path class="st0" d="M23.9,36.4c-3,0-6-0.8-8.6-2.3c-0.3-0.1-0.4-0.4-0.5-0.7c-0.1-0.6-0.2-1.3-0.2-1.9c0-5.2,4.2-9.3,9.3-9.3
	s9.3,4.2,9.3,9.3c0,0.6-0.1,1.3-0.2,1.9c-0.1,0.3-0.2,0.6-0.5,0.7C29.9,35.6,27,36.4,23.9,36.4z M16.8,32.5c4.4,2.3,9.9,2.3,14.3,0
	c0-0.3,0.1-0.7,0.1-1c0-4-3.2-7.2-7.2-7.2c-4,0-7.2,3.2-7.2,7.2C16.7,31.8,16.7,32.2,16.8,32.5z"/>
</svg>
