<?xml version="1.0" encoding="utf-8"?>
<!-- Generator: Adobe Illustrator 21.0.0, SVG Export Plug-In . SVG Version: 6.00 Build 0)  -->
<svg version="1.1" id="Layer_1" xmlns="http://www.w3.org/2000/svg" xmlns:xlink="http://www.w3.org/1999/xlink" x="0px" y="0px"
	 viewBox="0 0 48 48" style="enable-background:new 0 0 48 48;" xml:space="preserve">
<style type="text/css">
	.st0{fill:#78869F;}
</style>
<path class="st0" d="M29.3,34.4H18.7c-1.5,0-2.7-1.2-2.7-2.7v-8.8c0-1.5,1.2-2.7,2.7-2.7h10.6c1.5,0,2.7,1.2,2.7,2.7v8.8
	C32,33.2,30.8,34.4,29.3,34.4z M18,23.1v8.4c0,0.5,0.4,0.9,0.9,0.9h10.2c0.5,0,0.9-0.4,0.9-0.9v-8.4c0-0.5-0.4-0.9-0.9-0.9H18.9
	C18.4,22.2,18,22.6,18,23.1z"/>
<path class="st0" d="M27.6,21.9h-7.2c-0.5,0-0.9-0.4-0.9-0.9v-2.7c0-2.4,1.7-4.5,4.1-4.7c2.7-0.2,4.9,1.9,4.9,4.5V21
	C28.5,21.5,28.1,21.9,27.6,21.9z M21.5,20.6h5v-2.9c0-1.4-1.1-2.5-2.5-2.5l0,0c-1.4,0-2.5,1.1-2.5,2.5V20.6z"/>
<path class="st0" d="M24,26.1L24,26.1c0.6,0,1,0.4,1,1v2.3c0,0.6-0.4,1-1,1l0,0c-0.6,0-1-0.4-1-1v-2.3C23,26.5,23.4,26.1,24,26.1z"
	/>
</svg>
