<?xml version="1.0" encoding="utf-8"?>
<!-- Generator: Adobe Illustrator 21.0.0, SVG Export Plug-In . SVG Version: 6.00 Build 0)  -->
<svg version="1.1" id="Layer_1" xmlns="http://www.w3.org/2000/svg" xmlns:xlink="http://www.w3.org/1999/xlink" x="0px" y="0px"
	 viewBox="0 0 48 48" style="enable-background:new 0 0 48 48;" xml:space="preserve">
<style type="text/css">
	.st0{fill:#8CB5F3;}
	.st1{fill:#FFFFFF;}
</style>
<circle class="st0" cx="24" cy="24" r="17.9"/>
<path class="st1" d="M28.8,33.2h-9.5c-1.4,0-2.4-1.1-2.4-2.4v-7.8c0-1.4,1.1-2.4,2.4-2.4h9.5c1.4,0,2.4,1.1,2.4,2.4v7.8
	C31.2,32.1,30.1,33.2,28.8,33.2z M18.6,23.2v7.5c0,0.4,0.4,0.8,0.8,0.8h9.2c0.5,0,0.8-0.4,0.8-0.8v-7.5c0-0.5-0.4-0.8-0.8-0.8h-9.2
	C19,22.4,18.6,22.8,18.6,23.2z"/>
<path class="st1" d="M27.2,22.2h-6.5c-0.5,0-0.8-0.4-0.8-0.8V19c0-2.2,1.5-4.1,3.7-4.2c2.4-0.2,4.4,1.7,4.4,4.1v2.6
	C28,21.8,27.7,22.2,27.2,22.2z M21.8,21h4.5v-2.6c0-1.3-1-2.2-2.3-2.2l0,0c-1.3,0-2.3,1-2.3,2.2L21.8,21L21.8,21z"/>
<path class="st1" d="M24,25.8L24,25.8c0.5,0,0.9,0.4,0.9,0.9v2.1c0,0.5-0.4,0.9-0.9,0.9l0,0c-0.5,0-0.9-0.4-0.9-0.9v-2.1
	C23.1,26.1,23.5,25.8,24,25.8z"/>
</svg>
