<?xml version="1.0" encoding="utf-8"?>
<!-- Generator: Adobe Illustrator 21.0.0, SVG Export Plug-In . SVG Version: 6.00 Build 0)  -->
<svg version="1.1" id="Layer_1" xmlns="http://www.w3.org/2000/svg" xmlns:xlink="http://www.w3.org/1999/xlink" x="0px" y="0px"
	 viewBox="0 0 48 48" style="enable-background:new 0 0 48 48;" xml:space="preserve">
<style type="text/css">
	.st0{fill:#78869F;}
</style>
<path class="st0" d="M24,24.9c-3.3,0-6-2.7-6-6c0-3.3,2.7-6,6-6s6,2.7,6,6C30,22.2,27.3,24.9,24,24.9z M24,14.6
	c-2.3,0-4.2,1.9-4.2,4.2s1.9,4.2,4.2,4.2s4.2-1.9,4.2-4.2S26.3,14.6,24,14.6z"/>
<path class="st0" d="M24,35.3c-2.6,0-5.1-0.7-7.4-1.9c-0.2-0.1-0.4-0.3-0.4-0.6c-0.1-0.5-0.2-1.1-0.2-1.6c0-4.4,3.6-8,8-8s8,3.6,8,8
	c0,0.5-0.1,1.1-0.2,1.6c-0.1,0.3-0.2,0.5-0.4,0.6C29.1,34.6,26.6,35.3,24,35.3z M17.9,32c3.8,2,8.5,2,12.3,0c0-0.3,0.1-0.6,0.1-0.9
	c0-3.4-2.8-6.2-6.2-6.2s-6.2,2.8-6.2,6.2C17.8,31.4,17.8,31.7,17.9,32z"/>
</svg>
