<?xml version="1.0" encoding="utf-8"?>
<!-- Generator: Adobe Illustrator 21.0.0, SVG Export Plug-In . SVG Version: 6.00 Build 0)  -->
<svg version="1.1" id="Layer_1" xmlns="http://www.w3.org/2000/svg" xmlns:xlink="http://www.w3.org/1999/xlink" x="0px" y="0px"
	 viewBox="0 0 48 48" style="enable-background:new 0 0 48 48;" xml:space="preserve">
<style type="text/css">
	.st0{fill-rule:evenodd;clip-rule:evenodd;fill:#8CB5F3;}
	.st1{fill:#FFFFFF;}
</style>
<circle class="st0" cx="24" cy="24" r="17.9"/>
<path class="st1" d="M24,24.8c-3,0-5.4-2.4-5.4-5.4S21,14,24,14s5.4,2.4,5.4,5.4S27,24.8,24,24.8z M24,15.5c-2.1,0-3.8,1.7-3.8,3.8
	s1.7,3.8,3.8,3.8s3.8-1.7,3.8-3.8S26.1,15.5,24,15.5z"/>
<path class="st1" d="M24,34.2c-2.3,0-4.6-0.6-6.7-1.7c-0.2-0.1-0.4-0.3-0.4-0.5c-0.1-0.5-0.2-1-0.2-1.4c0-4,3.2-7.2,7.2-7.2
	s7.2,3.2,7.2,7.2c0,0.4-0.1,1-0.2,1.4c-0.1,0.3-0.2,0.4-0.4,0.5C28.6,33.5,26.3,34.2,24,34.2z M18.5,31.2c3.4,1.8,7.6,1.8,11.1,0
	c0-0.3,0.1-0.5,0.1-0.8c0-3.1-2.5-5.6-5.6-5.6s-5.6,2.5-5.6,5.6C18.4,30.7,18.4,30.9,18.5,31.2z"/>
</svg>
