<?xml version="1.0" encoding="utf-8"?>
<!-- Generator: Adobe Illustrator 21.0.0, SVG Export Plug-In . SVG Version: 6.00 Build 0)  -->
<svg version="1.1" id="Layer_1" xmlns="http://www.w3.org/2000/svg" xmlns:xlink="http://www.w3.org/1999/xlink" x="0px" y="0px"
	 viewBox="0 0 48 48" style="enable-background:new 0 0 48 48;" xml:space="preserve">
<style type="text/css">
	.st0{fill:#78869F;}
	.st1{fill-rule:evenodd;clip-rule:evenodd;fill:#78869F;}
</style>
<path class="st0" d="M31.1,32.7H15.7c-1.8,0-3.2-1.4-3.2-3V18.3c0-1.7,1.4-3,3.2-3h15.4c1.8,0,3.2,1.4,3.2,3V21
	c0,0.5-0.4,0.9-0.9,0.9h-4.1C28,21.9,27,22.8,27,24c0,1.2,1.1,2.1,2.4,2.1h4.1c0.5,0,0.9,0.4,0.9,0.9v2.7
	C34.3,31.3,32.9,32.7,31.1,32.7z M15.7,17.1c-0.8,0-1.4,0.5-1.4,1.2v11.3c0,0.7,0.6,1.2,1.4,1.2h15.4c0.8,0,1.4-0.5,1.4-1.2v-1.8
	h-3.2c-2.3,0-4.2-1.7-4.2-3.9s1.9-3.9,4.2-3.9h3.2v-1.8c0-0.7-0.6-1.2-1.4-1.2H15.7z"/>
<path class="st0" d="M34.2,27.9h-5.2c-2.1,0-3.9-1.7-3.9-3.9s1.7-3.9,3.9-3.9h5.2c0.7,0,1.2,0.6,1.2,1.2v5.3
	C35.5,27.3,34.9,27.9,34.2,27.9z M29.1,21.9c-1.2,0-2.1,0.9-2.1,2.1c0,1.2,0.9,2.1,2.1,2.1h4.6v-4.2H29.1z M34.2,21.9L34.2,21.9
	L34.2,21.9z"/>
<circle class="st1" cx="29.2" cy="24" r="1.1"/>
</svg>
