<?xml version="1.0" encoding="utf-8"?>
<!-- Generator: Adobe Illustrator 21.0.0, SVG Export Plug-In . SVG Version: 6.00 Build 0)  -->
<svg version="1.1" id="Layer_1" xmlns="http://www.w3.org/2000/svg" xmlns:xlink="http://www.w3.org/1999/xlink" x="0px" y="0px"
	 viewBox="0 0 48 48" style="enable-background:new 0 0 48 48;" xml:space="preserve">
<style type="text/css">
	.st0{fill-rule:evenodd;clip-rule:evenodd;fill:#8CB5F3;}
	.st1{fill:#FFFFFF;}
	.st2{fill-rule:evenodd;clip-rule:evenodd;fill:#FFFFFF;}
</style>
<circle class="st0" cx="24" cy="24" r="17.9"/>
<path class="st1" d="M30.4,31.8H16.6c-1.6,0-2.9-1.2-2.9-2.7V18.9c0-1.5,1.3-2.7,2.9-2.7h13.8c1.6,0,2.9,1.2,2.9,2.7v2.4
	c0,0.4-0.4,0.8-0.8,0.8h-3.7c-1.2,0-2.1,0.8-2.1,1.9c0,1,1,1.9,2.1,1.9h3.7c0.4,0,0.8,0.4,0.8,0.8v2.4C33.3,30.6,32,31.8,30.4,31.8z
	 M16.6,17.8c-0.7,0-1.3,0.5-1.3,1.1v10.2c0,0.6,0.6,1.1,1.3,1.1h13.8c0.7,0,1.3-0.5,1.3-1.1v-1.6h-2.9c-2.1,0-3.7-1.6-3.7-3.5
	s1.7-3.5,3.7-3.5h2.9v-1.6c0-0.6-0.6-1.1-1.3-1.1H16.6z"/>
<path class="st1" d="M33.2,27.5h-4.7c-1.9,0-3.5-1.6-3.5-3.5s1.6-3.5,3.5-3.5h4.7c0.6,0,1.1,0.5,1.1,1.1v4.8
	C34.3,27,33.8,27.5,33.2,27.5z M28.6,22.1c-1,0-1.9,0.8-1.9,1.9c0,1,0.8,1.9,1.9,1.9h4.2v-3.8H28.6z M33.2,22.1L33.2,22.1L33.2,22.1
	z"/>
<circle class="st2" cx="28.6" cy="24" r="1"/>
</svg>
