<?xml version="1.0" encoding="utf-8"?>
<!-- Generator: Adobe Illustrator 21.0.0, SVG Export Plug-In . SVG Version: 6.00 Build 0)  -->
<svg version="1.1" id="Layer_1" xmlns="http://www.w3.org/2000/svg" xmlns:xlink="http://www.w3.org/1999/xlink" x="0px" y="0px"
	 viewBox="0 0 75 36" style="enable-background:new 0 0 75 36;" xml:space="preserve">
<style type="text/css">
	.st0{fill:#F37748;}
</style>
<path class="st0" d="M44.3,16.7c0,0.2-0.2,0.3-0.2,0.4l-3.3,2.5l1.2,3.9c0.2,0.3-0.2,0.5-0.3,0.7c-0.2,0.2-0.3,0-0.5-0.2L38,21.7
	l-3.3,2.5c-0.3,0.2-0.5,0.2-0.7-0.2c-0.2-0.3-0.2-0.3-0.2-0.5l1.2-3.9L31.8,17c-0.2-0.2-0.3-0.5-0.2-0.8C31.8,16,31.9,16,32,16h4.1
	l1.3-3.9c0.2-0.3,0.3-0.4,0.7-0.3c0.2,0.1,0.3,0.2,0.3,0.3l1.2,3.9h4.1C44,16.1,44.3,16.3,44.3,16.7z M59.1,16.1H55l-1.2-3.9
	c-0.2-0.2-0.2-0.3-0.3-0.3c-0.3-0.2-0.5,0.2-0.7,0.3l-1.2,3.9h-4.1c-0.2,0-0.3,0.2-0.4,0.2C47,16.5,47,16.9,47.3,17l3.2,2.5
	l-1.2,3.9c0,0.2,0,0.3,0.2,0.4s0.4,0.3,0.7,0.2l3.3-2.5l3.2,2.3C56.9,24,57,24,57.2,24c0.3-0.2,0.4-0.3,0.3-0.7l-1.2-3.9l3.3-2.5
	c0.2-0.2,0.2-0.3,0.2-0.4C59.7,16.3,59.4,16.1,59.1,16.1z M75,16.7c0-0.3-0.3-0.5-0.5-0.5h-4.1l-1.2-3.9C69,12.1,69,12,68.9,12
	c-0.3-0.2-0.5,0.2-0.7,0.3L67,16.1h-4c-0.2,0-0.3,0.2-0.4,0.2c-0.2,0.3-0.2,0.7,0.2,0.8l3.2,2.5l-1.2,3.9c0,0.2,0,0.3,0.2,0.4
	c0.2,0.2,0.4,0.3,0.7,0.2l3.3-2.5l3.2,2.3c0.2,0.2,0.3,0.2,0.5,0.2c0.3-0.2,0.4-0.3,0.3-0.7l-1.4-3.9l3.3-2.5
	C74.8,17,75,16.8,75,16.7z"/>
</svg>
