<?xml version="1.0" encoding="utf-8"?>
<!-- Generator: Adobe Illustrator 21.0.0, SVG Export Plug-In . SVG Version: 6.00 Build 0)  -->
<svg version="1.1" id="Layer_1" xmlns="http://www.w3.org/2000/svg" xmlns:xlink="http://www.w3.org/1999/xlink" x="0px" y="0px"
	 viewBox="0 0 48 48" style="enable-background:new 0 0 48 48;" xml:space="preserve">
<style type="text/css">
	.st0{fill:#FFFFFF;}
</style>
<g>
	<path class="st0" d="M33,16L33,16c0-0.1,0-0.3-0.1-0.4c-0.1-0.2-0.3-0.4-0.5-0.5c-0.1,0-0.2,0-0.3-0.1H32h-4c-0.6,0-1,0.4-1,1
		s0.4,1,1,1h1.6l-3.2,3.2c-0.4,0.4-0.4,1,0,1.4c0.2,0.2,0.5,0.3,0.7,0.3s0.5-0.1,0.7-0.3l3.2-3.2V20c0,0.6,0.4,1,1,1s1-0.4,1-1
		L33,16C33,16,33,16,33,16L33,16z"/>
	<path class="st0" d="M20.3,26.3L17,29.6V28c0-0.6-0.4-1-1-1s-1,0.4-1,1v4c0,0.1,0,0.3,0.1,0.4c0,0.1,0.1,0.2,0.2,0.3l0,0l0,0
		c0.1,0.1,0.2,0.2,0.3,0.2C15.7,33,15.9,33,16,33h4c0.6,0,1-0.4,1-1s-0.4-1-1-1h-1.6l3.2-3.2c0.4-0.4,0.4-1,0-1.4
		S20.6,25.9,20.3,26.3z"/>
</g>
</svg>
