<?xml version="1.0" encoding="utf-8"?>
<!-- Generator: Adobe Illustrator 21.0.0, SVG Export Plug-In . SVG Version: 6.00 Build 0)  -->
<svg version="1.1" id="Layer_1" xmlns="http://www.w3.org/2000/svg" xmlns:xlink="http://www.w3.org/1999/xlink" x="0px" y="0px"
	 viewBox="0 0 48 48" style="enable-background:new 0 0 48 48;" xml:space="preserve">
<style type="text/css">
	.st0{fill:#FFFFFF;}
</style>
<g>
	<path class="st0" d="M21.3,25.3L18,28.6V27c0-0.6-0.4-1-1-1s-1,0.4-1,1v4c0,0.1,0,0.3,0.1,0.4c0,0.1,0.1,0.2,0.2,0.3l0,0l0,0
		c0.1,0.1,0.2,0.2,0.3,0.2C16.7,32,16.9,32,17,32h4c0.6,0,1-0.4,1-1s-0.4-1-1-1h-1.6l3.2-3.2c0.4-0.4,0.4-1,0-1.4
		S21.6,24.9,21.3,25.3z"/>
</g>
</svg>
