<?xml version="1.0" encoding="utf-8"?>
<!-- Generator: Adobe Illustrator 21.0.0, SVG Export Plug-In . SVG Version: 6.00 Build 0)  -->
<svg version="1.1" id="Layer_1" xmlns="http://www.w3.org/2000/svg" xmlns:xlink="http://www.w3.org/1999/xlink" x="0px" y="0px"
	 viewBox="0 0 48 48" style="enable-background:new 0 0 48 48;" xml:space="preserve">
<style type="text/css">
	.st0{fill:#FFFFFF;}
</style>
<g>
	<path class="st0" d="M29.6,19v-2.7c0-0.4-0.2-0.7-0.5-0.8c-0.3-0.2-0.7-0.1-1,0.1l-4.9,4.1h-4c-0.5,0-0.9,0.4-0.9,0.9v6.5
		c0,0.1,0,0.2,0.1,0.3L29.6,19z"/>
	<path class="st0" d="M36.1,17.8c-0.4-0.5-1-0.6-1.5-0.2L16.8,31c-0.5,0.4-0.6,1-0.2,1.5s1,0.6,1.5,0.2l5.6-4.2l4.4,3.7
		c0.3,0.2,0.6,0.3,1,0.1c0.3-0.2,0.5-0.5,0.5-0.8v-7.5l6.3-4.7C36.3,19,36.4,18.3,36.1,17.8z"/>
</g>
</svg>
