<?xml version="1.0" encoding="utf-8"?>
<!-- Generator: Adobe Illustrator 21.0.0, SVG Export Plug-In . SVG Version: 6.00 Build 0)  -->
<svg version="1.1" id="Layer_1" xmlns="http://www.w3.org/2000/svg" xmlns:xlink="http://www.w3.org/1999/xlink" x="0px" y="0px"
	 viewBox="0 0 100 100" style="enable-background:new 0 0 100 100;" xml:space="preserve">
<style type="text/css">
	.st0{opacity:0.95;}
	.st1{fill:#8CB5F3;}
	.st2{fill:#FFFFFF;}
</style>
<g class="st0">
	<path class="st1" d="M35.6,86.8c-1.6,0-3.2-0.4-4.7-1.1C27.2,84,25,80.3,25,76.2V25.9c0-2,1.1-3.9,3-4.8c0.7-0.4,1.5-0.5,2.3-0.5
		c1.2,0,2.3,0.4,3.3,1.1L67,47.8c0.2,0.1,0.3,0.2,0.5,0.2s0.4-0.1,0.5-0.2c0.3-0.2,0.3-0.4,0.3-0.6c0-0.2,0-0.4-0.3-0.6l-27-21
		c-1-0.8-1.5-1.9-1.5-3.2v-3.8c0-2,1.1-3.9,3-4.8c0.7-0.4,1.5-0.5,2.3-0.5c1.2,0,2.3,0.4,3.3,1.1l28,21.9c3.4,2.6,5.3,6.6,5.3,10.9
		s-1.9,8.3-5.3,10.9L42,84.6C40.2,86,37.9,86.8,35.6,86.8L35.6,86.8z"/>
	<path class="st2" d="M44.8,17.2c0.3,0,0.6,0.1,0.8,0.3l28,21.9c5.1,3.9,5.1,11.6,0,15.5l-34,26.6c-1.2,0.9-2.6,1.4-4,1.4
		c-1,0-2-0.2-2.9-0.7c-2.4-1.2-3.7-3.4-3.7-6V25.9c0-0.5,0.3-1,0.7-1.2c0.2-0.1,0.4-0.1,0.6-0.1c0.3,0,0.6,0.1,0.8,0.3L64.5,51
		c0.9,0.7,1.9,1,2.9,1s2.1-0.3,3-1c2.5-1.9,2.5-5.7,0.1-7.6l-27-21v-3.8c0-0.5,0.3-1,0.7-1.2C44.4,17.2,44.6,17.2,44.8,17.2
		 M44.8,9.2c-1.4,0-2.8,0.3-4.1,0.9c-3.1,1.5-5.1,4.6-5.2,8c-1.5-1-3.3-1.6-5.2-1.6c-1.4,0-2.8,0.3-4.1,0.9C23,19.1,21,22.3,21,25.9
		v50.4c0,5.6,3.1,10.6,8.2,13.1c2,1,4.2,1.5,6.4,1.5c3.2,0,6.3-1.1,8.9-3.1l34-26.6c4.4-3.4,6.9-8.5,6.9-14.1
		c0-5.5-2.5-10.7-6.9-14.1l-28-21.9C48.9,9.9,46.8,9.2,44.8,9.2L44.8,9.2z"/>
</g>
<g>
	<path class="st1" d="M73.6,39.3l-28-21.9c-0.4-0.3-0.9-0.4-1.4-0.1c-0.5,0.2-0.7,0.7-0.7,1.2v3.8l27,21c2.5,1.9,2.4,5.7-0.1,7.6
		c-1.8,1.4-4.1,1.4-5.9,0L31.1,24.8c-0.4-0.3-0.9-0.4-1.4-0.1c-0.5,0.2-0.7,0.7-0.7,1.2v50.4c0,2.6,1.4,4.8,3.7,5.9s4.9,0.9,6.9-0.7
		l34-26.6C78.6,50.9,78.6,43.3,73.6,39.3z"/>
</g>
</svg>
