<?xml version="1.0" encoding="utf-8"?>
<!-- Generator: Adobe Illustrator 21.0.0, SVG Export Plug-In . SVG Version: 6.00 Build 0)  -->
<svg version="1.1" id="Layer_1" xmlns="http://www.w3.org/2000/svg" xmlns:xlink="http://www.w3.org/1999/xlink" x="0px" y="0px"
	 viewBox="0 0 48 48" style="enable-background:new 0 0 48 48;" xml:space="preserve">
<style type="text/css">
	.st0{fill:#FFFFFF;}
</style>
<path class="st0" d="M17.8,15h2.4c0.5,0,0.8,0.4,0.8,0.8v15.4c0,0.5-0.4,0.8-0.8,0.8h-2.4c-0.5,0-0.8-0.4-0.8-0.8V15.9
	C17,15.4,17.4,15,17.8,15z"/>
<path class="st0" d="M27.8,15h2.4c0.5,0,0.8,0.4,0.8,0.8v15.4c0,0.5-0.4,0.8-0.8,0.8h-2.4c-0.5,0-0.8-0.4-0.8-0.8V15.9
	C26.9,15.4,27.3,15,27.8,15z"/>
</svg>
