<?xml version="1.0" encoding="utf-8"?>
<!-- Generator: Adobe Illustrator 21.0.0, SVG Export Plug-In . SVG Version: 6.00 Build 0)  -->
<svg version="1.1" id="Layer_1" xmlns="http://www.w3.org/2000/svg" xmlns:xlink="http://www.w3.org/1999/xlink" x="0px" y="0px"
	 viewBox="0 0 150 36" style="enable-background:new 0 0 150 36;" xml:space="preserve">
<style type="text/css">
	.st0{fill:#FFFFFF;}
</style>
<path class="st0" d="M0,0v36h150V0H0z M36.9,16.5l-5.1,3.8l1.9,6c0.2,0.5-0.1,0.8-0.5,1c-0.3,0.1-0.5,0-0.8-0.2l-5-3.6l-5.1,3.8
	c-0.4,0.2-0.8,0.1-1.1-0.2C21,26.8,21,26.7,21,26.4l1.9-6l-5-3.9c-0.4-0.2-0.5-0.8-0.2-1.2c0.2-0.1,0.4-0.3,0.7-0.3h6.4l1.9-6
	c0.2-0.3,0.6-0.7,1-0.5C27.9,8.6,28,8.7,28.2,9l1.9,6h6.3c0.4,0,0.7,0.4,0.8,0.8C37.2,16.1,37.1,16.3,36.9,16.5z M60.7,16.5
	l-5.1,3.8l1.9,6c0.2,0.5-0.1,0.8-0.5,1c-0.3,0.1-0.5,0-0.8-0.2l-5-3.6l-5.1,3.8c-0.4,0.2-0.8,0.1-1.1-0.2c-0.2-0.3-0.2-0.4-0.2-0.7
	l1.9-6l-5-3.9c-0.4-0.2-0.5-0.8-0.2-1.2c0.2-0.1,0.4-0.3,0.7-0.3h6.3l1.9-6c0.2-0.3,0.6-0.7,1-0.5c0.2,0.1,0.3,0.2,0.5,0.5l1.9,6
	h6.3c0.5,0,0.9,0.4,0.9,0.8C61,16.1,60.9,16.3,60.7,16.5z M84.5,16.6l-5.1,3.8l1.9,6c0.2,0.4-0.2,0.8-0.5,1s-0.5,0-0.8-0.2l-5-3.6
	l-5.1,3.8c-0.4,0.3-0.8,0.2-1.1-0.2c-0.3-0.4-0.3-0.4-0.3-0.8l1.9-6l-5-3.9c-0.3-0.3-0.4-0.8-0.2-1.2c0.2-0.2,0.4-0.3,0.7-0.3h6.3
	l2-6c0.2-0.4,0.5-0.7,1-0.5c0.2,0.1,0.4,0.2,0.5,0.5l1.9,6h6.3c0.5,0,0.9,0.4,0.9,0.9C84.8,16.2,84.6,16.4,84.5,16.6z M108.4,16.5
	l-5.1,3.8l1.9,6c0.2,0.5-0.1,0.8-0.5,1c-0.3,0.1-0.5,0-0.8-0.2l-5-3.6l-5.1,3.8c-0.4,0.2-0.8,0.1-1.1-0.2c-0.2-0.3-0.2-0.4-0.2-0.7
	l1.9-6l-5-3.9c-0.4-0.2-0.5-0.8-0.2-1.2c0.2-0.1,0.4-0.3,0.7-0.3h6.3l1.9-6c0.2-0.3,0.6-0.7,1-0.5c0.2,0.1,0.3,0.2,0.5,0.5l1.9,6
	h6.3c0.5,0,0.9,0.4,0.9,0.8C108.7,16.1,108.6,16.3,108.4,16.5z M132.3,16.6l-5.1,3.8l1.9,6c0.2,0.5-0.1,0.8-0.5,1
	c-0.3,0.1-0.5,0-0.8-0.2l-5-3.6l-5.1,3.8c-0.4,0.2-0.8,0.1-1.1-0.2c-0.2-0.3-0.2-0.4-0.2-0.7l1.9-6l-5-3.9c-0.4-0.2-0.5-0.8-0.2-1.2
	c0.2-0.1,0.4-0.3,0.7-0.3h6.3l1.9-6c0.2-0.3,0.6-0.7,1-0.5c0.2,0.1,0.3,0.2,0.5,0.5l1.9,6h6.3c0.4,0,0.8,0.4,0.8,0.8
	C132.5,16.2,132.3,16.4,132.3,16.6z"/>
</svg>
