<?xml version="1.0" encoding="utf-8"?>
<!-- Generator: Adobe Illustrator 21.0.0, SVG Export Plug-In . SVG Version: 6.00 Build 0)  -->
<svg version="1.1" id="Layer_1" xmlns="http://www.w3.org/2000/svg" xmlns:xlink="http://www.w3.org/1999/xlink" x="0px" y="0px"
	 viewBox="0 0 115 36" style="enable-background:new 0 0 115 36;" xml:space="preserve">
<style type="text/css">
	.st0{opacity:0.4;fill:#78869F;enable-background:new    ;}
</style>
<path class="st0" d="M67.3,15.9c0,0.3-0.2,0.5-0.3,0.7l-5.1,3.8l1.9,6c0.2,0.4-0.2,0.8-0.5,1s-0.5,0-0.8-0.2l-5-3.6l-5.1,3.8
	c-0.4,0.3-0.8,0.2-1.1-0.2C51,26.8,51,26.8,51,26.4l1.9-6l-5-3.9c-0.3-0.3-0.4-0.8-0.2-1.2c0.2-0.2,0.4-0.3,0.7-0.3h6.3l2-6
	c0.2-0.4,0.5-0.7,1-0.5c0.2,0.1,0.4,0.2,0.5,0.5l1.9,6h6.3C66.9,15,67.3,15.4,67.3,15.9z M42.6,15h-6.3l-1.9-6
	c-0.2-0.3-0.3-0.4-0.5-0.5c-0.4-0.2-0.8,0.2-1,0.5L31,15h-6.3c-0.3,0-0.5,0.2-0.7,0.3c-0.3,0.4-0.2,1,0.2,1.2l5,3.9l-1.9,6
	c0,0.3,0,0.4,0.2,0.7c0.3,0.3,0.7,0.4,1.1,0.2l5.1-3.8l5,3.6c0.3,0.2,0.5,0.3,0.8,0.2c0.4-0.2,0.7-0.5,0.5-1l-1.9-6l5.1-3.8
	c0.2-0.2,0.3-0.4,0.3-0.7C43.5,15.4,43.1,15,42.6,15z M18.9,15h-6.3l-1.9-6c-0.2-0.3-0.3-0.4-0.5-0.5C9.8,8.3,9.4,8.7,9.2,9l-1.9,6
	H0.9c-0.3,0-0.5,0.2-0.7,0.3c-0.3,0.4-0.2,1,0.2,1.2l5,3.9l-1.9,6c0,0.3,0,0.4,0.2,0.7c0.3,0.3,0.7,0.4,1.1,0.2l5.1-3.8l5,3.6
	c0.3,0.2,0.5,0.3,0.8,0.2c0.4-0.2,0.7-0.5,0.5-1l-1.9-6l5.1-3.8c0.2-0.2,0.3-0.4,0.3-0.7C19.6,15.4,19.3,15,18.9,15z M90.3,15H84
	l-1.9-6c-0.2-0.3-0.3-0.4-0.5-0.5c-0.4-0.2-0.8,0.2-1,0.5l-1.9,6h-6.3c-0.3,0-0.5,0.2-0.7,0.3c-0.3,0.4-0.2,1,0.2,1.2l5,3.9l-1.9,6
	c0,0.3,0,0.4,0.2,0.7c0.3,0.3,0.7,0.4,1.1,0.2l5.1-3.8l5,3.6c0.3,0.2,0.5,0.3,0.8,0.2c0.4-0.2,0.7-0.5,0.5-1l-1.9-6l5.1-3.8
	c0.2-0.2,0.3-0.4,0.3-0.7C91.2,15.4,90.8,15,90.3,15z M115,15.9c0-0.4-0.4-0.8-0.8-0.8h-6.3l-1.9-6c-0.2-0.3-0.3-0.4-0.5-0.5
	c-0.4-0.2-0.8,0.2-1,0.5l-1.9,6h-6.3c-0.3,0-0.5,0.2-0.7,0.3c-0.3,0.4-0.2,1,0.2,1.2l5,3.9l-1.9,6c0,0.3,0,0.4,0.2,0.7
	c0.3,0.3,0.7,0.4,1.1,0.2l5.1-3.8l5,3.6c0.3,0.2,0.5,0.3,0.8,0.2c0.4-0.2,0.7-0.5,0.5-1l-1.9-6l5.1-3.8
	C114.8,16.4,115,16.2,115,15.9z"/>
</svg>
