<?xml version="1.0" standalone="no"?>
<!DOCTYPE svg PUBLIC "-//W3C//DTD SVG 20010904//EN"
 "http://www.w3.org/TR/2001/REC-SVG-20010904/DTD/svg10.dtd">
<svg version="1.0" xmlns="http://www.w3.org/2000/svg"
 width="418.000000pt" height="418.000000pt" viewBox="0 0 418.000000 418.000000"
 preserveAspectRatio="xMidYMid meet">
<metadata>
Created by potrace 1.14, written by Peter Selinger 2001-2017
</metadata>
<g transform="translate(0.000000,418.000000) scale(0.100000,-0.100000)"
fill="#000000" stroke="none">
<path d="M1925 3652 c-293 -31 -591 -172 -808 -381 -74 -71 -186 -214 -232
-296 -31 -54 -68 -127 -70 -135 -1 -3 -9 -22 -18 -43 -9 -21 -25 -68 -36 -105
-55 -188 -66 -285 -64 -617 1 -244 11 -310 65 -420 64 -130 127 -191 318 -310
200 -123 230 -169 235 -363 2 -59 8 -127 15 -152 48 -178 195 -265 570 -336
54 -10 267 -12 340 -3 101 12 144 21 244 48 103 28 216 82 265 126 43 39 94
120 106 170 4 17 8 80 10 140 5 209 31 249 241 374 213 127 311 246 359 436
29 114 25 591 -6 748 -6 28 -13 63 -15 77 -21 108 -120 328 -198 443 -83 122
-242 286 -335 347 -13 8 -41 27 -62 42 -94 67 -286 150 -414 178 -73 17 -82
19 -134 26 -51 6 -328 12 -376 6z m1039 -1262 c100 -38 143 -122 134 -266 -14
-246 -283 -432 -538 -373 -48 11 -152 60 -179 85 -104 97 -151 168 -151 229 0
50 47 131 107 184 94 84 232 142 373 158 25 3 46 6 47 7 11 10 162 -8 207 -24z
m-1479 6 c141 -19 274 -78 363 -161 105 -97 125 -189 63 -286 -102 -160 -314
-252 -483 -209 -216 54 -348 209 -348 405 0 209 127 288 405 251z m642 -939
c12 -7 62 -51 112 -100 80 -77 91 -92 91 -122 0 -36 -33 -83 -60 -86 -48 -5
-69 4 -122 56 l-57 54 -58 -54 c-58 -55 -66 -59 -113 -57 -35 2 -70 45 -70 87
0 29 12 45 91 122 92 90 122 112 149 112 8 0 25 -5 37 -12z"/>
</g>
</svg>
