<?xml version="1.0" standalone="no"?>
<!DOCTYPE svg PUBLIC "-//W3C//DTD SVG 20010904//EN"
 "http://www.w3.org/TR/2001/REC-SVG-20010904/DTD/svg10.dtd">
<svg version="1.0" xmlns="http://www.w3.org/2000/svg"
 width="512.000000pt" height="512.000000pt" viewBox="0 0 512.000000 512.000000"
 preserveAspectRatio="xMidYMid meet">
<metadata>
Created by potrace 1.11, written by Peter Selinger 2001-2013
</metadata>
<g transform="translate(0.000000,512.000000) scale(0.100000,-0.100000)"
fill="#000000" stroke="none">
<path d="M2118 4779 c-35 -20 -42 -52 -43 -195 l-2 -142 56 -43 c31 -24 63
-49 71 -56 17 -14 695 -541 785 -610 287 -221 917 -714 946 -740 19 -17 48
-56 65 -85 26 -48 29 -62 29 -148 0 -83 -3 -101 -27 -145 -35 -67 -88 -118
-156 -151 -48 -23 -70 -28 -137 -28 -67 0 -89 4 -135 27 -30 14 -66 37 -80 50
-14 12 -43 36 -65 52 -22 17 -101 77 -175 135 -74 58 -164 128 -200 156 -190
147 -317 246 -330 257 -8 7 -116 91 -240 187 -124 96 -232 181 -240 187 -8 7
-52 41 -96 75 -45 35 -191 149 -325 253 -133 105 -272 213 -308 241 -36 28
-119 92 -184 142 -135 104 -159 112 -208 63 l-29 -30 0 -1759 c0 -1217 4
-1770 11 -1793 65 -207 235 -338 439 -339 107 0 204 40 320 131 36 29 196 153
355 278 303 236 556 433 614 479 19 15 58 45 87 67 55 43 576 449 832 650 85
66 166 129 181 140 197 146 280 221 337 308 138 209 150 469 32 687 -60 111
-94 145 -342 339 -94 73 -184 144 -201 157 -87 68 -294 229 -320 249 -16 13
-156 122 -310 242 -154 120 -296 230 -315 245 -200 157 -562 438 -587 456 -33
23 -77 28 -105 11z"/>
</g>
</svg>
