<?xml version="1.0" encoding="utf-8"?>
<!-- Generator: Adobe Illustrator 21.0.0, SVG Export Plug-In . SVG Version: 6.00 Build 0)  -->
<svg version="1.1" id="Layer_1" xmlns="http://www.w3.org/2000/svg" xmlns:xlink="http://www.w3.org/1999/xlink" x="0px" y="0px"
	 viewBox="0 0 40 40" style="enable-background:new 0 0 40 40;" xml:space="preserve">
<style type="text/css">
	.st0{fill:#8CB5F3;enable-background:new    ;}
</style>
<path class="st0" d="M28,16.7c0-0.3-0.3-0.7-0.7-0.7h-5.1l-1.6-4.9c-0.1-0.2-0.2-0.3-0.5-0.5c-0.3-0.1-0.7,0.1-0.8,0.5L17.8,16h-5.1
	c-0.2,0-0.5,0.1-0.6,0.2c-0.2,0.3-0.1,0.8,0.1,1l4.1,3.2l-1.6,4.9c0,0.2,0,0.3,0.1,0.6c0.2,0.2,0.6,0.3,0.9,0.1l4.2-3.1l4.1,3
	c0.2,0.1,0.5,0.2,0.7,0.1c0.3-0.1,0.6-0.5,0.5-0.8l-1.6-4.9l4.2-3.1C27.9,17.1,28,16.9,28,16.7z"/>
</svg>
