<?xml version="1.0" encoding="utf-8"?>
<!-- Generator: Adobe Illustrator 21.0.0, SVG Export Plug-In . SVG Version: 6.00 Build 0)  -->
<svg version="1.1" id="Layer_1" xmlns="http://www.w3.org/2000/svg" xmlns:xlink="http://www.w3.org/1999/xlink" x="0px" y="0px"
	 viewBox="0 0 40 40" style="enable-background:new 0 0 40 40;" xml:space="preserve">
<style type="text/css">
	.st0{fill:#8CB5F3;}
</style>
<path class="st0" d="M25.7,11.6c-0.4-0.4-0.9-0.6-1.5-0.6h-8.6c-0.5,0-1,0.2-1.4,0.6h-0.1c-0.4,0.4-0.6,0.9-0.6,1.5v15.1
	c0,0.4,0.3,0.8,0.8,0.8h0.1c0.2,0,0.4-0.1,0.6-0.2l5-5.3l4.8,5.1c0.1,0.2,0.4,0.3,0.6,0.3c0.4,0,0.8-0.3,0.8-0.8v-15
	C26.3,12.5,26.1,12,25.7,11.6z"/>
</svg>
