<?xml version="1.0" encoding="utf-8"?>
<!-- Generator: Adobe Illustrator 21.0.0, SVG Export Plug-In . SVG Version: 6.00 Build 0)  -->
<svg version="1.1" id="Layer_1" xmlns="http://www.w3.org/2000/svg" xmlns:xlink="http://www.w3.org/1999/xlink" x="0px" y="0px"
	 viewBox="0 0 60 60" style="enable-background:new 0 0 60 60;" xml:space="preserve">
<style type="text/css">
	.st0{fill-rule:evenodd;clip-rule:evenodd;fill:#FFFFFF;}
	.st1{fill-rule:evenodd;clip-rule:evenodd;fill:#ED733F;}
</style>
<path class="st0" d="M25.4,43L25.4,43c-2.5,1.7-5.2,2.4-8.1,1.9c-0.3-0.1-0.6-0.3-0.6-0.5c-0.1-0.3,0-0.6,0.2-0.8
	c1.3-1,2.2-2.3,2.8-3.8l0,0c-2.6-2.4-4.2-5.7-4.2-9.3c0-7.3,6.5-13.3,14.6-13.3c8,0,14.5,5.9,14.5,13.3C44.6,39.5,34.7,45.9,25.4,43
	z"/>
<path class="st1" d="M40.3,28.7c4.2,0,7.7-3.4,7.7-7.7c0-4.2-3.4-7.7-7.7-7.7c-4.2,0-7.7,3.4-7.7,7.7C32.7,25.2,36.1,28.7,40.3,28.7
	z"/>
<g>
	<path class="st0" d="M43.4,17.9c-0.4-1.1-1.5-1.9-2.7-1.9c-1.6,0-2.8,1.3-2.8,2.8c0,1.1,0.7,2.1,1.7,2.6c0.2,0.1,0.4,0.3,0.4,0.6
		v0.8c0,0.4,0.3,0.8,0.8,0.8c0.4,0,0.8-0.3,0.8-0.8v-0.8c0-0.9-0.5-1.6-1.3-2c-0.5-0.2-0.8-0.7-0.8-1.2c0-0.7,0.6-1.3,1.3-1.3
		c0.5,0,1,0.3,1.2,0.8c0.1,0.4,0.6,0.6,1,0.5C43.3,18.8,43.5,18.3,43.4,17.9z"/>
	<circle class="st0" cx="40.3" cy="25.3" r="0.9"/>
</g>
</svg>
