<?xml version="1.0" encoding="utf-8"?>
<!-- Generator: Adobe Illustrator 21.0.0, SVG Export Plug-In . SVG Version: 6.00 Build 0)  -->
<svg version="1.1" id="Layer_1" xmlns="http://www.w3.org/2000/svg" xmlns:xlink="http://www.w3.org/1999/xlink" x="0px" y="0px"
	 viewBox="0 0 22 22" style="enable-background:new 0 0 22 22;" xml:space="preserve">
<style type="text/css">
	.st0{opacity:0.2;}
</style>
<path class="st0" d="M11,2c-5,0-9,4-9,9c0,5,4,9,9,9s9-4,9-9C20,6,16,2,11,2z M6.9,12.2c-0.7,0-1.2-0.5-1.2-1.2
	c0-0.7,0.5-1.2,1.2-1.2c0.7,0,1.2,0.5,1.2,1.2C8.1,11.7,7.6,12.2,6.9,12.2z M11,12.2c-0.7,0-1.2-0.5-1.2-1.2c0-0.7,0.5-1.2,1.2-1.2
	s1.2,0.5,1.2,1.2C12.2,11.7,11.7,12.2,11,12.2z M15.1,12.2c-0.7,0-1.2-0.5-1.2-1.2c0-0.7,0.5-1.2,1.2-1.2c0.7,0,1.2,0.5,1.2,1.2
	C16.3,11.7,15.7,12.2,15.1,12.2z"/>
</svg>
