<?xml version="1.0" encoding="utf-8"?>
<!-- Generator: Adobe Illustrator 21.0.0, SVG Export Plug-In . SVG Version: 6.00 Build 0)  -->
<svg version="1.1" id="Layer_1" xmlns="http://www.w3.org/2000/svg" xmlns:xlink="http://www.w3.org/1999/xlink" x="0px" y="0px"
	 viewBox="0 0 22 22" style="enable-background:new 0 0 22 22;" xml:space="preserve">
<style type="text/css">
	.st0{fill:#A8CC72;}
</style>
<path class="st0" d="M11,2c-5,0-9,4-9,9c0,5,4,9,9,9s9-4,9-9C20,6,16,2,11,2z M14.8,10.1l-3.9,3.9c-0.2,0.2-0.6,0.4-0.9,0.4
	c-0.3,0-0.7-0.1-0.9-0.4L7.2,12c-0.2-0.2-0.3-0.4-0.3-0.7c0-0.3,0.1-0.5,0.3-0.7c0.2-0.2,0.4-0.3,0.7-0.3s0.5,0.1,0.7,0.3L10,12
	l3.3-3.3c0.2-0.2,0.4-0.3,0.7-0.3c0.3,0,0.5,0.1,0.7,0.3C15.2,9,15.2,9.7,14.8,10.1z"/>
</svg>
