<?xml version="1.0" encoding="utf-8"?>
<!-- Generator: Adobe Illustrator 21.0.0, SVG Export Plug-In . SVG Version: 6.00 Build 0)  -->
<svg version="1.1" id="Layer_1" xmlns="http://www.w3.org/2000/svg" xmlns:xlink="http://www.w3.org/1999/xlink" x="0px" y="0px"
	 viewBox="0 0 50 50" style="enable-background:new 0 0 50 50;" xml:space="preserve">
<style type="text/css">
	.st0{fill:#FFFFFF;}
	.st1{fill:url(#logoLogo_1_);}
</style>
<path class="st0" d="M18,41c7.9,0,12.3,0,15.1-2.9C36,35.3,36,30.9,36,23s0-12.3-2.9-15.1C30.3,5,25.9,5,18,5S5.7,5,2.9,7.9
	C0,10.7,0,15.1,0,23s0,12.3,2.9,15.1C5.7,41,10.1,41,18,41z"/>
<linearGradient id="logoLogo_1_" gradientUnits="userSpaceOnUse" x1="21.4886" y1="17.4746" x2="10.7169" y2="28.2463">
	<stop  offset="0" style="stop-color:#75D1FA"/>
	<stop  offset="1" style="stop-color:#75A8FB"/>
</linearGradient>
<path id="logoLogo" class="st1" d="M24.2,20.2L17,14.7c-0.1,0-0.2-0.1-0.3,0c-0.2,0.1-0.2,0.2-0.2,0.3v1l6.9,5.3
	c0.4,0.4,0.6,1,0.3,1.5c-0.4,0.6-1.2,0.8-1.8,0.4l-8.5-6.6c-0.2-0.1-0.2-0.2-0.4-0.1c-0.2,0.1-0.2,0.2-0.2,0.3v12.9
	c0,0.4,0.2,1,0.6,1.3c0.6,0.6,1.5,0.6,2.1,0.1l8.7-6.8C25.5,23.2,25.5,21.2,24.2,20.2z"/>
</svg>
