<?xml version="1.0" encoding="utf-8"?>
<!-- Generator: Adobe Illustrator 21.0.0, SVG Export Plug-In . SVG Version: 6.00 Build 0)  -->
<svg version="1.1" id="Layer_1" xmlns="http://www.w3.org/2000/svg" xmlns:xlink="http://www.w3.org/1999/xlink" x="0px" y="0px"
	 viewBox="0 0 50 50" style="enable-background:new 0 0 50 50;" xml:space="preserve">
<style type="text/css">
	.st0{fill:#CF9D2A;}
	.st1{fill:#522D1D;}
</style>
<path class="st0" d="M16.4,14.4h17.2c0.3,0.1,0.6,0.3,0.9,0.4c0.5,0.3,0.8,0.7,1,1.2c0.2,0.6,0.1,1.2,0.2,1.8c0,5.1,0,10.2,0,15.3
	c0,0.9-0.4,1.9-1.3,2.3c-0.6,0.3-1.3,0.2-2,0.3c-4.5,0-8.9,0-13.4,0c-0.9,0-1.8,0.1-2.7-0.1c-1-0.3-1.9-1.3-1.8-2.4
	c0-5.4,0-10.8,0-16.3c0-0.5,0.1-1,0.4-1.4C15.2,15,15.8,14.7,16.4,14.4 M16.2,15.3c-0.8,0.4-1.3,1.3-1.2,2.2c0,2.8,0,5.6,0,8.4
	c0.3-0.4,0.5-0.9,0.8-1.3c0.6-1,1.3-1.9,2.2-2.6c1.2-1,2.7-1.4,4.2-1.2c1.2,0.3,2.3,0.9,3.4,1.5c1.5,0.8,3,1.7,4.6,2.3
	c0.9,0.3,1.9,0.6,2.8,0.2c0.8-0.3,1.4-1.1,1.6-2c0.2-0.7,0.4-1.4,0.4-2.2c0-1.1,0-2.3,0-3.4c0-1.1-1-2.2-2.2-2.2
	c-4.9,0-9.8,0-14.7,0C17.4,15.1,16.8,15,16.2,15.3 M34,25.8c-0.7,1-1.5,2-2.6,2.6c-1.1,0.7-2.4,1-3.7,0.7c-1.3-0.3-2.6-1-3.8-1.6
	c-1.7-0.9-3.4-1.9-5.3-2.3c-0.9-0.2-2,0-2.6,0.7c-0.7,0.8-0.9,1.9-1.1,3c-0.1,1.2,0,2.4,0,3.6c0,0.9,0.5,1.9,1.4,2.3
	c0.5,0.3,1.1,0.2,1.7,0.2c4.6,0,9.3,0,13.9,0c0.5,0,1,0,1.5-0.1c0.9-0.3,1.5-1.3,1.5-2.2c0-2.8,0-5.5,0-8.3
	C34.6,24.8,34.4,25.3,34,25.8L34,25.8z"/>
<path class="st1" d="M16.2,15.3c0.5-0.3,1.2-0.2,1.8-0.3c4.9,0,9.8,0,14.7,0c1.2,0,2.2,1,2.2,2.2c0,1.1,0,2.3,0,3.4
	c0,0.7-0.2,1.5-0.4,2.2c-0.2,0.8-0.8,1.6-1.6,2c-0.9,0.4-1.9,0.1-2.8-0.2c-1.6-0.6-3.1-1.5-4.6-2.3c-1.1-0.6-2.2-1.2-3.4-1.5
	c-1.5-0.3-3.1,0.2-4.2,1.2c-0.9,0.7-1.6,1.6-2.2,2.6c-0.3,0.4-0.5,0.9-0.8,1.3c0-2.8,0-5.6,0-8.4C15,16.6,15.5,15.7,16.2,15.3"/>
<path class="st1" d="M34,25.8c0.3-0.5,0.6-1,0.9-1.5c0,2.8,0,5.5,0,8.3c0.1,1-0.6,1.9-1.5,2.2C33,35,32.5,35,32,35
	c-4.6,0-9.3,0-13.9,0c-0.6,0-1.2,0.1-1.7-0.2c-0.9-0.4-1.4-1.3-1.4-2.3c0-1.2,0-2.4,0-3.6c0.2-1,0.4-2.2,1.1-3
	c0.6-0.7,1.7-0.9,2.6-0.7c1.9,0.4,3.6,1.4,5.3,2.3c1.2,0.6,2.4,1.3,3.8,1.6c1.3,0.2,2.6-0.1,3.7-0.7C32.5,27.8,33.4,26.8,34,25.8"/>
</svg>
