<?xml version="1.0" encoding="utf-8"?>
<!-- Generator: Adobe Illustrator 21.0.0, SVG Export Plug-In . SVG Version: 6.00 Build 0)  -->
<svg version="1.1" id="Layer_1" xmlns="http://www.w3.org/2000/svg" xmlns:xlink="http://www.w3.org/1999/xlink" x="0px" y="0px"
	 viewBox="0 0 48 48" style="enable-background:new 0 0 48 48;" xml:space="preserve">
<style type="text/css">
	.st0{fill:#93B364;}
</style>
<path class="st0" d="M21.1,29.5l-0.2-0.2c-0.3-0.3-0.3-0.8,0-1.1l5-5c0.3-0.3,0.8-0.3,1.1,0l0.2,0.2c0.3,0.3,0.3,0.8,0,1.1l-5,5
	C21.9,29.8,21.4,29.8,21.1,29.5z"/>
<path class="st0" d="M20.9,18.6l0.2-0.2c0.3-0.3,0.8-0.3,1.1,0l5,5c0.3,0.3,0.3,0.8,0,1.1L27,24.7c-0.3,0.3-0.8,0.3-1.1,0l-5-5
	C20.6,19.4,20.6,18.9,20.9,18.6z"/>
</svg>
