<?xml version="1.0" encoding="utf-8"?>
<!-- Generator: Adobe Illustrator 21.0.0, SVG Export Plug-In . SVG Version: 6.00 Build 0)  -->
<svg version="1.1" id="Layer_1" xmlns="http://www.w3.org/2000/svg" xmlns:xlink="http://www.w3.org/1999/xlink" x="0px" y="0px"
	 viewBox="0 0 60 60" style="enable-background:new 0 0 60 60;" xml:space="preserve">
<style type="text/css">
	.st0{fill:#859B62;}
	.st1{fill:#F94E5B;}
	.st2{fill:#F58960;}
	.st3{fill:#8CB5F3;}
</style>
<path class="st0" d="M32.8,9.6l-15.6,4.3c-1.7,0.5-3,1.8-3.4,3.5L9.7,33.1c-0.4,1.7,0.1,3.5,1.3,4.7l11.6,11.4
	c1.2,1.2,3,1.7,4.7,1.2l15.6-4.3c1.7-0.5,3-1.8,3.4-3.5l4.1-15.7c0.4-1.7-0.1-3.5-1.3-4.7L37.5,10.8C36.2,9.6,34.5,9.2,32.8,9.6z"/>
<circle class="st0" cx="39.5" cy="54.6" r="1.1"/>
<circle class="st1" cx="50.2" cy="10.6" r="2.4"/>
<circle class="st2" cx="44.9" cy="51.1" r="2.4"/>
<circle class="st3" cx="6.7" cy="8.2" r="3.3"/>
<circle class="st1" cx="7.5" cy="16.3" r="1.8"/>
</svg>
