<?xml version="1.0" encoding="utf-8"?>
<!-- Generator: Adobe Illustrator 21.0.0, SVG Export Plug-In . SVG Version: 6.00 Build 0)  -->
<svg version="1.1" id="Layer_1" xmlns="http://www.w3.org/2000/svg" xmlns:xlink="http://www.w3.org/1999/xlink" x="0px" y="0px"
	 viewBox="0 0 320 110" style="enable-background:new 0 0 320 110;" xml:space="preserve">
<style type="text/css">
	.st0{fill:#8CB5F3;}
	.st1{fill:#78869F;}
</style>
<path class="st0" d="M80.8,47.6L61.5,32.5c-0.4-0.2-0.8-0.2-0.9,0c-0.4,0.2-0.6,0.4-0.6,0.8v2.6l18.7,14.5c1.7,1.3,1.7,4,0,5.3
	c-1.1,0.9-2.8,0.9-4,0L51.5,37.6c-0.2-0.2-0.6-0.2-0.9-0.2C50.2,37.6,50,38,50,38.3v34.7c0,1.7,0.9,3.2,2.5,4.2
	c1.5,0.8,3.4,0.6,4.7-0.6l23.4-18.3C84.2,55.5,84.2,50.2,80.8,47.6z"/>
<rect x="211" y="36" class="st1" width="4" height="28"/>
<path class="st1" d="M270,64.6V44h-4c0,6.9,0,13.9,0,20.8c0,1.7-1.3,3.2-3.1,3.2H261v4h1.6C266.7,72,270,68.7,270,64.6z"/>
<rect x="266" y="37" class="st1" width="4" height="4"/>
<path class="st1" d="M113,64h-4V44h3c0,2.4,0,3,0,4.4c0-4.8,16-8.7,16,2.2V64h-4V50.4c0-4.9-10.4-5.7-11,1.5V64z"/>
<path class="st1" d="M185.2,65.7c-6.1,0-10.8-4.9-10.8-10.8c0-6.1,4.9-10.8,10.8-10.8c6.1,0,10.8,4.9,10.8,10.8
	C196,61,191,65.7,185.2,65.7L185.2,65.7z M185.2,61.9c3.8,0,7-3.2,7-7s-3.2-7-7-7s-7,3.2-7,7S181.2,61.9,185.2,61.9z"/>
<path class="st1" d="M151.9,65.7c-5.3,0-10.8-4.9-10.8-10.8c0-6.1,4.9-10.8,10.8-10.8c6.6,0,11.7,6,10.6,12.8H145c0.8,2.7,4,5,6.8,5
	s4.5-1.1,5.9-2.9h4.4C160.4,62.9,157.2,65.7,151.9,65.7L151.9,65.7z M145,53h13.6c-0.8-3-3.6-5.3-6.8-5.3
	C148.5,47.7,145.8,50,145,53z"/>
<path class="st1" d="M239.3,65.7c-5.3,0-10.8-4.9-10.8-10.8c0-6.1,4.9-10.8,10.8-10.8c6.6,0,11.8,6,10.7,12.8h-17.4
	c0.8,2.7,3.9,5,6.8,5s4.5-1.1,5.9-2.9h4.4C247.8,62.9,244.6,65.7,239.3,65.7L239.3,65.7z M232.5,53h13.6c-0.8-3-3.6-5.3-6.8-5.3
	C235.9,47.7,233.3,50,232.5,53z"/>
</svg>
