<?xml version="1.0" encoding="utf-8"?>
<!-- Generator: Adobe Illustrator 21.0.0, SVG Export Plug-In . SVG Version: 6.00 Build 0)  -->
<svg version="1.1" id="Layer_1" xmlns="http://www.w3.org/2000/svg" xmlns:xlink="http://www.w3.org/1999/xlink" x="0px" y="0px"
	 viewBox="0 0 26 26" style="enable-background:new 0 0 26 26;" xml:space="preserve">
<style type="text/css">
	.st0{fill:#78869F;}
</style>
<path class="st0" d="M15.5,16.6l-6.1-6.1c-0.3-0.3-0.3-0.8,0-1.1l0,0c0.3-0.3,0.8-0.3,1.1,0l6.1,6.1c0.3,0.3,0.3,0.8,0,1.1l0,0
	C16.3,17,15.8,17,15.5,16.6z"/>
<path class="st0" d="M9.4,15.5l6.1-6.1c0.3-0.3,0.8-0.3,1.1,0l0,0c0.3,0.3,0.3,0.8,0,1.1l-6.1,6.1c-0.3,0.3-0.8,0.3-1.1,0l0,0
	C9,16.3,9,15.8,9.4,15.5z"/>
</svg>
