<?xml version="1.0" encoding="utf-8"?>
<!-- Generator: Adobe Illustrator 21.0.0, SVG Export Plug-In . SVG Version: 6.00 Build 0)  -->
<svg version="1.1" id="Layer_1" xmlns="http://www.w3.org/2000/svg" xmlns:xlink="http://www.w3.org/1999/xlink" x="0px" y="0px"
	 viewBox="0 0 50 50" style="enable-background:new 0 0 50 50;" xml:space="preserve">
<style type="text/css">
	.st0{fill:#7CD0F5;}
	.st1{fill:#02AAE8;}
	.st2{fill:#006FB8;}
</style>
<path class="st0" d="M33.7,26.6c0.2-0.2,0.5-0.4,0.7-0.5c1.8-1.4,3.3-3.2,4.8-5c0,0,0,0,0,0c-2.1-0.9-4.3-1.5-6.6-1.6
	c0-0.2,0.1-0.3,0.2-0.5c0.5-1.1,0.8-2.2,1-3.4c0.2-0.9,0.3-1.9,0.3-2.8c-0.1,0-0.1,0-0.2,0c-2,0.5-4,1.2-5.9,2.1
	c-0.3,0.1-0.5,0.3-0.8,0.4c-0.3-1.6-1.1-3-2.1-4.3c-0.1-0.1-0.3,0.1-0.3,0.2c-0.3,0.3-0.7,0.6-1,0.9c-0.6,0.6-1.2,1.2-1.8,1.9
	c-0.5,0.5-0.9,1.1-1.3,1.6c-0.3-0.2-0.7-0.5-1-0.6c-0.7-0.3-1.5-0.6-2.4-0.6c-0.6,1.5-1.3,3-1.6,4.6c-0.9,0-1.8,0.2-2.6,0.6
	c-0.1,0.1-0.2,0.1-0.4,0.1c0,1,0,2,0.2,3c0,0.2,0.1,0.4,0.1,0.6c-0.2,0.1-0.3,0.2-0.5,0.3c-0.4,0.3-0.7,0.7-1.1,1
	c-0.2,0.2-0.3,0.4-0.5,0.6c0.2,0.6,0.5,1.2,0.9,1.8c0.1,0.3,0.4,0.5,0.5,0.7c-0.5,0.8-0.8,1.6-1,2.5c0.2,0.1,0.3,0.3,0.5,0.4
	c0.5,0.4,1,0.7,1.6,0.9l0,0c-0.1,0.2-0.1,0.4-0.1,0.6c0,0.7,0,1.5,0.1,2.2c0.8,0.2,1.6,0.4,2.5,0.3c0.1,0.2,0.1,0.4,0.2,0.6
	c0.3,0.8,0.7,1.5,1.1,2.2c0.1,0,0.2,0,0.3,0c0.8-0.2,1.6-0.5,2.4-1c0.1,0.1,0.2,0.2,0.3,0.3c0.7,0.8,1.6,1.4,2.5,2
	c0.1,0,0.1,0.1,0.2,0c0.3-0.2,0.5-0.4,0.7-0.7c0.6-0.6,1-1.2,1.4-1.9c0.1,0,0.2,0,0.2,0.1c0.4,0.1,0.7,0.2,1.1,0.3
	c1.2,0.3,2.4,0.5,3.6,0.6c0.1-0.1,0.1-0.3,0.2-0.4c0.2-0.6,0.3-1.3,0.4-1.9c0.1-0.6,0-1.3,0-1.9c2.2-0.3,4.4-1.1,6.4-1.9
	C36.1,29.4,35.1,27.8,33.7,26.6z M24,29.6c-0.8,0-1.6-0.2-2.4-0.6c0.3,0.7,0.5,1.4,0.5,2.2c-0.6-0.4-1.2-1-1.5-1.6
	c0,0.7-0.3,1.4-0.6,2c0,0,0,0-0.1,0c-0.3-0.6-0.4-1.3-0.5-2c-0.4,0.6-0.9,1.1-1.4,1.5c0-0.7,0.2-1.4,0.6-2c-0.6,0.3-1.2,0.5-1.9,0.6
	c0.3-0.5,0.8-1,1.3-1.4c0,0,0.1-0.1,0.1-0.1c-0.6,0-1.2-0.2-1.8-0.4c0.5-0.3,1.2-0.6,1.8-0.7c0,0,0,0,0-0.1c-0.5-0.3-1-0.8-1.3-1.4
	c0.6,0,1.2,0.1,1.8,0.3c0,0,0.1,0,0.1,0c-0.1-0.1-0.1-0.2-0.1-0.3c-0.2-0.6-0.4-1.2-0.4-1.8c0.1,0,0.3,0.2,0.4,0.2
	c0.4,0.3,0.8,0.7,1.1,1.2c0.1-0.9,0.3-1.7,0.7-2.5c0.3,0.7,0.5,1.5,0.5,2.3c0.5-0.8,1.1-1.5,1.8-2.1c-0.1,0.9-0.4,1.8-0.8,2.6
	c0.2-0.1,0.3-0.2,0.5-0.2c0.7-0.3,1.4-0.6,2.1-0.7c-0.6,0.8-1.3,1.5-2.1,2c0.9,0,1.7,0.1,2.5,0.4c0,0,0,0,0,0
	c-0.8,0.4-1.7,0.7-2.6,0.7C23,28.3,23.6,28.9,24,29.6z"/>
<path class="st1" d="M24.8,17c0.7-0.6,1.4-1.1,2.2-1.6c0.1,0.2,0.1,0.5,0.1,0.7c0.1,0.5,0,1.1-0.1,1.6c-0.1,1-0.4,2-0.7,3
	c0.7-0.3,1.4-0.5,2.2-0.8c0.8-0.2,1.5-0.4,2.3-0.5c0.5-0.1,1-0.1,1.6-0.1c-0.1,0.3-0.2,0.5-0.4,0.8c-0.5,0.9-1.1,1.7-1.8,2.5
	c-0.5,0.6-1.1,1.2-1.7,1.8c0,0,0,0.1,0,0.1c1.1,0.2,2.1,0.5,3.1,0.9c0.7,0.3,1.3,0.6,1.8,1.1c-0.9,0.7-1.9,1.2-2.9,1.6
	c-0.9,0.4-1.8,0.7-2.7,0.9c0.3,0.4,0.7,0.8,1,1.2c0.6,0.8,1.1,1.7,1.2,2.6c-1.7,0.3-3.4,0-5.1-0.4c0.1,0.6,0.1,1.3,0.1,1.9
	c0,0.6-0.2,1.2-0.4,1.8c-0.1,0-0.2,0-0.2-0.1c-1.2-0.5-2.2-1.3-3-2.1c-0.2,0.4-0.4,0.9-0.7,1.2c-0.3,0.5-0.6,0.9-1.1,1.2
	c-0.1,0.1-0.2,0-0.3-0.1c-0.6-0.8-1-1.7-1.3-2.7c-0.7,0.5-1.5,1.1-2.5,1.2c-0.3-0.9-0.2-1.9,0-2.9c-0.4,0.1-0.8,0.1-1.2,0.1
	c-0.5,0-0.9-0.1-1.4-0.2l0,0c0.1-0.9,0.6-1.7,1.2-2.5c-0.4-0.2-0.8-0.3-1.2-0.6c-0.4-0.2-0.7-0.5-1-0.8c0.5-0.8,1.3-1.3,2-1.7
	c0.1-0.1-0.1-0.2-0.1-0.3c-0.5-0.7-1-1.4-1.2-2.3c0-0.1,0-0.2,0.1-0.2c0.8-0.5,1.8-0.5,2.7-0.5c-0.1-0.7-0.2-1.4-0.2-2.1
	c0-0.6,0-1.2,0.2-1.7c1.1,0,2.1,0.6,2.9,1.3c0.2-0.8,0.5-1.6,0.8-2.4c0.3-0.8,0.7-1.5,1.2-2.2c0.7,0.5,1.1,1.3,1.4,2
	c0.2,0.5,0.4,1,0.5,1.6C23.2,18.5,24,17.7,24.8,17 M21.5,20.5c-0.2,0.4-0.5,0.7-0.7,1.1c-0.2,0.3-0.4,0.7-0.6,1.1
	c-0.2-0.3-0.4-0.7-0.6-1c-0.3-0.5-0.7-0.9-1.2-1.3c-0.3,1.1-0.4,2.2-0.4,3.3c-0.1,0-0.2-0.1-0.2-0.1c-0.6-0.3-1.3-0.5-2-0.6
	c-0.1,0-0.2,0-0.2,0c0.1,0.3,0.2,0.6,0.3,0.9c0.2,0.6,0.4,1.1,0.8,1.7c-0.6,0-1.3,0.2-1.9,0.4c-0.2,0.1-0.3,0.1-0.5,0.2
	c0.4,0.4,0.8,0.8,1.2,1.1c0.2,0.1,0.4,0.2,0.6,0.4c-0.7,0.4-1.3,1-1.8,1.6c0.1,0,0.1,0.1,0.2,0.1c0.4,0.1,0.9,0.2,1.3,0.2
	c0.2,0,0.5,0,0.7,0c-0.1,0.3-0.3,0.6-0.4,0.9c-0.2,0.4-0.4,0.9-0.4,1.4c0.6-0.1,1.2-0.3,1.7-0.6c0.1-0.1,0.3-0.2,0.4-0.2
	c0,0.6,0,1.3,0.1,1.9c0,0.2,0.1,0.5,0.2,0.7c0.2-0.2,0.4-0.3,0.5-0.5c0.4-0.4,0.8-0.9,1.1-1.4c0.1,0.1,0.2,0.3,0.3,0.4
	c0.4,0.7,0.8,1.3,1.3,1.8c0.1,0.1,0.1-0.1,0.1-0.1c0.3-0.8,0.5-1.7,0.5-2.6c0,0,0,0,0.1-0.1c0.9,0.6,1.9,1,3,1.3
	c0-0.2-0.1-0.4-0.1-0.6c-0.1-0.6-0.3-1.1-0.6-1.6c-0.1-0.3-0.3-0.5-0.4-0.7c1.3,0.1,2.6-0.1,3.9-0.4c0,0,0-0.1-0.1-0.1
	c-0.8-0.8-1.8-1.5-2.8-1.9c0-0.1,0.1-0.1,0.2-0.2c1-0.5,2-1.2,2.9-2c0.2-0.1,0.3-0.3,0.5-0.4c-1-0.1-1.9-0.2-2.9-0.1
	c-0.4,0-0.8,0.1-1.2,0.1c0.1-0.2,0.2-0.3,0.3-0.4c0.2-0.4,0.5-0.7,0.7-1.2c0.3-0.5,0.5-1,0.7-1.5c0.1-0.2,0.2-0.5,0.2-0.7
	c-0.6,0.2-1.1,0.5-1.6,0.8C24,22,23.3,22.4,22.7,23c0-0.2,0-0.4,0-0.6c0.1-0.9,0-1.8-0.2-2.7c0-0.1,0-0.2-0.1-0.3
	C22.1,19.7,21.8,20.2,21.5,20.5L21.5,20.5z"/>
<path class="st2" d="M21.5,20.5c0.3-0.4,0.6-0.8,0.9-1.2c0.1,0.1,0.1,0.2,0.1,0.3c0.2,0.9,0.2,1.8,0.2,2.7c0,0.2-0.1,0.4,0,0.6
	c0.6-0.5,1.3-1,2.1-1.4c0.5-0.3,1.1-0.6,1.6-0.8c0,0.3-0.2,0.5-0.2,0.7c-0.2,0.5-0.4,1-0.7,1.5c-0.2,0.4-0.4,0.8-0.7,1.2
	c-0.1,0.1-0.2,0.3-0.3,0.4c0.4,0,0.8-0.1,1.2-0.1c1-0.1,1.9,0,2.9,0.1c-0.1,0.2-0.3,0.3-0.5,0.4c-0.9,0.8-1.8,1.5-2.9,2
	c-0.1,0-0.2,0.1-0.2,0.2c1.1,0.4,2,1.1,2.8,1.9c0,0,0.1,0.1,0.1,0.1c-1.3,0.3-2.6,0.5-3.9,0.4c0.1,0.3,0.3,0.5,0.4,0.7
	c0.2,0.5,0.5,1,0.6,1.6c0,0.2,0.1,0.4,0.1,0.6c-1.1-0.3-2.1-0.7-3-1.3c0,0,0,0-0.1,0.1c0,0.9-0.2,1.7-0.5,2.6c0,0.1-0.1,0.2-0.1,0.1
	c-0.5-0.5-1-1.2-1.3-1.8c-0.1-0.1-0.1-0.3-0.3-0.4c-0.3,0.5-0.6,1-1.1,1.4c-0.2,0.2-0.4,0.3-0.5,0.5c-0.1-0.2-0.1-0.5-0.2-0.7
	C18,32.4,18,31.7,18,31.1c-0.1,0.1-0.3,0.2-0.4,0.2c-0.5,0.3-1.1,0.5-1.7,0.6c0-0.5,0.2-0.9,0.4-1.4c0.1-0.3,0.3-0.6,0.4-0.9
	c-0.2,0-0.5,0-0.7,0c-0.4,0-0.9-0.1-1.3-0.2c-0.1,0-0.1-0.1-0.2-0.1c0.5-0.6,1.1-1.2,1.8-1.6c-0.2-0.1-0.4-0.2-0.6-0.4
	c-0.5-0.3-0.9-0.7-1.2-1.1c0.1-0.1,0.3-0.2,0.5-0.2c0.6-0.2,1.2-0.4,1.9-0.4c-0.3-0.5-0.6-1.1-0.8-1.7c-0.1-0.3-0.2-0.6-0.3-0.9
	c0.1,0,0.2,0,0.2,0c0.7,0.1,1.4,0.3,2,0.6c0.1,0,0.2,0.1,0.2,0.1c0-1.1,0.1-2.3,0.4-3.3c0.5,0.4,0.8,0.8,1.2,1.3
	c0.2,0.3,0.4,0.7,0.6,1c0.2-0.3,0.3-0.7,0.6-1.1C21.1,21.3,21.3,20.9,21.5,20.5 M20.3,22.8c-0.4,0.8-0.6,1.6-0.7,2.5
	c-0.3-0.5-0.7-0.9-1.1-1.2c-0.1-0.1-0.2-0.2-0.4-0.2c0,0.6,0.2,1.3,0.4,1.8c0,0.1,0.1,0.2,0.1,0.3c0,0-0.1,0-0.1,0
	c-0.6-0.2-1.2-0.4-1.8-0.3c0.3,0.5,0.8,1,1.3,1.4c0,0,0,0.1,0,0.1c-0.6,0.1-1.3,0.3-1.8,0.7c0.6,0.3,1.2,0.4,1.8,0.4
	c0,0-0.1,0.1-0.1,0.1c-0.5,0.4-0.9,0.9-1.3,1.4c0.7,0,1.3-0.3,1.9-0.6c-0.3,0.6-0.5,1.3-0.6,2c0.6-0.4,1.1-0.9,1.4-1.5
	c0,0.7,0.2,1.4,0.5,2c0,0,0,0,0.1,0c0.3-0.6,0.5-1.3,0.6-2c0.4,0.6,0.9,1.2,1.5,1.6c0-0.8-0.2-1.5-0.5-2.2c0.7,0.4,1.6,0.5,2.4,0.6
	c-0.4-0.7-1-1.2-1.7-1.7c0.9-0.1,1.8-0.4,2.6-0.7c0,0,0,0,0,0c-0.8-0.3-1.7-0.5-2.5-0.4c0.8-0.5,1.5-1.3,2.1-2
	c-0.7,0.1-1.5,0.4-2.1,0.7c-0.2,0.1-0.3,0.2-0.5,0.2c0.4-0.8,0.7-1.7,0.8-2.6c-0.7,0.6-1.4,1.3-1.8,2.1
	C20.8,24.3,20.6,23.5,20.3,22.8L20.3,22.8z"/>
</svg>
