<?xml version="1.0" encoding="utf-8"?>
<!-- Generator: Adobe Illustrator 21.0.0, SVG Export Plug-In . SVG Version: 6.00 Build 0)  -->
<svg version="1.1" id="Layer_1" xmlns="http://www.w3.org/2000/svg" xmlns:xlink="http://www.w3.org/1999/xlink" x="0px" y="0px"
	 viewBox="0 0 50 50" style="enable-background:new 0 0 50 50;" xml:space="preserve">
<style type="text/css">
	.st0{fill:#FFD23F;}
</style>
<path class="st0" d="M15.4,14.9h5.7c0.5,0,0.7,0.6,0.4,0.9l-5.7,5.7c-0.3,0.3-0.9,0.1-0.9-0.4l0-5.7C14.9,15.1,15.1,14.9,15.4,14.9
	C15.4,14.9,15.4,14.9,15.4,14.9 M34.6,35.1h-5.7c-0.5,0-0.7-0.6-0.4-0.9l5.7-5.7c0.3-0.3,0.9-0.1,0.9,0.4l0,5.7
	C35.2,34.9,34.9,35.1,34.6,35.1 M15.7,30.2l14.5-14.5c1.1-1.1,2.9-1.1,4.1,0c0,0,0,0,0,0c1.1,1.1,1.1,2.9,0,4.1c0,0,0,0,0,0
	L19.8,34.3c-1.1,1.1-2.9,1.1-4.1,0c0,0,0,0,0,0C14.6,33.2,14.6,31.4,15.7,30.2C15.7,30.2,15.7,30.2,15.7,30.2z"/>
</svg>
